<svg width="44" height="44" viewBox="0 0 44 44" fill="none" xmlns="http://www.w3.org/2000/svg">
<circle cx="22" cy="22" r="22" fill="#3CB4E7"/>
<path d="M33.5939 22.3945V22.7113C33.5939 25.5942 31.2485 27.9397 28.3655 27.9397H20.7715V28.5918C20.7715 29.9705 21.889 31.088 23.2676 31.088H29.6156L32.4901 33.9159C32.5925 34.0166 32.7284 34.0701 32.8666 34.0701C32.9366 34.0701 33.007 34.0564 33.074 34.0284C33.2735 33.9447 33.4034 33.7495 33.4034 33.5333V31.0831C34.7123 31.0058 35.75 29.9202 35.75 28.5918V24.867C35.7501 23.6039 34.8115 22.5605 33.5939 22.3945Z" fill="white"/>
<path d="M32.1498 22.6068V16.6636C32.1498 14.4639 30.3665 12.6807 28.1669 12.6807H12.2329C10.0332 12.6807 8.25 14.4639 8.25 16.6636V22.6068C8.25 24.7264 9.90579 26.4584 11.9943 26.5819V30.4912C11.9943 30.8363 12.2014 31.1478 12.5197 31.2812C12.6267 31.3261 12.7391 31.3478 12.8506 31.3478C13.0712 31.3478 13.2881 31.2626 13.4515 31.1018L18.0379 26.5896H28.1668C30.3666 26.5897 32.1498 24.8065 32.1498 22.6068Z" fill="white"/>
</svg>
