<svg width="44" height="44" viewBox="0 0 44 44" fill="none" xmlns="http://www.w3.org/2000/svg">
<path d="M41.6596 0H2.34043C1.04804 0 0 1.04804 0 2.34043V41.6596C0 42.952 1.04804 44 2.34043 44H41.6596C42.9524 44 44 42.952 44 41.6596V2.34043C44 1.04804 42.9524 0 41.6596 0ZM31.3289 10.0002L27.9466 10.0016C25.2953 10.0016 24.7818 11.2617 24.7818 13.1111V17.1886H31.1061L31.1043 23.5751H24.7818V39.9637H18.186V23.5751H12.6711V17.1886H18.186V12.4787C18.186 7.01285 21.5249 4.0363 26.4 4.0363L31.3289 4.04426V10.0002Z" fill="black" fill-opacity="0.87"/>
</svg>
