<svg width="45" height="44" viewBox="0 0 45 44" fill="none" xmlns="http://www.w3.org/2000/svg">
<path d="M30.9328 15.0515H35.043C35.9432 15.0515 36.6795 14.3147 36.6795 13.4141V9.49576C36.6795 8.5947 35.9432 7.8584 35.043 7.8584H30.9328C30.0322 7.8584 29.2959 8.5947 29.2959 9.49576V13.4141C29.2959 14.3147 30.0322 15.0515 30.9328 15.0515Z" fill="black" fill-opacity="0.87"/>
<path d="M22.6595 28.9968C26.6929 28.9968 29.9626 25.8288 29.9626 21.9208C29.9626 18.0128 26.6929 14.8447 22.6595 14.8447C18.6261 14.8447 15.3564 18.0128 15.3564 21.9208C15.3564 25.8288 18.6261 28.9968 22.6595 28.9968Z" fill="black" fill-opacity="0.87"/>
<path d="M42.2846 0H2.96543C1.67304 0 0.625 1.04804 0.625 2.34043V41.6596C0.625 42.952 1.67304 44 2.96543 44H42.2846C43.5774 44 44.625 42.952 44.625 41.6596V2.34043C44.625 1.04804 43.5774 0 42.2846 0ZM40.8068 35.5146C40.8068 38.2814 38.7065 40.1818 36.1396 40.1818H9.11045C6.54347 40.1818 4.44317 38.2814 4.44317 35.5146V8.48545C4.44317 5.7186 6.543 3.81817 9.11045 3.81817H36.1396C38.7061 3.81817 40.8068 5.7186 40.8068 8.48545V35.5146Z" fill="black" fill-opacity="0.87"/>
<path d="M33.9627 22.3165C33.9627 28.3651 28.9018 33.2679 22.6603 33.2679C16.4179 33.2679 11.3575 28.3647 11.3575 22.3165C11.3575 21.2325 11.5213 20.1854 11.8241 19.1963H8.48389V34.5565C8.48389 35.3513 9.13499 36.002 9.9298 36.002H35.2527C36.0471 36.002 36.6982 35.3513 36.6982 34.5565V19.1963H33.4974C33.7989 20.1854 33.9627 21.232 33.9627 22.3165Z" fill="black" fill-opacity="0.87"/>
</svg>
