<svg width="44" height="44" viewBox="0 0 44 44" fill="none" xmlns="http://www.w3.org/2000/svg">
<g clip-path="url(#clip0)">
<path fill-rule="evenodd" clip-rule="evenodd" d="M0.512695 21.5335C0.778113 9.40575 10.3972 -0.21232 22.0217 0.0268256C33.6462 -0.21232 43.2653 9.40575 43.5307 21.5336C43.2653 33.6614 33.6462 43.2795 22.0217 43.0403C19.2968 43.046 16.5941 42.5281 14.049 41.5124C13.2534 41.1271 12.6629 40.855 12.1857 40.6352C10.5542 39.8837 10.2477 39.7425 7.59991 37.7692C3.08058 33.7844 0.543026 27.707 0.512695 21.5335ZM32.4246 15.7607C32.745 15.5778 33.145 15.6695 33.3632 15.9758C33.5827 16.2806 33.5552 16.7079 33.2987 16.9791L24.4988 26.1974C24.2279 26.4813 23.7939 26.4987 23.503 26.2374L18.754 21.9739L11.1274 26.3296C10.8427 26.4913 10.4905 26.4383 10.2608 26.1992C9.97352 25.9001 9.97215 25.4137 10.2577 25.1128L19.0576 15.8944C19.3285 15.6105 19.7625 15.5931 20.0534 15.8544L24.798 20.1164L32.4246 15.7607Z" fill="black"/>
</g>
<defs>
<clipPath id="clip0">
<rect width="43.0222" height="43.0222" fill="white" transform="translate(0.51123 0.0224609)"/>
</clipPath>
</defs>
</svg>
