<svg width="44" height="44" viewBox="0 0 44 44" fill="none" xmlns="http://www.w3.org/2000/svg">
<circle cx="22" cy="22" r="22" fill="#000000"/>
<path d="M29.1084 20.3924C29.1324 17.5727 26.7308 14.9877 23.7548 14.6303C23.6957 14.6232 23.6312 14.6126 23.5629 14.6012C23.4156 14.5768 23.2632 14.5518 23.1095 14.5518C22.4996 14.5518 22.3366 14.9802 22.2936 15.2357C22.2519 15.4842 22.2917 15.6928 22.4118 15.8561C22.6138 16.1308 22.9691 16.1795 23.2546 16.2186C23.3383 16.2302 23.4172 16.2409 23.4833 16.2558C26.1571 16.8532 27.0574 17.7925 27.4974 20.4436C27.5081 20.5083 27.513 20.5882 27.5181 20.6728C27.5373 20.9897 27.5773 21.649 28.2862 21.649H28.2862C28.3453 21.649 28.4087 21.644 28.4747 21.6339C29.1347 21.5336 29.114 20.9309 29.1041 20.6413C29.1013 20.5598 29.0987 20.4826 29.1056 20.4313C29.1074 20.4184 29.1083 20.4054 29.1084 20.3924Z" fill="#f5f5f5"/>
<path d="M22.9363 13.5955C23.0155 13.6012 23.0905 13.6067 23.1529 13.6163C27.5435 14.2915 29.5627 16.3717 30.1223 20.7967C30.1318 20.8719 30.1333 20.9636 30.1348 21.0608C30.1404 21.4065 30.1519 22.1257 30.9243 22.1406L30.9483 22.1408C31.1905 22.1408 31.3832 22.0678 31.521 21.9236C31.7614 21.6721 31.7447 21.2985 31.7311 20.9982C31.7278 20.9245 31.7247 20.8552 31.7254 20.7944C31.7813 16.2689 27.8639 12.1651 23.3424 12.0125C23.3236 12.0119 23.3057 12.0129 23.2877 12.0154C23.2788 12.0167 23.2623 12.0184 23.2341 12.0184C23.189 12.0184 23.1336 12.0145 23.0747 12.0105C23.0036 12.0056 22.923 12 22.8413 12C22.1212 12 21.9843 12.5118 21.9668 12.8169C21.9264 13.522 22.6085 13.5716 22.9363 13.5955Z" fill="#f5f5f5"/>
<path d="M29.9104 26.5154C29.8171 26.4442 29.7205 26.3704 29.6302 26.2976C29.1508 25.9118 28.6408 25.5562 28.1476 25.2123C28.0452 25.141 27.9428 25.0696 27.8409 24.9981C27.2091 24.5543 26.6411 24.3386 26.1044 24.3386C25.3816 24.3386 24.7515 24.738 24.2313 25.5255C24.0009 25.8746 23.7213 26.0443 23.3768 26.0443C23.1731 26.0443 22.9416 25.9862 22.6888 25.8715C20.6495 24.9467 19.1933 23.5289 18.3606 21.6572C17.9581 20.7526 18.0886 20.1613 18.797 19.6801C19.1993 19.407 19.9482 18.8987 19.8951 17.9253C19.835 16.8199 17.3961 13.4939 16.3684 13.1161C15.9333 12.9561 15.4762 12.9547 15.0072 13.1124C13.8258 13.5096 12.9781 14.207 12.5553 15.1293C12.1468 16.0204 12.1653 17.0667 12.6087 18.1552C13.8906 21.3021 15.6928 24.0458 17.9655 26.31C20.1901 28.5264 22.9243 30.3419 26.0921 31.7059C26.3777 31.8288 26.6772 31.8958 26.8958 31.9447C26.9704 31.9614 27.0347 31.9757 27.0816 31.9886C27.1074 31.9956 27.1339 31.9994 27.1606 31.9996L27.1857 31.9998C27.1857 31.9998 27.1857 31.9998 27.1858 31.9998C28.6757 31.9998 30.4647 30.6383 31.0142 29.0861C31.4955 27.727 30.6166 27.0552 29.9104 26.5154Z" fill="#f5f5f5"/>
<path d="M23.5953 17.19C23.3402 17.1964 22.8093 17.2096 22.6231 17.7503C22.5359 18.003 22.5464 18.2223 22.6541 18.4023C22.8123 18.6664 23.1153 18.7474 23.3909 18.7918C24.3903 18.9522 24.9036 19.5048 25.0062 20.5309C25.0539 21.0094 25.3761 21.3435 25.7898 21.3435H25.7899C25.8204 21.3435 25.8517 21.3417 25.8828 21.3379C26.3803 21.2787 26.6215 20.9131 26.5997 20.2515C26.6077 19.561 26.2463 18.7771 25.6317 18.1527C25.0149 17.5264 24.2715 17.1737 23.5953 17.19Z" fill="#f5f5f5"/>
</svg>
