<svg width="45" height="44" viewBox="0 0 45 44" fill="none" xmlns="http://www.w3.org/2000/svg">
<path d="M42.1596 0H2.84043C1.54757 0 0.5 1.04804 0.5 2.34043V41.6596C0.5 42.952 1.54757 44 2.84043 44H42.1596C43.4524 44 44.5 42.952 44.5 41.6596V2.34043C44.5 1.04804 43.4524 0 42.1596 0ZM40.0232 30.5847C39.5781 32.516 37.9983 33.9404 36.0983 34.1534C31.5949 34.6566 27.0376 34.6598 22.4981 34.6566C17.96 34.6594 13.4014 34.6566 8.89791 34.1534C6.99702 33.9408 5.41723 32.516 4.97302 30.5847C4.34111 27.8342 4.34111 24.8319 4.34111 22.0005C4.34111 19.1686 4.3486 16.1663 4.98098 13.4153C5.42519 11.484 7.00311 10.0596 8.90494 9.84664C13.4084 9.34391 17.9666 9.34157 22.5056 9.34391C27.0423 9.34157 31.6014 9.34391 36.1049 9.84664C38.0063 10.0596 39.5865 11.484 40.0307 13.4153C40.6645 16.1658 40.6589 19.1686 40.6589 22.0005C40.6584 24.8319 40.6556 27.8337 40.0232 30.5847Z" fill="black" fill-opacity="0.87"/>
<path d="M17.8135 27.6366C21.6714 25.636 25.498 23.6522 29.3597 21.6502C25.4863 19.629 21.663 17.6345 17.8135 15.626C17.8135 19.644 17.8135 23.6199 17.8135 27.6366Z" fill="black" fill-opacity="0.87"/>
</svg>


