<svg width="12" height="12" viewBox="0 0 12 12" fill="none" xmlns="http://www.w3.org/2000/svg">
<path d="M11.031 1.70453C10.4026 1.07617 9.57073 0.73273 8.68288 0.73273C7.79503 0.73273 6.9606 1.07871 6.33224 1.70708L6.00406 2.03525L5.6708 1.70199C5.04244 1.07362 4.20547 0.725098 3.31761 0.725098C2.43231 0.725098 1.59788 1.07108 0.97206 1.6969C0.343696 2.32526 -0.00228591 3.15969 0.000258071 4.04754C0.000258071 4.93539 0.348784 5.76728 0.977148 6.39564L5.75475 11.1732C5.8209 11.2394 5.90994 11.275 5.99643 11.275C6.08293 11.275 6.17197 11.2419 6.23811 11.1758L11.0259 6.40582C11.6543 5.77745 12.0002 4.94302 12.0002 4.05517C12.0028 3.16732 11.6593 2.3329 11.031 1.70453ZM10.5425 5.91991L5.99643 10.4482L1.46051 5.91228C0.961884 5.41366 0.687134 4.75223 0.687134 4.04754C0.687134 3.34286 0.95934 2.68142 1.45796 2.18534C1.95404 1.68927 2.61547 1.41452 3.31761 1.41452C4.0223 1.41452 4.68628 1.68927 5.1849 2.18789L5.75984 2.76283C5.89467 2.89766 6.11091 2.89766 6.24574 2.76283L6.81559 2.19298C7.31422 1.69436 7.9782 1.41961 8.68034 1.41961C9.38248 1.41961 10.0439 1.69436 10.5425 2.19043C11.0412 2.68905 11.3134 3.35049 11.3134 4.05517C11.3159 4.75986 11.0412 5.42129 10.5425 5.91991Z" fill="black"/>
</svg>
