<svg width="14" height="16" viewBox="0 0 14 16" fill="none" xmlns="http://www.w3.org/2000/svg">
<path d="M6.99667 0C3.46124 0 0.583252 2.87799 0.583252 6.41342C0.583252 6.81593 0.620149 7.2218 0.697298 7.61761C0.700652 7.64109 0.71407 7.71153 0.740904 7.83228C0.838179 8.26499 0.982413 8.69099 1.17025 9.09686C1.86124 10.7237 3.38074 13.2226 6.71491 15.8994C6.79877 15.9665 6.89939 16 7.00002 16C7.10065 16 7.20128 15.9665 7.28514 15.8994C10.616 13.2226 12.1388 10.7237 12.8298 9.09686C13.0176 8.69099 13.1619 8.26834 13.2591 7.83228C13.286 7.71153 13.2994 7.64109 13.3027 7.61761C13.3765 7.2218 13.4168 6.81593 13.4168 6.41342C13.4101 2.87799 10.5321 0 6.99667 0ZM12.4038 7.45996C12.4038 7.46667 12.4004 7.47337 12.4004 7.48008C12.3971 7.49686 12.387 7.54717 12.3703 7.62432C12.3703 7.62767 12.3703 7.62767 12.3703 7.63103C12.2864 8.00671 12.1623 8.37233 11.9979 8.72453C11.9946 8.72788 11.9946 8.73459 11.9912 8.73795C11.364 10.2239 9.9887 12.4914 6.99667 14.9635C4.00464 12.4914 2.62937 10.2239 2.00212 8.73795C1.99877 8.73459 1.99877 8.72788 1.99541 8.72453C1.83441 8.37568 1.7103 8.00671 1.62308 7.63103C1.62308 7.62767 1.62308 7.62767 1.62308 7.62432C1.60296 7.54717 1.59625 7.49686 1.5929 7.48008C1.5929 7.47337 1.58954 7.46667 1.58954 7.4566C1.52246 7.11111 1.48891 6.76226 1.48891 6.41006C1.48891 3.37442 3.96103 0.902306 6.99667 0.902306C10.0323 0.902306 12.5044 3.37442 12.5044 6.41006C12.5044 6.76562 12.4709 7.11782 12.4038 7.45996Z" fill="black"/>
<path d="M6.99668 2.41211C4.75265 2.41211 2.92456 4.2402 2.92456 6.48423C2.92456 8.72825 4.75265 10.5563 6.99668 10.5563C9.2407 10.5563 11.0688 8.72825 11.0688 6.48423C11.0688 4.2402 9.2407 2.41211 6.99668 2.41211ZM6.99668 9.65068C5.24909 9.65068 3.83022 8.22846 3.83022 6.48423C3.83022 4.73999 5.25244 3.31777 6.99668 3.31777C8.74091 3.31777 10.1631 4.73999 10.1631 6.48423C10.1631 8.22846 8.74427 9.65068 6.99668 9.65068Z" fill="black"/>
</svg>
