<?xml version="1.0" standalone="no"?>
<!DOCTYPE svg PUBLIC "-//W3C//DTD SVG 1.1//EN" "http://www.w3.org/Graphics/SVG/1.1/DTD/svg11.dtd" >
<svg xmlns="http://www.w3.org/2000/svg" xmlns:xlink="http://www.w3.org/1999/xlink" version="1.1">
<metadata>
Created by FontForge 20170731 at Sat Oct 18 13:25:47 2014
 By Aleksey,,,
Copyright (c) 2014 by Bazej Ostoja Lniski. All rights reserved.
</metadata>
<defs>
<font id="Cervo-Regular" horiz-adv-x="382" >
  <font-face 
    font-family="Cervo Regular"
    font-weight="400"
    font-stretch="normal"
    units-per-em="1000"
    panose-1="0 0 0 0 0 0 0 0 0 0"
    ascent="700"
    descent="-300"
    x-height="500"
    cap-height="700"
    bbox="-31.125 -293 736 916"
    underline-thickness="50"
    underline-position="-200"
    unicode-range="U+0020-2248"
  />
<missing-glyph horiz-adv-x="464" 
d="M30 -292v995h404v-995h-404z" />
    <glyph glyph-name=".notdef" horiz-adv-x="464" 
d="M30 -292v995h404v-995h-404z" />
    <glyph glyph-name=".null" horiz-adv-x="0" 
 />
    <glyph glyph-name="nonmarkingreturn" horiz-adv-x="333" 
 />
    <glyph glyph-name="space" unicode=" " horiz-adv-x="200" 
 />
    <glyph glyph-name="exclam" unicode="!" horiz-adv-x="197" 
d="M80 157q-11 0 -15.5 4.5t-4.5 15.5l-5 503q0 11 4.5 15.5t15.5 4.5h44q11 0 15.5 -4.5t4.5 -15.5l-5 -503q0 -11 -4.5 -15.5t-15.5 -4.5h-34zM50 49q0 20 14 34t34 14t34.5 -14t14.5 -34t-14.5 -34.5t-34.5 -14.5t-34 14.5t-14 34.5z" />
    <glyph glyph-name="quotedbl" unicode="&#x22;" horiz-adv-x="231" 
d="M49 569l-23 157q-3 24 18 24h38q21 0 18 -24l-23 -157q-2 -15 -14 -15t-14 15zM154 569l-23 157q-3 24 18 24h38q21 0 18 -24l-23 -157q-2 -15 -14 -15t-14 15z" />
    <glyph glyph-name="numbersign" unicode="#" horiz-adv-x="607" 
d="M318 20l27 220h-103l-27 -218q-3 -22 -23 -22h-32q-21 0 -19 20l27 220h-108q-11 0 -15.5 4.5t-4.5 15.5v34q0 11 4.5 15.5t15.5 4.5h117l13 110h-103q-11 0 -15.5 4.5t-4.5 15.5v34q0 11 4.5 15.5t15.5 4.5h112l23 180q3 22 23 22h32q21 0 19 -20l-23 -182h103l23 180
q3 22 23 22h32q21 0 19 -20l-23 -182h97q11 0 15.5 -4.5t4.5 -15.5v-34q0 -11 -4.5 -15.5t-15.5 -4.5h-106l-13 -110h92q11 0 15.5 -4.5t4.5 -15.5v-34q0 -11 -4.5 -15.5t-15.5 -4.5h-101l-27 -218q-3 -22 -23 -22h-32q-21 0 -19 20zM264 424l-13 -110h103l13 110h-103z" />
    <glyph glyph-name="dollar" unicode="$" horiz-adv-x="372" 
d="M228 752v-55q39 -13 66.5 -47t32.5 -79q2 -21 -1.5 -26.5t-18.5 -5.5h-38q-11 0 -14.5 4.5t-5.5 18.5q-4 30 -22.5 47t-42.5 17q-30 0 -49 -23t-15 -56q4 -37 37.5 -83t72 -85t74 -94t41.5 -108q7 -59 -26 -109.5t-91 -66.5v-52q0 -11 -4.5 -15.5t-15.5 -4.5h-44
q-11 0 -15.5 4.5t-4.5 15.5v52q-53 14 -86 59t-32 100q0 13 4 17.5t17 4.5h41q19 0 20 -23q3 -45 26.5 -65t51.5 -20q34 0 54.5 21t23.5 51q4 36 -17 76t-54 77.5t-67.5 75.5t-60.5 83t-28 88q-3 54 26.5 97t80.5 56v53q0 11 4.5 15.5t15.5 4.5h44q11 0 15.5 -4.5t4.5 -15.5
z" />
    <glyph glyph-name="percent" unicode="%" horiz-adv-x="501" 
d="M153 20l121 658q3 22 23 22h32q22 0 19 -20l-121 -658q-3 -22 -23 -22h-32q-22 0 -19 20zM126 519q-38 0 -64.5 26.5t-26.5 64.5t26.5 64.5t64.5 26.5t64.5 -26.5t26.5 -64.5t-26.5 -64.5t-64.5 -26.5zM87 610q0 -16 11.5 -27.5t27.5 -11.5t27.5 11.5t11.5 27.5
t-11.5 27.5t-27.5 11.5t-27.5 -11.5t-11.5 -27.5zM375 0q-37 0 -64 27t-27 64t27 64t64 27t64 -27t27 -64t-27 -64t-64 -27zM336 91q0 -17 11 -28t28 -11t28 11t11 28t-11 28t-28 11t-28 -11t-11 -28z" />
    <glyph glyph-name="ampersand" unicode="&#x26;" horiz-adv-x="415" 
d="M40 477v58q0 67 36.5 118t110.5 51q73 0 111 -50t38 -121q0 -11 -4.5 -15.5t-15.5 -4.5h-40q-11 0 -15.5 4.5t-4.5 15.5v7q-1 43 -20 64.5t-48 21.5q-26 0 -43 -16t-21 -39q-2 -10 -2 -21v-69q1 -32 18.5 -52t49.5 -21h10q11 0 15.5 -4.5t4.5 -15.5v-38q0 -19 -16 -20
h-14q-32 0 -50 -19.5t-18 -53.5v-107q0 -11 2 -21q4 -23 21 -39t43 -16q29 0 48 21.5t20 64.5v132q0 11 4.5 15.5t15.5 4.5h104q11 0 15.5 -4.5t4.5 -15.5v-18q0 -11 -4.5 -15.5t-15.5 -4.5h-34q-10 0 -10 -10v-78q-1 -71 -39 -120.5t-110 -49.5q-74 0 -110.5 51t-36.5 118
v97q0 62 32 107q-32 45 -32 108z" />
    <glyph glyph-name="quotesingle" unicode="'" horiz-adv-x="126" 
d="M49 569l-23 157q-3 24 18 24h38q21 0 18 -24l-23 -157q-2 -15 -14 -15t-14 15z" />
    <glyph glyph-name="parenleft" unicode="(" horiz-adv-x="250" 
d="M185 716q-35 0 -50.5 -29.5t-15.5 -72.5v-533q0 -43 15.5 -72.5t50.5 -29.5h10q11 0 15.5 -4.5t4.5 -15.5v-33q0 -11 -4.5 -15.5t-15.5 -4.5h-10q-78 0 -114 45t-36 155v483q0 110 36 155t114 45h10q11 0 15.5 -4.5t4.5 -15.5v-33q0 -11 -4.5 -15.5t-15.5 -4.5h-10z" />
    <glyph glyph-name="parenright" unicode=")" horiz-adv-x="250" 
d="M65 716h-10q-11 0 -15.5 4.5t-4.5 15.5v33q0 11 4.5 15.5t15.5 4.5h10q78 0 114 -45t36 -155v-483q0 -110 -36 -155t-114 -45h-10q-11 0 -15.5 4.5t-4.5 15.5v33q0 11 4.5 15.5t15.5 4.5h10q35 0 50.5 29.5t15.5 72.5v533q0 43 -15.5 72.5t-50.5 29.5z" />
    <glyph glyph-name="asterisk" unicode="*" horiz-adv-x="349" 
d="M279 812q14 -14 0 -28l-35 -35h50q11 0 15.5 -4.5t4.5 -15.5v-18q0 -11 -4.5 -15.5t-15.5 -4.5h-50l35 -35q14 -14 0 -28l-13 -13q-14 -14 -28 0l-35 35v-50q0 -11 -4.5 -15.5t-15.5 -4.5h-18q-11 0 -15.5 4.5t-4.5 15.5v50l-35 -35q-14 -14 -28 0l-13 13q-14 14 0 28
l35 35h-49q-11 0 -15.5 4.5t-4.5 15.5v18q0 11 4.5 15.5t15.5 4.5h49l-35 35q-14 14 0 28l13 13q14 14 28 0l35 -35v49q0 11 4.5 15.5t15.5 4.5h18q11 0 15.5 -4.5t4.5 -15.5v-49l35 35q14 14 28 0z" />
    <glyph glyph-name="plus" unicode="+" horiz-adv-x="350" 
d="M214 418q0 -10 10 -10h71q11 0 15.5 -4.5t4.5 -15.5v-38q0 -11 -4.5 -15.5t-15.5 -4.5h-71q-10 0 -10 -10v-81q0 -11 -4.5 -15.5t-15.5 -4.5h-38q-11 0 -15.5 4.5t-4.5 15.5v81q0 10 -10 10h-71q-11 0 -15.5 4.5t-4.5 15.5v38q0 11 4.5 15.5t15.5 4.5h71q10 0 10 10v81
q0 11 4.5 15.5t15.5 4.5h38q11 0 15.5 -4.5t4.5 -15.5v-81z" />
    <glyph glyph-name="comma" unicode="," horiz-adv-x="139" 
d="M25 46q0 21 14.5 36t36.5 15q15 0 27.5 -8.5t19 -25.5t5 -39t-16.5 -52t-44 -61q-7 -7 -15 -1l-11 9q-7 6 -3 13q20 27 22 43.5t-6.5 22.5t-18.5 18.5t-10 29.5z" />
    <glyph glyph-name="hyphen" unicode="-" horiz-adv-x="284" 
d="M35 295q0 20 14 20h186q14 0 14 -20v-38q0 -20 -14 -20h-186q-14 0 -14 20v38z" />
    <glyph glyph-name="period" unicode="." horiz-adv-x="137" 
d="M30 49q0 20 14 34t34 14t34.5 -14t14.5 -34t-14.5 -34.5t-34.5 -14.5t-34 14.5t-14 34.5z" />
    <glyph glyph-name="slash" unicode="/" horiz-adv-x="237" 
d="M36 20l81 658q3 22 23 22h42q21 0 19 -20l-81 -658q-3 -22 -23 -22h-42q-21 0 -19 20z" />
    <glyph glyph-name="zero" unicode="0" horiz-adv-x="410" 
d="M365 514v-328q0 -97 -45.5 -143.5t-114.5 -46.5t-114.5 46.5t-45.5 143.5v328q0 97 45.5 143.5t114.5 46.5t114.5 -46.5t45.5 -143.5zM129 518v-336q0 -108 76 -108t76 108v336q0 108 -76 108t-76 -108z" />
    <glyph glyph-name="one" unicode="1" horiz-adv-x="256" 
d="M123 690q5 10 17 10h46q11 0 15.5 -4.5t4.5 -15.5v-660q0 -11 -4.5 -15.5t-15.5 -4.5h-44q-11 0 -15.5 4.5t-4.5 15.5v470q0 10 -10 10h-63q-21 0 -11 21z" />
    <glyph glyph-name="two" unicode="2" horiz-adv-x="390" 
d="M129 158v-60q0 -15 2.5 -17.5t17.5 -2.5h176q11 0 15.5 -4.5t4.5 -15.5v-38q0 -11 -4.5 -15.5t-15.5 -4.5h-260q-11 0 -15.5 4.5t-4.5 15.5v137q0 25 6.5 49t21 48t25.5 40.5t33 44t31 39.5q7 10 27.5 35.5t30 39.5t22 36t16 42t-0.5 40q-4 23 -21 39t-43 16
q-29 0 -48 -21.5t-20 -64.5v-7q0 -11 -4.5 -15.5t-15.5 -4.5h-40q-11 0 -15.5 4.5t-4.5 15.5q0 71 38 121t111 50q50 0 84.5 -25.5t47.5 -57.5t15 -67q1 -25 -4.5 -49.5t-22 -52.5t-26 -42t-36 -47.5t-31.5 -40.5q-5 -6 -19.5 -25.5t-19.5 -26t-16.5 -22.5t-15.5 -24.5
t-10.5 -21.5t-8.5 -23.5t-2 -20.5z" />
    <glyph glyph-name="three" unicode="3" horiz-adv-x="376" 
d="M331 477q0 -63 -32 -108q32 -45 32 -107v-97q0 -67 -36.5 -118t-110.5 -51q-73 0 -111 50t-38 121q0 11 4.5 15.5t15.5 4.5h40q11 0 15.5 -4.5t4.5 -15.5v-7q1 -43 20 -64.5t48 -21.5q26 0 43 16t21 39q2 10 2 21v107q0 34 -18 53.5t-50 19.5h-14q-16 1 -16 20v38
q0 11 4.5 15.5t15.5 4.5h10q32 1 49.5 21t18.5 52v69q0 11 -2 21q-4 23 -21 39t-43 16q-29 0 -48 -21.5t-20 -64.5v-7q0 -11 -4.5 -15.5t-15.5 -4.5h-40q-11 0 -15.5 4.5t-4.5 15.5q0 71 38 121t111 50q74 0 110.5 -51t36.5 -118v-58z" />
    <glyph glyph-name="four" unicode="4" horiz-adv-x="372" 
d="M200 479l-79 -163q-5 -10 5 -10h72q10 0 10 10v162q0 4 -3 4.5t-5 -3.5zM292 20q0 -11 -4.5 -15.5t-15.5 -4.5h-44q-11 0 -15.5 4.5t-4.5 15.5v198q0 10 -10 10h-153q-11 0 -15.5 4.5t-4.5 15.5v30q0 16 8 32l184 376q7 14 25 14h30q11 0 15.5 -4.5t4.5 -15.5v-364
q0 -10 10 -10h5q11 0 15.5 -4.5t4.5 -15.5v-38q0 -11 -4.5 -15.5t-15.5 -4.5h-5q-10 0 -10 -10v-198z" />
    <glyph glyph-name="five" unicode="5" horiz-adv-x="390" 
d="M129 461q38 38 87 39q57 2 93 -41.5t36 -128.5v-165q0 -67 -37.5 -118t-111.5 -51q-73 0 -111 50t-38 121q0 11 4.5 15.5t15.5 4.5h40q11 0 15.5 -4.5t4.5 -15.5v-7q1 -43 20 -64.5t48 -21.5q26 0 43 16t21 39q2 10 2 21v190q0 44 -20 63t-46 19t-45.5 -18.5t-20.5 -59.5
v-20q0 -11 -4.5 -15.5t-15.5 -4.5h-44q-11 0 -15.5 4.5t-4.5 15.5v356q0 11 4.5 15.5t15.5 4.5h247q11 0 15.5 -4.5t4.5 -15.5v-38q0 -11 -4.5 -15.5t-15.5 -4.5h-163q-13 0 -16.5 -4t-3.5 -16v-141z" />
    <glyph glyph-name="six" unicode="6" horiz-adv-x="390" 
d="M195 -4q-62 0 -106 44.5t-44 139.5v355q0 67 37.5 118t111.5 51q73 0 111 -50t38 -121q0 -11 -4.5 -15.5t-15.5 -4.5h-40q-11 0 -15.5 4.5t-4.5 15.5v7q-1 43 -20 64.5t-48 21.5q-26 0 -43 -16t-21 -39q-2 -10 -2 -21v-144q38 38 87 39q57 2 93 -41.5t36 -128.5v-95
q0 -95 -44 -139.5t-106 -44.5zM261 285q0 44 -20 63t-46 19t-46 -19t-20 -63v-129q0 -44 20 -63t46 -19t46 19t20 63v129z" />
    <glyph glyph-name="seven" unicode="7" horiz-adv-x="350" 
d="M86 20l132 590q3 12 -8 12h-165q-11 0 -15.5 4.5t-4.5 15.5v38q0 11 4.5 15.5t15.5 4.5h240q11 0 15.5 -4.5t4.5 -15.5v-45q0 -10 -3 -24l-132 -591q-4 -20 -22 -20h-47q-20 0 -15 20z" />
    <glyph glyph-name="eight" unicode="8" horiz-adv-x="380" 
d="M335 520v-18q0 -98 -47 -145q47 -49 47 -145v-32q0 -96 -42 -140t-103 -44t-103 44t-42 140v32q0 96 47 145q-47 47 -47 145v18q0 96 42 140t103 44t103 -44t42 -140zM251 236q0 82 -61 82q-27 0 -44 -19.5t-17 -62.5v-80q0 -44 17.5 -63t43.5 -19t43.5 19t17.5 63v80z
M251 544q0 44 -17.5 63t-43.5 19t-43.5 -19t-17.5 -63v-66q0 -43 17 -62.5t44 -19.5q26 0 43.5 19t17.5 63v66z" />
    <glyph glyph-name="nine" unicode="9" horiz-adv-x="390" 
d="M195 704q62 0 106 -44.5t44 -139.5v-355q0 -67 -37.5 -118t-111.5 -51q-73 0 -111 50t-38 121q0 11 4.5 15.5t15.5 4.5h40q11 0 15.5 -4.5t4.5 -15.5v-7q1 -43 20 -64.5t48 -21.5q26 0 43 16t21 39q2 10 2 21v144q-38 -38 -87 -39q-57 -2 -93 41.5t-36 128.5v95
q0 95 44 139.5t106 44.5zM129 544v-129q0 -44 20 -63t46 -19t46 19t20 63v129q0 44 -20 63t-46 19t-46 -19t-20 -63z" />
    <glyph glyph-name="colon" unicode=":" horiz-adv-x="137" 
d="M30 49q0 20 14 34t34 14t34.5 -14t14.5 -34t-14.5 -34.5t-34.5 -14.5t-34 14.5t-14 34.5zM30 352q0 20 14 34t34 14t34.5 -14t14.5 -34t-14.5 -34.5t-34.5 -14.5t-34 14.5t-14 34.5z" />
    <glyph glyph-name="semicolon" unicode=";" horiz-adv-x="139" 
d="M26 352q0 20 14 34t34 14t34.5 -14t14.5 -34t-14.5 -34.5t-34.5 -14.5t-34 14.5t-14 34.5zM25 46q0 21 14.5 36t36.5 15q15 0 27.5 -8.5t19 -25.5t5 -39t-16.5 -52t-44 -61q-7 -7 -15 -1l-11 9q-7 6 -3 13q20 27 22 43.5t-6.5 22.5t-18.5 18.5t-10 29.5z" />
    <glyph glyph-name="less" unicode="&#x3c;" horiz-adv-x="268" 
d="M121 362l101 -78q11 -8 11 -20v-57q0 -7 -5 -9.5t-11 1.5l-176 136q-6 5 -6 16v36q0 11 6 16l176 136q6 4 11 1.5t5 -9.5v-57q0 -12 -11 -20l-101 -78q-9 -7 0 -14z" />
    <glyph glyph-name="equal" unicode="=" horiz-adv-x="370" 
d="M35 466q0 11 4.5 15.5t15.5 4.5h260q11 0 15.5 -4.5t4.5 -15.5v-38q0 -11 -4.5 -15.5t-15.5 -4.5h-260q-11 0 -15.5 4.5t-4.5 15.5v38zM35 310q0 11 4.5 15.5t15.5 4.5h260q11 0 15.5 -4.5t4.5 -15.5v-38q0 -11 -4.5 -15.5t-15.5 -4.5h-260q-11 0 -15.5 4.5t-4.5 15.5v38
z" />
    <glyph glyph-name="greater" unicode="&#x3e;" horiz-adv-x="268" 
d="M46 284l101 78q9 7 0 14l-101 78q-11 8 -11 20v57q0 7 5 9.5t11 -1.5l176 -136q6 -5 6 -16v-36q0 -11 -6 -16l-176 -136q-6 -4 -11 -1.5t-5 9.5v57q0 12 11 20z" />
    <glyph glyph-name="question" unicode="?" horiz-adv-x="367" 
d="M218 190v-13q0 -9 -3.5 -14t-6.5 -5.5t-10 -0.5h-34q-7 0 -10 0.5t-6.5 5.5t-3.5 14v13q0 43 19.5 96t41.5 94t36 93.5t6 97.5q-4 23 -21 39t-43 16q-29 0 -48 -21.5t-20 -64.5v-7q0 -11 -4.5 -15.5t-15.5 -4.5h-40q-11 0 -15.5 4.5t-4.5 15.5q0 71 38 121t111 50
q50 0 84.5 -25.5t47.5 -57.5t15 -67q3 -58 -25 -125t-58 -130.5t-30 -108.5zM133 49q0 20 14 34t34 14t34.5 -14t14.5 -34t-14.5 -34.5t-34.5 -14.5t-34 14.5t-14 34.5z" />
    <glyph glyph-name="at" unicode="@" horiz-adv-x="743" 
d="M429 150v200q0 41 -18.5 58.5t-43.5 17.5t-43.5 -17.5t-18.5 -58.5v-200q0 -41 18.5 -58.5t43.5 -17.5t43.5 17.5t18.5 58.5zM35 285q0 113 31 196.5t82 127.5t106.5 64t116.5 20q48 0 93 -12t90 -41.5t78.5 -74.5t54.5 -117.5t21 -163.5v-193q0 -87 -41.5 -125.5
t-93.5 -38.5q-48 0 -85 30.5t-46 83.5q-31 -45 -85 -45q-128 0 -128 176v156q0 176 128 176q49 0 80 -43v19q0 11 4.5 15.5t15.5 4.5h28q11 0 15.5 -4.5t4.5 -15.5v-377q0 -106 68 -106q30 0 45.5 23.5t15.5 82.5v182q0 63 -12.5 119t-40.5 107.5t-82 82t-128 30.5
q-60 0 -106.5 -20.5t-75.5 -53.5t-47.5 -78.5t-25.5 -91.5t-7 -96v-56q0 -50 7 -96t25.5 -91.5t47.5 -78.5t75.5 -53.5t106.5 -20.5q18 0 18 -17v-35q0 -17 -18 -17q-61 0 -116.5 20t-106.5 64t-82 127.5t-31 196.5v58z" />
    <glyph glyph-name="A" unicode="A" horiz-adv-x="412" 
d="M364 0h-44q-8 0 -11 0.5t-6.5 4t-4.5 10.5l-11 62q-3 15 -6 17.5t-16 2.5h-117q-14 0 -17 -2.5t-6 -17.5l-11 -62q-1 -7 -4.5 -10.5t-6.5 -4t-11 -0.5h-44q-7 0 -10 0.5t-5.5 4.5t-1.5 12l126 665q2 11 6 14.5t16 3.5h54q12 0 16 -3.5t6 -14.5l126 -665q2 -11 -2.5 -14
t-14.5 -3zM202 534l-57 -339q-2 -15 0 -17.5t17 -2.5h88q15 0 17 2.5t0 17.5l-57 339q-1 4 -4 4t-4 -4z" />
    <glyph glyph-name="B" unicode="B" horiz-adv-x="390" 
d="M350 520q0 -98 -48 -146q-5 -5 0 -10q48 -51 48 -146v-28q0 -97 -45.5 -143.5t-114.5 -46.5h-120q-11 0 -15.5 4.5t-4.5 15.5v660q0 11 4.5 15.5t15.5 4.5h120q67 0 112.5 -44.5t47.5 -135.5zM134 310v-212q0 -15 2.5 -17.5t17.5 -2.5h36q76 0 76 108v36q0 103 -70 108
h-42q-15 0 -17.5 -2.5t-2.5 -17.5zM134 429q0 -16 2.5 -18.5t17.5 -2.5h42q70 3 70 108q0 106 -76 106h-36q-15 0 -17.5 -2.5t-2.5 -17.5v-173z" />
    <glyph glyph-name="C" unicode="C" horiz-adv-x="395" 
d="M124 518v-336q0 -108 76 -108q68 0 75 87q1 16 5 21t15 5h44q22 0 20 -29q-7 -83 -51.5 -122.5t-107.5 -39.5q-69 0 -114.5 46.5t-45.5 143.5v328q0 97 45.5 143.5t114.5 46.5q63 0 107.5 -39.5t51.5 -122.5q2 -29 -20 -29h-44q-11 0 -15 5t-5 21q-7 87 -75 87
q-76 0 -76 -108z" />
    <glyph glyph-name="D" unicode="D" horiz-adv-x="390" 
d="M70 700h120q69 0 114.5 -46.5t45.5 -143.5v-320q0 -97 -45.5 -143.5t-114.5 -46.5h-120q-11 0 -15.5 4.5t-4.5 15.5v660q0 11 4.5 15.5t15.5 4.5zM134 99q0 -16 2.5 -18.5t17.5 -2.5h36q76 0 76 108v328q0 108 -76 108h-36q-15 0 -17.5 -2.5t-2.5 -17.5v-503z" />
    <glyph glyph-name="E" unicode="E" horiz-adv-x="341" 
d="M70 0q-11 0 -15.5 4.5t-4.5 15.5v660q0 11 4.5 15.5t15.5 4.5h211q11 0 15.5 -4.5t4.5 -15.5v-38q0 -11 -4.5 -15.5t-15.5 -4.5h-127q-15 0 -17.5 -2.5t-2.5 -17.5v-174q0 -15 2.5 -17.5t17.5 -2.5h127q11 0 15.5 -4.5t4.5 -15.5v-38q0 -11 -4.5 -15.5t-15.5 -4.5h-127
q-15 0 -17.5 -2.5t-2.5 -17.5v-212q0 -15 2.5 -17.5t17.5 -2.5h127q11 0 15.5 -4.5t4.5 -15.5v-38q0 -11 -4.5 -15.5t-15.5 -4.5h-211z" />
    <glyph glyph-name="F" unicode="F" horiz-adv-x="331" 
d="M70 0q-11 0 -15.5 4.5t-4.5 15.5v660q0 11 4.5 15.5t15.5 4.5h211q11 0 15.5 -4.5t4.5 -15.5v-38q0 -11 -4.5 -15.5t-15.5 -4.5h-127q-15 0 -17.5 -2.5t-2.5 -17.5v-174q0 -15 2.5 -17.5t17.5 -2.5h96q11 0 15.5 -4.5t4.5 -15.5v-38q0 -11 -4.5 -15.5t-15.5 -4.5h-96
q-15 0 -17.5 -2.5t-2.5 -17.5v-290q0 -11 -4.5 -15.5t-15.5 -4.5h-44z" />
    <glyph glyph-name="G" unicode="G" horiz-adv-x="400" 
d="M124 518v-336q0 -108 76 -108q68 0 75 87q0 2 0.5 6.5t0.5 5.5v137q0 15 -2.5 17.5t-17.5 2.5h-8q-12 0 -16 4t-4 16v38q0 11 4 15.5t16 4.5h92q11 0 15.5 -4.5t4.5 -15.5v-202q0 -95 -44.5 -142.5t-115.5 -47.5q-69 0 -114.5 46.5t-45.5 143.5v328q0 97 45.5 143.5
t114.5 46.5q63 0 107.5 -39.5t51.5 -122.5q2 -29 -20 -29h-44q-11 0 -15 5t-5 21q-7 87 -75 87q-76 0 -76 -108z" />
    <glyph glyph-name="H" unicode="H" horiz-adv-x="400" 
d="M134 310v-290q0 -11 -4.5 -15.5t-15.5 -4.5h-44q-11 0 -15.5 4.5t-4.5 15.5v660q0 11 4.5 15.5t15.5 4.5h44q11 0 15.5 -4.5t4.5 -15.5v-252q0 -15 2.5 -17.5t17.5 -2.5h92q15 0 17.5 2.5t2.5 17.5v252q0 11 4.5 15.5t15.5 4.5h44q11 0 15.5 -4.5t4.5 -15.5v-660
q0 -11 -4.5 -15.5t-15.5 -4.5h-44q-11 0 -15.5 4.5t-4.5 15.5v290q0 15 -2.5 17.5t-17.5 2.5h-92q-15 0 -17.5 -2.5t-2.5 -17.5z" />
    <glyph glyph-name="I" unicode="I" horiz-adv-x="184" 
d="M134 20q0 -11 -4.5 -15.5t-15.5 -4.5h-44q-11 0 -15.5 4.5t-4.5 15.5v660q0 11 4.5 15.5t15.5 4.5h44q11 0 15.5 -4.5t4.5 -15.5v-660z" />
    <glyph glyph-name="J" unicode="J" horiz-adv-x="228" 
d="M35 78q19 1 31.5 9t19 17t9.5 27.5t3.5 30.5t0.5 36v482q0 11 4.5 15.5t15.5 4.5h44q11 0 15.5 -4.5t4.5 -15.5v-480q0 -114 -31.5 -157t-116.5 -43q-11 0 -15.5 4.5t-4.5 15.5v38q0 11 4.5 15t15.5 5z" />
    <glyph glyph-name="K" unicode="K" horiz-adv-x="381" 
d="M134 20q0 -11 -4.5 -15.5t-15.5 -4.5h-44q-11 0 -15.5 4.5t-4.5 15.5v660q0 11 4.5 15.5t15.5 4.5h44q11 0 15.5 -4.5t4.5 -15.5v-309q0 -5 3 -5.5t5 3.5l136 316q5 11 8.5 13t13.5 2h52q21 0 11 -21l-108 -251q-2 -5 0 -13l108 -395q5 -20 -18 -20h-40q-21 0 -26 20
l-77 283q0 2 -2 3.5t-3.5 0.5t-2.5 -3l-56 -130q-4 -9 -4 -22v-132z" />
    <glyph glyph-name="L" unicode="L" horiz-adv-x="316" 
d="M70 0q-11 0 -15.5 4.5t-4.5 15.5v660q0 11 4.5 15.5t15.5 4.5h44q11 0 15.5 -4.5t4.5 -15.5v-581q0 -16 2.5 -18.5t18.5 -2.5h126q11 0 15.5 -4.5t4.5 -15.5v-38q0 -11 -4.5 -15.5t-15.5 -4.5h-211z" />
    <glyph glyph-name="M" unicode="M" horiz-adv-x="542" 
d="M262 0q-18 0 -22 14l-100 356q-1 5 -5 3q-1 -1 -1 -3v-350q0 -11 -4.5 -15.5t-15.5 -4.5h-44q-11 0 -15.5 4.5t-4.5 15.5v660q0 11 4.5 15.5t15.5 4.5h35q11 0 14 -2t5 -10l143 -510q1 -4 4 -4t4 4l143 510q4 12 19 12h35q11 0 15.5 -4.5t4.5 -15.5v-660
q0 -11 -4.5 -15.5t-15.5 -4.5h-44q-11 0 -15.5 4.5t-4.5 15.5v350q0 5 -4 3q-2 -1 -2 -3l-100 -356q-4 -14 -22 -14h-18z" />
    <glyph glyph-name="N" unicode="N" horiz-adv-x="455" 
d="M385 0h-37q-15 0 -20 12l-186 448q-1 3 -3 4t-3.5 -0.5t-1.5 -3.5v-440q0 -11 -4.5 -15.5t-15.5 -4.5h-44q-11 0 -15.5 4.5t-4.5 15.5v660q0 11 4.5 15.5t15.5 4.5h37q15 0 20 -13l186 -448q1 -3 3 -4t3.5 0.5t1.5 3.5v441q0 11 4.5 15.5t15.5 4.5h44q11 0 15.5 -4.5
t4.5 -15.5v-660q0 -11 -4.5 -15.5t-15.5 -4.5z" />
    <glyph glyph-name="O" unicode="O" horiz-adv-x="400" 
d="M360 514v-328q0 -97 -45.5 -143.5t-114.5 -46.5t-114.5 46.5t-45.5 143.5v328q0 97 45.5 143.5t114.5 46.5t114.5 -46.5t45.5 -143.5zM124 518v-336q0 -108 76 -108t76 108v336q0 108 -76 108t-76 -108z" />
    <glyph glyph-name="P" unicode="P" horiz-adv-x="380" 
d="M70 700h120q69 0 114.5 -46.5t45.5 -143.5v-76q0 -97 -45.5 -143.5t-114.5 -46.5h-36q-15 0 -17.5 -2.5t-2.5 -17.5v-204q0 -20 -20 -20h-44q-12 0 -16 4.5t-4 15.5v660q0 11 4.5 15.5t15.5 4.5zM134 343q0 -16 2.5 -18.5t17.5 -2.5h36q76 0 76 108v84q0 108 -76 108h-36
q-15 0 -17.5 -2.5t-2.5 -17.5v-259z" />
    <glyph glyph-name="Q" unicode="Q" horiz-adv-x="400" 
d="M360 514v-328q0 -124 -78 -170l16 -60q5 -19 -14 -24l-42 -12q-18 -6 -24 14l-18 62q-69 0 -114.5 46.5t-45.5 143.5v328q0 97 45.5 143.5t114.5 46.5t114.5 -46.5t45.5 -143.5zM124 518v-336q0 -108 76 -108t76 108v336q0 108 -76 108t-76 -108z" />
    <glyph glyph-name="R" unicode="R" horiz-adv-x="390" 
d="M70 700h120q69 0 114.5 -46.5t45.5 -143.5v-27q0 -114 -66 -161l1 -3q13 -62 60 -298q5 -21 -12 -21h-47q-8 0 -11 0.5t-6.5 4t-4.5 10.5l-54 269q-2 9 -12 9h-44q-15 0 -17.5 -2.5t-2.5 -17.5v-253q0 -20 -20 -20h-44q-12 0 -16 4.5t-4 15.5v660q0 11 4.5 15.5t15.5 4.5
zM134 392q0 -16 2.5 -18.5t17.5 -2.5h36q76 0 76 108v35q0 108 -76 108h-36q-15 0 -17.5 -2.5t-2.5 -17.5v-210z" />
    <glyph glyph-name="S" unicode="S" horiz-adv-x="367" 
d="M181 -4q-68 0 -115 48.5t-45 115.5q0 13 4 17.5t17 4.5h41q19 0 20 -23q3 -45 26.5 -65t51.5 -20q34 0 54.5 21t23.5 51q4 36 -17 76t-54 77.5t-67.5 75.5t-60.5 83t-28 88q-4 65 38 111.5t109 46.5q53 0 95 -37.5t48 -95.5q2 -21 -1.5 -26.5t-18.5 -5.5h-38
q-11 0 -14.5 4.5t-5.5 18.5q-4 30 -22.5 47t-42.5 17q-30 0 -49 -23t-15 -56q4 -37 37.5 -83t72 -85t74 -94t41.5 -108q9 -70 -37.5 -125.5t-121.5 -55.5z" />
    <glyph glyph-name="T" unicode="T" horiz-adv-x="330" 
d="M15 680q0 11 4.5 15.5t15.5 4.5h260q11 0 15.5 -4.5t4.5 -15.5v-38q0 -11 -4.5 -15.5t-15.5 -4.5h-68q-15 0 -17.5 -2.5t-2.5 -17.5v-582q0 -11 -4.5 -15.5t-15.5 -4.5h-44q-11 0 -15.5 4.5t-4.5 15.5v582q0 15 -2.5 17.5t-16.5 2.5h-69q-11 0 -15.5 4.5t-4.5 15.5v38z
" />
    <glyph glyph-name="U" unicode="U" horiz-adv-x="410" 
d="M129 680v-498q0 -108 76 -108t76 108v498q0 11 4.5 15.5t15.5 4.5h44q11 0 15.5 -4.5t4.5 -15.5v-494q0 -97 -45.5 -143.5t-114.5 -46.5t-114.5 46.5t-45.5 143.5v494q0 11 4.5 15.5t15.5 4.5h44q11 0 15.5 -4.5t4.5 -15.5z" />
    <glyph glyph-name="V" unicode="V" horiz-adv-x="436" 
d="M349 700h44h6t5.5 -1t4 -2.5t2 -5t-0.5 -8.5l-154 -665q-2 -11 -6 -14.5t-16 -3.5h-32q-12 0 -16 3.5t-6 14.5l-154 665q-3 11 2 14t15 3h44q8 0 11 -0.5t6.5 -4t4.5 -10.5l105 -486q1 -4 4 -4t4 4l105 486q1 7 4.5 10.5t6.5 4t11 0.5z" />
    <glyph glyph-name="W" unicode="W" horiz-adv-x="634" 
d="M317 478q-4 0 -5 -7l-92 -451q-2 -9 -3 -12t-5.5 -5.5t-14.5 -2.5h-23q-13 0 -17 4t-6 16l-125 660q-4 20 17 20h44q12 0 16 -3.5t7 -16.5l74 -432q1 -4 4.5 -4t4.5 4l88 432q2 12 6.5 16t15.5 4h28q11 0 15.5 -4t6.5 -16l88 -432q1 -4 4.5 -4t4.5 4l74 432q3 13 7 16.5
t16 3.5h44q21 0 17 -20l-125 -660q-2 -12 -6 -16t-17 -4h-33q-13 0 -17 4t-6 16l-82 451q-1 7 -5 7z" />
    <glyph glyph-name="X" unicode="X" horiz-adv-x="342" 
d="M17 21l105 329l-105 329q-7 21 11 21h48q11 0 14.5 -2t7.5 -13l69 -221q4 -10 8 0l69 221q4 11 7.5 13t14.5 2h48q18 0 11 -21l-105 -329l105 -329q7 -21 -11 -21h-48q-11 0 -14.5 2t-7.5 13l-69 221q-4 10 -8 0l-69 -221q-4 -11 -7.5 -13t-14.5 -2h-48q-18 0 -11 21z
" />
    <glyph glyph-name="Y" unicode="Y" horiz-adv-x="350" 
d="M153 0q-11 0 -15.5 4.5t-4.5 15.5v204l-111 456q-5 20 13 20h48q13 0 16.5 -3.5t6.5 -16.5l64 -279q1 -5 5 -5t5 5l64 279q3 13 6.5 16.5t16.5 3.5h48q18 0 13 -20q-111 -446 -111 -456v-204q0 -11 -4.5 -15.5t-15.5 -4.5h-44z" />
    <glyph glyph-name="Z" unicode="Z" horiz-adv-x="340" 
d="M306 613l-185 -527q-3 -8 6 -8h163q11 0 15.5 -4.5t4.5 -15.5v-38q0 -11 -4.5 -15.5t-15.5 -4.5h-240q-11 0 -15.5 4.5t-4.5 15.5v45q0 11 4 22l184 527q3 8 -4 8h-164q-11 0 -15.5 4.5t-4.5 15.5v38q0 11 4.5 15.5t15.5 4.5h240q11 0 15.5 -4.5t4.5 -15.5v-45
q0 -10 -4 -22z" />
    <glyph glyph-name="bracketleft" unicode="[" horiz-adv-x="254" 
d="M35 -179v941q0 11 4.5 15.5t15.5 4.5h144q11 0 15.5 -4.5t4.5 -15.5v-38q0 -11 -4.5 -15.5t-15.5 -4.5h-60q-15 0 -17.5 -2.5t-2.5 -17.5v-785q0 -15 2.5 -17.5t17.5 -2.5h60q11 0 15.5 -4.5t4.5 -15.5v-38q0 -11 -4.5 -15.5t-15.5 -4.5h-144q-11 0 -15.5 4.5t-4.5 15.5z
" />
    <glyph glyph-name="backslash" unicode="\" horiz-adv-x="237" 
d="M120 678l81 -658q2 -20 -19 -20h-42q-20 0 -23 22l-81 658q-2 20 19 20h42q20 0 23 -22z" />
    <glyph glyph-name="bracketright" unicode="]" horiz-adv-x="254" 
d="M219 762v-941q0 -11 -4.5 -15.5t-15.5 -4.5h-144q-11 0 -15.5 4.5t-4.5 15.5v38q0 11 4.5 15.5t15.5 4.5h60q15 0 17.5 2.5t2.5 17.5v785q0 15 -2.5 17.5t-17.5 2.5h-60q-11 0 -15.5 4.5t-4.5 15.5v38q0 11 4.5 15.5t15.5 4.5h144q11 0 15.5 -4.5t4.5 -15.5z" />
    <glyph glyph-name="asciicircum" unicode="^" horiz-adv-x="469" 
d="M215 700h39q14 0 21 -13l156 -278q4 -8 1 -13t-11 -5h-52q-14 0 -21 13l-102 181q-12 20 -23 0l-102 -181q-7 -13 -21 -13h-52q-8 0 -11 5t1 13l156 278q7 13 21 13z" />
    <glyph glyph-name="underscore" unicode="_" horiz-adv-x="469" 
d="M35 -20q0 11 4.5 15.5t15.5 4.5h359q11 0 15.5 -4.5t4.5 -15.5v-38q0 -11 -4.5 -15.5t-15.5 -4.5h-359q-11 0 -15.5 4.5t-4.5 15.5v38z" />
    <glyph glyph-name="grave" unicode="`" horiz-adv-x="135" 
d="M101 735h-28q-7 0 -10 3t-7 14l-30 85q-10 27 13 27h51q12 0 16.5 -4.5t4.5 -16.5v-98q0 -10 -10 -10z" />
    <glyph glyph-name="a" unicode="a" 
d="M325 0h-43q-11 0 -15.5 6t-6.5 26q-41 -36 -96 -36q-56 0 -91.5 34.5t-35.5 98.5v18q0 51 21.5 82.5t52.5 44t62.5 21.5t54 25.5t23.5 45.5q1 23 -15.5 41.5t-44.5 18.5q-26 0 -45 -19.5t-19 -52.5q0 -12 -4 -16.5t-16 -4.5h-38q-11 0 -15 4.5t-5 15.5q-2 62 40 106.5
t103 44.5q59 0 102 -42.5t43 -111.5v-281q1 -21 8 -49q4 -20 -20 -20zM187 74q66 3 66 82v100q-17 -8 -47.5 -21t-39.5 -18t-23.5 -17t-18 -25.5t-3.5 -35.5q0 -12 3 -25t19 -27t44 -13z" />
    <glyph glyph-name="b" unicode="b" 
d="M134 350v-200q0 -41 18.5 -58.5t43.5 -17.5t43.5 17.5t18.5 58.5v200q0 41 -18.5 58.5t-43.5 17.5t-43.5 -17.5t-18.5 -58.5zM114 0h-44q-11 0 -15.5 4.5t-4.5 15.5v660q0 11 4.5 15.5t15.5 4.5h44q11 0 15.5 -4.5t4.5 -15.5v-214q27 35 74 38q60 2 97 -40t37 -130v-168
q0 -88 -37 -130t-97 -40q-48 3 -74 37v-13q0 -11 -4.5 -15.5t-15.5 -4.5z" />
    <glyph glyph-name="c" unicode="c" horiz-adv-x="376" 
d="M124 347v-194q0 -38 18.5 -58.5t47.5 -20.5q27 0 45.5 18t19.5 49q1 14 4.5 20t15.5 6h40q11 0 15 -4.5t5 -15.5q3 -52 -35 -101.5t-110 -49.5q-62 0 -106 44.5t-44 139.5v140q0 95 44 139.5t106 44.5q72 0 110 -49.5t35 -101.5q-1 -11 -5 -15.5t-15 -4.5h-40
q-12 0 -15.5 6t-4.5 20q-1 31 -19.5 49t-45.5 18q-29 0 -47.5 -20.5t-18.5 -58.5z" />
    <glyph glyph-name="d" unicode="d" 
d="M248 150v200q0 41 -18.5 58.5t-43.5 17.5t-43.5 -17.5t-18.5 -58.5v-200q0 -41 18.5 -58.5t43.5 -17.5t43.5 17.5t18.5 58.5zM312 0h-44q-11 0 -15.5 4.5t-4.5 15.5v13q-26 -34 -74 -37q-60 -2 -97 40t-37 130v168q0 88 37 130t97 40q47 -3 74 -38v214q0 11 4.5 15.5
t15.5 4.5h44q11 0 15.5 -4.5t4.5 -15.5v-660q0 -11 -4.5 -15.5t-15.5 -4.5z" />
    <glyph glyph-name="e" unicode="e" horiz-adv-x="380" 
d="M40 180v140q0 95 44 139.5t106 44.5t106 -44.5t44 -139.5v-67q0 -12 -4.5 -16t-16.5 -4h-175q-11 0 -15.5 -4.5t-4.5 -15.5v-60q0 -38 18.5 -58.5t47.5 -20.5q27 0 45.5 18t19.5 49q1 14 4.5 20t15.5 6h40q11 0 15 -4.5t5 -15.5q3 -52 -35 -101.5t-110 -49.5
q-62 0 -106 44.5t-44 139.5zM256 347q0 38 -18.5 58.5t-47.5 20.5t-47.5 -20.5t-18.5 -58.5v-20q0 -11 4.5 -15.5t15.5 -4.5h92q11 0 15.5 4.5t4.5 15.5v20z" />
    <glyph glyph-name="f" unicode="f" horiz-adv-x="221" 
d="M70 0q-11 0 -15.5 4.5t-4.5 15.5v386q0 10 -10 10q-11 0 -15.5 4.5t-4.5 15.5v34q0 11 4.5 15.5t15.5 4.5q10 0 10 10v24q1 97 34 136.5t112 39.5q11 0 15.5 -4.5t4.5 -15.5v-39q0 -11 -4.5 -15t-15.5 -5q-39 -2 -50.5 -24.5t-11.5 -73.5v-23q0 -10 10 -10h38
q11 0 15.5 -4.5t4.5 -15.5v-34q0 -11 -4.5 -15.5t-15.5 -4.5h-38q-10 0 -10 -10v-386q0 -11 -4.5 -15.5t-15.5 -4.5h-44z" />
    <glyph glyph-name="g" unicode="g" 
d="M57 -67l40 13q18 6 25 -10q16 -41 60 -41q29 0 47.5 20.5t18.5 58.5v60q-27 -35 -74 -38q-60 -2 -97 40t-37 130v168q0 88 37 130t97 40q48 -3 74 -37v13q0 11 4.5 15.5t15.5 4.5h44q11 0 15.5 -4.5t4.5 -15.5v-479q0 -95 -44 -139.5t-106 -44.5q-99 0 -136 95
q-7 16 11 21zM248 150v200q0 41 -18.5 58.5t-43.5 17.5t-43.5 -17.5t-18.5 -58.5v-200q0 -41 18.5 -58.5t43.5 -17.5t43.5 17.5t18.5 58.5z" />
    <glyph glyph-name="h" unicode="h" horiz-adv-x="387" 
d="M134 350v-330q0 -11 -4.5 -15.5t-15.5 -4.5h-44q-11 0 -15.5 4.5t-4.5 15.5v660q0 11 4.5 15.5t15.5 4.5h44q11 0 15.5 -4.5t4.5 -15.5v-214q27 35 74 38q60 2 97 -40t37 -130v-314q0 -11 -4.5 -15.5t-15.5 -4.5h-44q-11 0 -15.5 4.5t-4.5 15.5v330q0 41 -18.5 58.5
t-43.5 17.5t-43.5 -17.5t-18.5 -58.5z" />
    <glyph glyph-name="i" unicode="i" horiz-adv-x="184" 
d="M70 0q-11 0 -15.5 4.5t-4.5 15.5v460q0 11 4.5 15.5t15.5 4.5h44q11 0 15.5 -4.5t4.5 -15.5v-460q0 -11 -4.5 -15.5t-15.5 -4.5h-44zM44 594q0 20 14 34t34 14t34.5 -14t14.5 -34t-14.5 -34.5t-34.5 -14.5t-34 14.5t-14 34.5z" />
    <glyph glyph-name="j" unicode="j" horiz-adv-x="184" 
d="M-11 -161v38q0 18 18 22q27 5 35 28.5t8 66.5v486q0 11 4.5 15.5t15.5 4.5h44q11 0 15.5 -4.5t4.5 -15.5v-485q-1 -89 -29 -129.5t-92 -45.5q-8 0 -12.5 1t-8 5t-3.5 13zM44 594q0 20 14 34t34 14t34.5 -14t14.5 -34t-14.5 -34.5t-34.5 -14.5t-34 14.5t-14 34.5z" />
    <glyph glyph-name="k" unicode="k" horiz-adv-x="349" 
d="M70 0q-11 0 -15.5 4.5t-4.5 15.5v660q0 11 4.5 15.5t15.5 4.5h44q11 0 15.5 -4.5t4.5 -15.5v-390l107 195q6 11 10 13t15 2h54q21 0 9 -21l-108 -197l115 -261q9 -21 -11 -21h-52q-11 0 -15 2t-9 13l-84 190l-31 -57v-128q0 -11 -4.5 -15.5t-15.5 -4.5h-44z" />
    <glyph glyph-name="l" unicode="l" horiz-adv-x="225" 
d="M129 680v-505q0 -54 11 -73.5t45 -23.5q12 -2 16 -5.5t4 -14.5v-38q0 -11 -4.5 -15.5t-15.5 -4.5q-75 2 -107 41t-33 135v504q0 11 4.5 15.5t15.5 4.5h44q11 0 15.5 -4.5t4.5 -15.5z" />
    <glyph glyph-name="m" unicode="m" horiz-adv-x="595" 
d="M134 350v-330q0 -11 -4.5 -15.5t-15.5 -4.5h-44q-11 0 -15.5 4.5t-4.5 15.5v460q0 11 4.5 15.5t15.5 4.5h44q11 0 15.5 -4.5t4.5 -15.5v-14q27 35 74 38q71 2 105 -51q46 49 103 51q60 2 97 -40t37 -130v-314q0 -11 -4.5 -15.5t-15.5 -4.5h-44q-11 0 -15.5 4.5t-4.5 15.5
v330q0 41 -18.5 58.5t-43.5 17.5t-43.5 -17.5t-18.5 -58.5v-330q0 -11 -4.5 -15.5t-15.5 -4.5h-44q-11 0 -15.5 4.5t-4.5 15.5v330q0 41 -18.5 58.5t-43.5 17.5t-43.5 -17.5t-18.5 -58.5z" />
    <glyph glyph-name="n" unicode="n" horiz-adv-x="387" 
d="M134 350v-330q0 -11 -4.5 -15.5t-15.5 -4.5h-44q-11 0 -15.5 4.5t-4.5 15.5v460q0 11 4.5 15.5t15.5 4.5h44q11 0 15.5 -4.5t4.5 -15.5v-14q27 35 74 38q60 2 97 -40t37 -130v-314q0 -11 -4.5 -15.5t-15.5 -4.5h-44q-11 0 -15.5 4.5t-4.5 15.5v330q0 41 -18.5 58.5
t-43.5 17.5t-43.5 -17.5t-18.5 -58.5z" />
    <glyph glyph-name="o" unicode="o" horiz-adv-x="380" 
d="M340 320v-140q0 -95 -44 -139.5t-106 -44.5t-106 44.5t-44 139.5v140q0 95 44 139.5t106 44.5t106 -44.5t44 -139.5zM256 344q0 44 -20 63t-46 19t-46 -19t-20 -63v-188q0 -44 20 -63t46 -19t46 19t20 63v188z" />
    <glyph glyph-name="p" unicode="p" 
d="M134 350v-200q0 -41 18.5 -58.5t43.5 -17.5t43.5 17.5t18.5 58.5v200q0 41 -18.5 58.5t-43.5 17.5t-43.5 -17.5t-18.5 -58.5zM70 500h44q11 0 15.5 -4.5t4.5 -15.5v-13q26 34 74 37q60 2 97 -40t37 -130v-168q0 -88 -37 -130t-97 -40q-47 3 -74 38v-194q0 -11 -4.5 -15.5
t-15.5 -4.5h-44q-11 0 -15.5 4.5t-4.5 15.5v640q0 11 4.5 15.5t15.5 4.5z" />
    <glyph glyph-name="q" unicode="q" 
d="M248 150v200q0 41 -18.5 58.5t-43.5 17.5t-43.5 -17.5t-18.5 -58.5v-200q0 -41 18.5 -58.5t43.5 -17.5t43.5 17.5t18.5 58.5zM268 500h44q11 0 15.5 -4.5t4.5 -15.5v-640q0 -11 -4.5 -15.5t-15.5 -4.5h-44q-11 0 -15.5 4.5t-4.5 15.5v194q-27 -35 -74 -38q-60 -2 -97 40
t-37 130v168q0 88 37 130t97 40q48 -3 74 -37v13q0 11 4.5 15.5t15.5 4.5z" />
    <glyph glyph-name="r" unicode="r" horiz-adv-x="251" 
d="M216 417q-20 5 -32 5q-18 0 -29 -8t-15 -25.5t-5 -30.5t-1 -38v-300q0 -11 -4.5 -15.5t-15.5 -4.5h-44q-11 0 -15.5 4.5t-4.5 15.5v460q0 11 4.5 15.5t15.5 4.5h44q11 0 15.5 -4.5t4.5 -15.5v-12q30 30 72 32h10q11 0 15.5 -4.5t4.5 -15.5v-43q0 -12 -4.5 -17.5
t-15.5 -2.5z" />
    <glyph glyph-name="s" unicode="s" horiz-adv-x="332" 
d="M116 375q1 -20 20.5 -39t46.5 -35.5t55 -36t49 -49t24 -65.5q5 -61 -38.5 -107.5t-106.5 -46.5q-65 0 -105.5 45t-40.5 95q0 11 4.5 15.5t15.5 4.5h42q11 0 15.5 -4.5t4.5 -15.5q1 -24 19 -43t45 -19q23 0 40.5 14.5t22.5 34.5q7 29 -9.5 53t-46 43t-59.5 38t-53 48
t-25 65q-3 57 36.5 95.5t93.5 38.5t91.5 -40t37.5 -97q0 -11 -4.5 -15.5t-15.5 -4.5h-39q-11 0 -15 4.5t-5 19.5q-1 25 -16 40.5t-39 14.5q-19 -1 -32.5 -16t-12.5 -35z" />
    <glyph glyph-name="t" unicode="t" horiz-adv-x="230" 
d="M134 175q0 -54 11 -73.5t45 -23.5q12 -2 16 -5.5t4 -14.5v-38q0 -11 -4.5 -15.5t-15.5 -4.5q-75 2 -107 41t-33 135v230q0 10 -10 10q-11 0 -15.5 4.5t-4.5 15.5v34q0 11 4.5 15.5t15.5 4.5q10 0 10 10v87q0 11 4.5 15.5t15.5 4.5h44q11 0 15.5 -4.5t4.5 -15.5v-87
q0 -10 10 -10h25q11 0 15.5 -4.5t4.5 -15.5v-34q0 -11 -4.5 -15.5t-15.5 -4.5h-25q-10 0 -10 -10v-231z" />
    <glyph glyph-name="u" unicode="u" horiz-adv-x="387" 
d="M253 150v330q0 11 4.5 15.5t15.5 4.5h44q11 0 15.5 -4.5t4.5 -15.5v-460q0 -11 -4.5 -15.5t-15.5 -4.5h-44q-11 0 -15.5 4.5t-4.5 15.5v14q-27 -35 -74 -38q-60 -2 -97 40t-37 130v314q0 11 4.5 15.5t15.5 4.5h44q11 0 15.5 -4.5t4.5 -15.5v-330q0 -41 18.5 -58.5
t43.5 -17.5t43.5 17.5t18.5 58.5z" />
    <glyph glyph-name="v" unicode="v" horiz-adv-x="366" 
d="M284 500h44h6t5.5 -1t4 -2.5t2 -5t-0.5 -8.5l-118 -465q-3 -12 -6.5 -15t-15.5 -3h-44q-12 0 -15.5 3t-6.5 15l-118 465q-3 11 2 14t15 3h44q8 0 11 -0.5t6.5 -4t4.5 -10.5l75 -327q1 -4 4 -4t4 4l75 327q1 7 4.5 10.5t6.5 4t11 0.5z" />
    <glyph glyph-name="w" unicode="w" horiz-adv-x="554" 
d="M472 500h44q7 0 10 -0.5t5.5 -4.5t1.5 -12l-93 -465q-2 -11 -6 -14.5t-16 -3.5h-34q-12 0 -15.5 3t-6.5 15l-81 301q-1 4 -4 4t-4 -4l-81 -301q-3 -12 -6.5 -15t-15.5 -3h-34q-12 0 -16 3.5t-6 14.5l-93 465q-2 11 2.5 14t14.5 3h44q8 0 11 -0.5t6.5 -4t4.5 -10.5
l57 -285q1 -4 4 -4t4 4l77 285q4 15 20 15h22q16 0 20 -15l77 -285q1 -4 4 -4t4 4l57 285q1 7 4.5 10.5t6.5 4t11 0.5z" />
    <glyph glyph-name="x" unicode="x" horiz-adv-x="329" 
d="M294 0h-47q-11 0 -15.5 4t-9.5 16l-58 133l-57 -133q-5 -12 -9.5 -16t-15.5 -4h-47q-20 0 -12 20l99 230l-99 230q-8 20 11 20h47q18 0 26 -20l57 -133l58 133q8 20 26 20h47q19 0 11 -20l-100 -230l100 -230q8 -20 -12 -20z" />
    <glyph glyph-name="y" unicode="y" horiz-adv-x="352" 
d="M172 102q1 -4 4 -4t4 4l68 383q1 7 4.5 10.5t6.5 4t11 0.5h44q7 0 10 -0.5t5.5 -4.5t1.5 -12l-99 -495q-10 -53 -24.5 -87t-35 -51.5t-42 -23.5t-52.5 -6q-11 0 -15.5 4.5t-4.5 15.5v39q0 11 4.5 15.5t15.5 4.5q59 1 45 77l-102 507q-2 11 2.5 14t14.5 3h44
q8 0 11.5 -0.5t6.5 -4t4 -10.5z" />
    <glyph glyph-name="z" unicode="z" horiz-adv-x="318" 
d="M289 416l-175 -330q-4 -8 4 -8h155q11 0 15.5 -4.5t4.5 -15.5v-38q0 -11 -4.5 -15.5t-15.5 -4.5h-228q-11 0 -15.5 4.5t-4.5 15.5v43q0 13 4 22l175 328q4 9 -4 9h-155q-11 0 -15.5 4.5t-4.5 15.5v38q0 11 4.5 15.5t15.5 4.5h228q12 0 16 -4.5t4 -15.5v-41q0 -14 -4 -23z
" />
    <glyph glyph-name="braceleft" unicode="{" horiz-adv-x="316" 
d="M115 257q-1 38 -10.5 55.5t-39.5 17.5h-14q-16 1 -16 20v38q0 11 4.5 15.5t15.5 4.5h10q30 1 39.5 18.5t10.5 54.5v157q0 111 34.5 155.5t111.5 44.5q11 0 15.5 -4.5t4.5 -15.5v-33q0 -11 -4.5 -15.5t-15.5 -4.5q-60 0 -60 -102v-186q0 -63 -32 -108q32 -45 32 -107v-286
q0 -102 60 -102q11 0 15.5 -4.5t4.5 -15.5v-33q0 -11 -4.5 -15.5t-15.5 -4.5q-77 0 -111.5 44.5t-34.5 155.5v256z" />
    <glyph glyph-name="bar" unicode="|" horiz-adv-x="154" 
d="M55 -292q-11 0 -15.5 4.5t-4.5 15.5v1001q0 11 4.5 15.5t15.5 4.5h44q11 0 15.5 -4.5t4.5 -15.5v-1001q0 -11 -4.5 -15.5t-15.5 -4.5h-44z" />
    <glyph glyph-name="braceright" unicode="}" horiz-adv-x="316" 
d="M201 257v-256q0 -111 -34.5 -155.5t-111.5 -44.5q-11 0 -15.5 4.5t-4.5 15.5v33q0 11 4.5 15.5t15.5 4.5q60 0 60 102v286q0 62 32 107q-32 45 -32 108v186q0 102 -60 102q-11 0 -15.5 4.5t-4.5 15.5v33q0 11 4.5 15.5t15.5 4.5q77 0 111.5 -44.5t34.5 -155.5v-157
q1 -37 10.5 -54.5t39.5 -18.5h10q11 0 15.5 -4.5t4.5 -15.5v-38q0 -19 -16 -20h-14q-30 0 -39.5 -17.5t-10.5 -55.5z" />
    <glyph glyph-name="asciitilde" unicode="~" horiz-adv-x="525" 
d="M363 304q-35 0 -100.5 27t-89.5 27q-42 0 -74 -50q-6 -10 -16 -3l-40 28q-10 6 -6 15q15 35 51 61t74 26q36 0 101.5 -27t88.5 -27q42 0 74 50q6 10 16 3l40 -28q10 -6 6 -15q-15 -35 -51 -61t-74 -26z" />
    <glyph glyph-name="exclamdown" unicode="&#xa1;" horiz-adv-x="197" 
d="M80 343h34q11 0 15.5 -4.5t4.5 -15.5l5 -503q0 -11 -4.5 -15.5t-15.5 -4.5h-44q-11 0 -15.5 4.5t-4.5 15.5l5 503q0 11 4.5 15.5t15.5 4.5zM50 451q0 20 14 34.5t34 14.5t34.5 -14.5t14.5 -34.5t-14.5 -34t-34.5 -14t-34 14t-14 34z" />
    <glyph glyph-name="cent" unicode="&#xa2;" horiz-adv-x="376" 
d="M124 347v-194q0 -38 18.5 -58.5t47.5 -20.5q27 0 45.5 18t19.5 49q1 14 4.5 20t15.5 6h40q11 0 15 -4.5t5 -15.5q1 -26 -8.5 -54.5t-34.5 -55t-60 -36.5v-52q0 -11 -4.5 -15.5t-15.5 -4.5h-44q-11 0 -15.5 4.5t-4.5 15.5v52q-47 13 -77.5 57t-30.5 122v140q0 78 30 121.5
t78 56.5v53q0 11 4.5 15.5t15.5 4.5h44q11 0 15.5 -4.5t4.5 -15.5v-53q35 -10 60 -36t34.5 -54.5t8.5 -54.5q-1 -11 -5 -15.5t-15 -4.5h-40q-12 0 -15.5 6t-4.5 20q-1 31 -19.5 49t-45.5 18q-29 0 -47.5 -20.5t-18.5 -58.5z" />
    <glyph glyph-name="sterling" unicode="&#xa3;" horiz-adv-x="326" 
d="M70 0q-11 0 -15.5 4.5t-4.5 15.5v300q0 10 -10 10q-11 0 -15.5 4.5t-4.5 15.5v38q0 11 4.5 15.5t15.5 4.5q10 0 10 10v4q0 129 45.5 198t124.5 78q11 1 16.5 -1t6.5 -5t2 -11l7 -47q2 -15 -10 -16q-108 -17 -108 -190v-10q0 -10 10 -10h85q11 0 15.5 -4.5t4.5 -15.5v-38
q0 -11 -4.5 -15.5t-15.5 -4.5h-85q-10 0 -10 -10v-221q0 -16 2.5 -18.5t18.5 -2.5h126q11 0 15.5 -4.5t4.5 -15.5v-38q0 -11 -4.5 -15.5t-15.5 -4.5h-211z" />
    <glyph glyph-name="yen" unicode="&#xa5;" horiz-adv-x="350" 
d="M153 0q-11 0 -15.5 4.5t-4.5 15.5v39q0 10 -10 10h-33q-11 0 -15.5 4.5t-4.5 15.5v38q0 11 4.5 15.5t15.5 4.5h33q10 0 10 10v17q0 10 -10 10h-33q-11 0 -15.5 4.5t-4.5 15.5v38q0 11 4.5 15.5t15.5 4.5h33l-101 418q-5 20 13 20h48q13 0 16.5 -3.5t6.5 -16.5l64 -279
q1 -5 5 -5t5 5l64 279q3 13 6.5 16.5t16.5 3.5h48q18 0 13 -20q-74 -301 -101 -418h33q11 0 15.5 -4.5t4.5 -15.5v-38q0 -11 -4.5 -15.5t-15.5 -4.5h-33q-10 0 -10 -10v-17q0 -10 10 -10h33q11 0 15.5 -4.5t4.5 -15.5v-38q0 -11 -4.5 -15.5t-15.5 -4.5h-33q-10 0 -10 -10
v-39q0 -11 -4.5 -15.5t-15.5 -4.5h-44z" />
    <glyph glyph-name="section" unicode="&#xa7;" horiz-adv-x="362" 
d="M51 370q-3 67 50 107q-48 42 -50 92q-3 57 36.5 95.5t93.5 38.5t91.5 -40t37.5 -97q0 -11 -4.5 -15.5t-15.5 -4.5h-39q-11 0 -15 4.5t-5 19.5q-1 25 -16 40.5t-39 14.5q-19 -1 -32.5 -16t-12.5 -35t20.5 -39t46.5 -35.5t55 -36t49 -49t24 -65.5q5 -67 -42 -112
q38 -40 42 -87q5 -61 -38.5 -107.5t-106.5 -46.5q-65 0 -105.5 45t-40.5 95q0 11 4.5 15.5t15.5 4.5h42q11 0 15.5 -4.5t4.5 -15.5q1 -24 19 -43t45 -19q23 0 40.5 14.5t22.5 34.5q7 29 -9.5 53t-46 43t-59.5 38t-53 48t-25 65zM131 375q0 -6 1.5 -11.5t5 -11t6.5 -10
t10 -10t10.5 -9t13 -10t13 -8.5t15 -9.5t14.5 -9.5q19 15 24 36q7 32 -11 54.5t-58 49.5q-20 -2 -32.5 -16.5t-11.5 -34.5z" />
    <glyph glyph-name="dieresis" unicode="&#xa8;" horiz-adv-x="316" 
d="M46 780q0 20 14 34t34 14t34.5 -14t14.5 -34t-14.5 -34.5t-34.5 -14.5t-34 14.5t-14 34.5zM174 780q0 20 14 34t34 14t34.5 -14t14.5 -34t-14.5 -34.5t-34.5 -14.5t-34 14.5t-14 34.5z" />
    <glyph glyph-name="copyright" unicode="&#xa9;" horiz-adv-x="771" 
d="M35 350q0 145 103 248t248 103t247.5 -103t102.5 -248t-102.5 -247.5t-247.5 -102.5t-248 102.5t-103 247.5zM109 348q0 -115 80.5 -195.5t195.5 -80.5q117 0 198 80.5t81 195.5q0 117 -81 198t-198 81q-115 0 -195.5 -81t-80.5 -198zM326 441v-177q0 -35 17 -53.5
t43 -18.5q25 0 41.5 16.5t17.5 44.5q1 13 4.5 18.5t14.5 5.5h36q10 0 13.5 -4t4.5 -14q3 -47 -31.5 -92.5t-100.5 -45.5q-56 0 -96.5 40.5t-40.5 127.5v127q0 87 40.5 127.5t96.5 40.5q66 0 100.5 -45.5t31.5 -92.5q-1 -10 -4.5 -14t-13.5 -4h-36q-11 0 -14.5 5.5t-4.5 18.5
q-1 28 -17.5 44.5t-41.5 16.5q-26 0 -43 -18.5t-17 -53.5z" />
    <glyph glyph-name="ordfeminine" unicode="&#xaa;" horiz-adv-x="245" 
d="M198 416h-24q-11 0 -13 18q-22 -20 -54 -20t-52 19.5t-20 55.5v10q0 35 18.5 54.5t41 24t41.5 15t20 30.5q1 13 -8.5 23.5t-25.5 10.5q-14 0 -25 -11t-11 -30q0 -12 -11 -12h-22q-11 0 -11 12q-2 35 22 60t59 25q33 0 57.5 -24t24.5 -63v-159q0 -5 1 -10.5t2 -10.5t1 -7
q3 -11 -11 -11zM120 458q37 2 37 46v57q-9 -4 -26.5 -11.5t-22.5 -10.5t-13 -9.5t-10 -14.5t-2 -20q0 -39 37 -37z" />
    <glyph glyph-name="guillemotleft" unicode="&#xab;" horiz-adv-x="360" 
d="M307 89l-123 150q-8 12 0 22l123 150q7 7 12.5 5t5.5 -10v-65q0 -11 -10 -23l-51 -62q-5 -6 0 -12l51 -62q10 -12 10 -23v-65q0 -8 -5.5 -10t-12.5 5zM162 89l-123 150q-8 12 0 22l123 150q7 7 12.5 5t5.5 -10v-65q0 -11 -10 -23l-51 -62q-5 -6 0 -12l51 -62
q10 -12 10 -23v-65q0 -8 -5.5 -10t-12.5 5z" />
    <glyph glyph-name="uni00AD" unicode="&#xad;" horiz-adv-x="499" 
d="M35 294q0 11 4.5 15.5t15.5 4.5h389q11 0 15.5 -4.5t4.5 -15.5v-38q0 -11 -4.5 -15.5t-15.5 -4.5h-389q-11 0 -15.5 4.5t-4.5 15.5v38z" />
    <glyph glyph-name="registered" unicode="&#xae;" horiz-adv-x="771" 
d="M35 350q0 145 103 248t248 103t247.5 -103t102.5 -248t-102.5 -247.5t-247.5 -102.5t-248 102.5t-103 247.5zM109 348q0 -115 80.5 -195.5t195.5 -80.5q117 0 198 80.5t81 195.5q0 117 -81 198t-198 81q-115 0 -195.5 -81t-80.5 -198zM316 575h83q96 0 96 -119v-20
q0 -74 -39 -104l39 -189q3 -14 -8 -14h-47q-12 0 -14 10l-33 172q-1 4 -7 4q-7 0 -8 -1.5t-1 -9.5v-162q0 -13 -12 -13h-49q-12 0 -12 13v420q0 13 12 13zM377 497v-102q0 -10 1.5 -11.5t12.5 -1.5q31 2 31 45v36q0 45 -33 45q-9 0 -10.5 -1.5t-1.5 -9.5z" />
    <glyph glyph-name="macron" unicode="&#xaf;" horiz-adv-x="239" 
d="M20 785q0 11 4.5 15.5t15.5 4.5h159q11 0 15.5 -4.5t4.5 -15.5v-30q0 -11 -4.5 -15.5t-15.5 -4.5h-159q-11 0 -15.5 4.5t-4.5 15.5v30z" />
    <glyph glyph-name="degree" unicode="&#xb0;" horiz-adv-x="252" 
d="M126 518q-38 0 -64.5 27t-26.5 64t26.5 64t64.5 27t64.5 -27t26.5 -64t-26.5 -64t-64.5 -27zM87 609q0 -17 11.5 -28t27.5 -11t27.5 11t11.5 28t-11.5 28t-27.5 11t-27.5 -11t-11.5 -28z" />
    <glyph glyph-name="twosuperior" unicode="&#xb2;" horiz-adv-x="212" 
d="M79 480v-24q0 -6 1 -7t8 -1h71q8 0 8 -8v-16q0 -8 -8 -8h-106q-8 0 -8 8v56q0 12 5.5 25.5t9.5 20.5t17.5 23.5t15.5 19.5t13.5 17.5t15.5 21t8 18.5t2 22q-6 22 -27 22q-11 0 -19 -9t-8 -26v-3q0 -8 -8 -8h-17q-8 0 -8 8q0 29 15.5 49.5t45.5 20.5q29 0 43.5 -19
t16.5 -42q0 -10 -2.5 -20t-9 -21t-10.5 -17.5t-14 -19.5t-13 -16q-3 -4 -11 -14.5t-11 -15t-7.5 -12t-6.5 -13.5t-2 -12z" />
    <glyph glyph-name="threesuperior" unicode="&#xb3;" horiz-adv-x="210" 
d="M165 610q0 -26 -13 -44q13 -20 13 -44v-39q0 -28 -15 -48.5t-45 -20.5q-29 0 -44.5 20.5t-15.5 49.5q0 8 8 8h16q9 0 9 -8v-3q0 -35 27 -35q22 0 26 22q0 1 0.5 4.5t0.5 4.5v43q0 30 -28 30h-5q-7 0 -7 8v15q0 9 8 9h4q26 0 28 29v28q0 1 -0.5 4.5t-0.5 4.5q-4 22 -26 22
q-27 0 -27 -35v-3q0 -8 -9 -8h-16q-8 0 -8 8q0 29 15.5 49.5t44.5 20.5q30 0 45 -20.5t15 -48.5v-23z" />
    <glyph glyph-name="acute" unicode="&#xb4;" horiz-adv-x="135" 
d="M34 735q-10 0 -10 10v98q0 12 4.5 16.5t16.5 4.5h51q23 0 13 -27l-30 -85q-4 -11 -6.5 -14t-10.5 -3h-28z" />
    <glyph glyph-name="paragraph" unicode="&#xb6;" horiz-adv-x="680" 
d="M491 -293q-7 0 -10 0.5t-6.5 5.5t-3.5 14v875q0 11 -4.5 15.5t-15.5 4.5h-60q-11 0 -15.5 -4.5t-4.5 -15.5v-875q0 -9 -3.5 -14t-6.5 -5.5t-10 -0.5h-44q-7 0 -10 0.5t-6.5 5.5t-3.5 14v520q0 25 -4 29t-29 4h-11q-85 0 -146.5 61t-61.5 149q0 86 56.5 148t137.5 62h396
q11 0 15.5 -4.5t4.5 -15.5v-38q0 -11 -4.5 -15.5t-15.5 -4.5h-41q-21 0 -25 -4.5t-4 -28.5v-862q0 -9 -3.5 -14t-6.5 -5.5t-10 -0.5h-44z" />
    <glyph glyph-name="periodcentered" unicode="&#xb7;" horiz-adv-x="167" 
d="M35 369q0 20 14 34t34 14t34.5 -14t14.5 -34t-14.5 -34.5t-34.5 -14.5t-34 14.5t-14 34.5z" />
    <glyph glyph-name="cedilla" unicode="&#xb8;" horiz-adv-x="229" 
d="M60 -118l-42 10q-13 3 -10 14l36 116h70l-22 -71q51 18 87.5 -12.5t35.5 -77.5q-1 -41 -26 -70t-59 -34.5t-70 9.5q-7 3 -3 12l14 39q3 8 13 5q13 -4 24 -4q18 0 30.5 13t12.5 30t-12.5 29.5t-30.5 12.5q-20 0 -33 -16q-6 -7 -15 -5z" />
    <glyph glyph-name="onesuperior" unicode="&#xb9;" horiz-adv-x="155" 
d="M71 696q0 4 7 4h19q8 0 8 -8v-268q0 -8 -8 -8h-18q-8 0 -8 8v191q0 4 -5 4h-25q-8 0 -5 8z" />
    <glyph glyph-name="ordmasculine" unicode="&#xba;" horiz-adv-x="240" 
d="M205 598v-80q0 -54 -25 -79t-60 -25t-60 25t-25 79v80q0 54 25 79t60 25t60 -25t25 -79zM158 611q0 47 -38 47q-15 0 -26 -11t-11 -36v-106q0 -25 11 -36t26 -11q38 0 38 47v106z" />
    <glyph glyph-name="guillemotright" unicode="&#xbb;" horiz-adv-x="360" 
d="M176 239l-123 -150q-7 -7 -12.5 -5t-5.5 10v65q0 11 10 23l51 62q5 6 0 12l-51 62q-10 12 -10 23v65q0 8 5.5 10t12.5 -5l123 -150q8 -10 0 -22zM321 239l-123 -150q-7 -7 -12.5 -5t-5.5 10v65q0 11 10 23l51 62q5 6 0 12l-51 62q-10 12 -10 23v65q0 8 5.5 10t12.5 -5
l123 -150q8 -10 0 -22z" />
    <glyph glyph-name="onequarter" unicode="&#xbc;" horiz-adv-x="458" 
d="M122 20l146 658q3 13 7 17.5t12 4.5h16q17 0 12 -20l-146 -658q-3 -13 -7 -17.5t-12 -4.5h-16q-17 0 -12 20zM90 694q6 6 10 6h27q11 0 11 -11v-377q0 -11 -11 -11h-26q-11 0 -11 11v268q0 6 -6 6h-36q-12 0 -6 12zM345 274l-45 -93q-3 -6 3 -6h41q6 0 6 6v92q0 2 -2 2.5
t-3 -1.5zM398 11q0 -11 -11 -11h-26q-11 0 -11 11v114q0 5 -6 5h-87q-12 0 -12 12v17q0 9 5 18l105 215q4 8 14 8h18q11 0 11 -11v-208q0 -6 6 -6h3q11 0 11 -12v-21q0 -12 -11 -12h-3q-6 0 -6 -5v-114z" />
    <glyph glyph-name="onehalf" unicode="&#xbd;" horiz-adv-x="470" 
d="M117 20l146 658q3 13 7 17.5t12 4.5h16q17 0 12 -20l-146 -658q-3 -13 -7 -17.5t-12 -4.5h-16q-17 0 -12 20zM90 694q6 6 10 6h27q11 0 11 -11v-377q0 -11 -11 -11h-26q-11 0 -11 11v268q0 6 -6 6h-36q-12 0 -6 12zM307 90v-34q0 -9 1.5 -10.5t9.5 -1.5h100q12 0 12 -11
v-22q0 -11 -12 -11h-148q-11 0 -11 11v78q0 18 7.5 37.5t13 28t24.5 33.5t21 27q4 5 16 20.5t17 23t12.5 20.5t9 24t-0.5 22q-2 13 -11.5 22.5t-24.5 9.5q-17 0 -27.5 -12.5t-11.5 -36.5v-4q0 -12 -11 -12h-23q-11 0 -11 12q0 40 21.5 68.5t63.5 28.5q41 0 61.5 -26
t21.5 -59q1 -12 -2 -25t-7 -22.5t-13 -23t-14 -20.5t-16.5 -21.5t-15.5 -19.5q-3 -4 -11 -15t-11 -15t-9.5 -13t-9 -13.5t-6 -12t-4.5 -13.5t-1 -12z" />
    <glyph glyph-name="threequarters" unicode="&#xbe;" horiz-adv-x="508" 
d="M173 20l146 658q3 13 7 17.5t12 4.5h16q17 0 12 -20l-146 -658q-3 -13 -7 -17.5t-12 -4.5h-16q-17 0 -12 20zM395 274l-45 -93q-3 -6 3 -6h41q6 0 6 6v92q0 2 -2 2.5t-3 -1.5zM448 11q0 -11 -11 -11h-26q-11 0 -11 11v114q0 5 -6 5h-87q-12 0 -12 12v17q0 9 5 18l105 215
q4 8 14 8h18q11 0 11 -11v-208q0 -6 6 -6h3q11 0 11 -12v-21q0 -12 -11 -12h-3q-6 0 -6 -5v-114zM209 573q0 -36 -18 -62q18 -26 18 -61v-56q0 -38 -21 -67t-63 -29t-63.5 28.5t-21.5 68.5q0 12 11 12h23q12 0 12 -12v-4q0 -24 11 -36.5t28 -12.5q30 0 36 32q1 3 1 12v61
q0 42 -38 42h-8q-10 0 -10 11v22q0 11 12 11h6q38 2 38 42v39q0 9 -1 12q-6 32 -36 32q-17 0 -28 -12.5t-11 -36.5v-4q0 -12 -12 -12h-23q-11 0 -11 12q0 40 21.5 68.5t63.5 28.5t63 -29t21 -67v-33z" />
    <glyph glyph-name="questiondown" unicode="&#xbf;" horiz-adv-x="367" 
d="M149 309v13q0 9 3.5 14t6.5 5.5t10 0.5h34q7 0 10 -0.5t6.5 -5.5t3.5 -14v-13q0 -43 -19.5 -96t-41.5 -94t-36 -93.5t-6 -97.5q4 -23 21 -39t43 -16q29 0 48 21.5t20 64.5v7q0 11 4.5 15.5t15.5 4.5h40q11 0 15.5 -4.5t4.5 -15.5q0 -71 -38 -121t-111 -50
q-50 0 -84.5 25.5t-47.5 57.5t-15 67q-3 58 25 125t58 130.5t30 108.5zM234 450q0 -20 -14 -34t-34 -14t-34.5 14t-14.5 34t14.5 34.5t34.5 14.5t34 -14.5t14 -34.5z" />
    <glyph glyph-name="Agrave" unicode="&#xc0;" horiz-adv-x="412" 
d="M364 0h-44q-8 0 -11 0.5t-6.5 4t-4.5 10.5l-11 62q-3 15 -6 17.5t-16 2.5h-117q-14 0 -17 -2.5t-6 -17.5l-11 -62q-1 -7 -4.5 -10.5t-6.5 -4t-11 -0.5h-44q-7 0 -10 0.5t-5.5 4.5t-1.5 12l126 665q2 11 6 14.5t16 3.5h54q12 0 16 -3.5t6 -14.5l126 -665q2 -11 -2.5 -14
t-14.5 -3zM202 534l-57 -339q-2 -15 0 -17.5t17 -2.5h88q15 0 17 2.5t0 17.5l-57 339q-1 4 -4 4t-4 -4zM220 735h-28q-8 0 -10.5 3t-6.5 14l-30 85q-10 27 13 27h51q12 0 16.5 -4.5t4.5 -16.5v-98q0 -10 -10 -10z" />
    <glyph glyph-name="Aacute" unicode="&#xc1;" horiz-adv-x="412" 
d="M364 0h-44q-8 0 -11 0.5t-6.5 4t-4.5 10.5l-11 62q-3 15 -6 17.5t-16 2.5h-117q-14 0 -17 -2.5t-6 -17.5l-11 -62q-1 -7 -4.5 -10.5t-6.5 -4t-11 -0.5h-44q-7 0 -10 0.5t-5.5 4.5t-1.5 12l126 665q2 11 6 14.5t16 3.5h54q12 0 16 -3.5t6 -14.5l126 -665q2 -11 -2.5 -14
t-14.5 -3zM202 534l-57 -339q-2 -15 0 -17.5t17 -2.5h88q15 0 17 2.5t0 17.5l-57 339q-1 4 -4 4t-4 -4zM192 735q-10 0 -10 10v98q0 12 4.5 16.5t16.5 4.5h51q23 0 13 -27l-30 -85q-4 -11 -6.5 -14t-10.5 -3h-28z" />
    <glyph glyph-name="Acircumflex" unicode="&#xc2;" horiz-adv-x="412" 
d="M364 0h-44q-8 0 -11 0.5t-6.5 4t-4.5 10.5l-11 62q-3 15 -6 17.5t-16 2.5h-117q-14 0 -17 -2.5t-6 -17.5l-11 -62q-1 -7 -4.5 -10.5t-6.5 -4t-11 -0.5h-44q-7 0 -10 0.5t-5.5 4.5t-1.5 12l126 665q2 11 6 14.5t16 3.5h54q12 0 16 -3.5t6 -14.5l126 -665q2 -11 -2.5 -14
t-14.5 -3zM202 534l-57 -339q-2 -15 0 -17.5t17 -2.5h88q15 0 17 2.5t0 17.5l-57 339q-1 4 -4 4t-4 -4zM227 746l-17 62q-1 4 -4 4t-4 -4l-17 -62q-3 -11 -13 -11h-53q-7 0 -8.5 5.5t2.5 12.5l64 104q5 7 15 7h28q10 0 15 -7l64 -104q4 -7 2.5 -12.5t-8.5 -5.5h-53
q-10 0 -13 11z" />
    <glyph glyph-name="Atilde" unicode="&#xc3;" horiz-adv-x="412" 
d="M364 0h-44q-8 0 -11 0.5t-6.5 4t-4.5 10.5l-11 62q-3 15 -6 17.5t-16 2.5h-117q-14 0 -17 -2.5t-6 -17.5l-11 -62q-1 -7 -4.5 -10.5t-6.5 -4t-11 -0.5h-44q-7 0 -10 0.5t-5.5 4.5t-1.5 12l126 665q2 11 6 14.5t16 3.5h54q12 0 16 -3.5t6 -14.5l126 -665q2 -11 -2.5 -14
t-14.5 -3zM202 534l-57 -339q-2 -15 0 -17.5t17 -2.5h88q15 0 17 2.5t0 17.5l-57 339q-1 4 -4 4t-4 -4zM244 731q-16 2 -40.5 13.5t-34.5 11.5q-19 0 -25 -18q-2 -7 -8 -7h-47q-7 0 -6 6q15 81 86 76q16 -1 41 -13t34 -12q19 0 25 18q2 7 8 7h47q7 0 6 -6q-16 -83 -86 -76z
" />
    <glyph glyph-name="Adieresis" unicode="&#xc4;" horiz-adv-x="412" 
d="M364 0h-44q-8 0 -11 0.5t-6.5 4t-4.5 10.5l-11 62q-3 15 -6 17.5t-16 2.5h-117q-14 0 -17 -2.5t-6 -17.5l-11 -62q-1 -7 -4.5 -10.5t-6.5 -4t-11 -0.5h-44q-7 0 -10 0.5t-5.5 4.5t-1.5 12l126 665q2 11 6 14.5t16 3.5h54q12 0 16 -3.5t6 -14.5l126 -665q2 -11 -2.5 -14
t-14.5 -3zM202 534l-57 -339q-2 -15 0 -17.5t17 -2.5h88q15 0 17 2.5t0 17.5l-57 339q-1 4 -4 4t-4 -4zM94 780q0 20 14 34t34 14t34.5 -14t14.5 -34t-14.5 -34.5t-34.5 -14.5t-34 14.5t-14 34.5zM222 780q0 20 14 34t34 14t34.5 -14t14.5 -34t-14.5 -34.5t-34.5 -14.5
t-34 14.5t-14 34.5z" />
    <glyph glyph-name="Aring" unicode="&#xc5;" horiz-adv-x="412" 
d="M364 0h-44q-8 0 -11 0.5t-6.5 4t-4.5 10.5l-11 62q-3 15 -6 17.5t-16 2.5h-117q-14 0 -17 -2.5t-6 -17.5l-11 -62q-1 -7 -4.5 -10.5t-6.5 -4t-11 -0.5h-44q-7 0 -10 0.5t-5.5 4.5t-1.5 12l126 665q2 11 6 14.5t16 3.5h54q12 0 16 -3.5t6 -14.5l126 -665q2 -11 -2.5 -14
t-14.5 -3zM202 534l-57 -339q-2 -15 0 -17.5t17 -2.5h88q15 0 17 2.5t0 17.5l-57 339q-1 4 -4 4t-4 -4zM173 823q0 -13 9.5 -23t23.5 -10t23.5 10t9.5 23t-9.5 23t-23.5 10t-23.5 -10t-9.5 -23zM114 823q0 38 27 65.5t65 27.5t65.5 -27.5t27.5 -65.5t-27.5 -65t-65.5 -27
t-65 27t-27 65z" />
    <glyph glyph-name="AE" unicode="&#xc6;" horiz-adv-x="501" 
d="M230 0q-11 0 -15.5 4.5t-4.5 15.5v66q0 8 -3.5 9.5t-17.5 1.5h-41q-14 0 -17 -2.5t-6 -17.5l-11 -62q-1 -7 -4.5 -10.5t-6.5 -4t-11 -0.5h-44q-7 0 -10 0.5t-5.5 4.5t-1.5 12l126 665q2 11 6 14.5t16 3.5h262q11 0 15.5 -4.5t4.5 -15.5v-38q0 -11 -4.5 -15.5t-15.5 -4.5
h-127q-15 0 -17.5 -2.5t-2.5 -17.5v-174q0 -15 2.5 -17.5t17.5 -2.5h127q11 0 15.5 -4.5t4.5 -15.5v-38q0 -11 -4.5 -15.5t-15.5 -4.5h-127q-15 0 -17.5 -2.5t-2.5 -17.5v-212q0 -15 2.5 -17.5t17.5 -2.5h127q11 0 15.5 -4.5t4.5 -15.5v-38q0 -11 -4.5 -15.5t-15.5 -4.5
h-211zM210 195v339q-1 4 -4 4t-4 -4l-57 -339q-2 -15 0 -17.5t17 -2.5h27q15 0 18 2.5t3 17.5z" />
    <glyph glyph-name="Ccedilla" unicode="&#xc7;" horiz-adv-x="395" 
d="M177 -118l-42 10q-13 3 -10 14l29 95q-51 14 -82.5 60t-31.5 125v328q0 97 45.5 143.5t114.5 46.5q63 0 107.5 -39.5t51.5 -122.5q2 -29 -20 -29h-44q-11 0 -15 5t-5 21q-7 87 -75 87q-76 0 -76 -108v-336q0 -108 76 -108q68 0 75 87q1 16 5 21t15 5h44q22 0 20 -29
q-6 -75 -43.5 -114t-92.5 -46l-14 -47q51 18 87.5 -12.5t35.5 -77.5q-1 -41 -26 -70t-59 -34.5t-70 9.5q-7 3 -3 12l14 39q3 8 13 5q13 -4 24 -4q18 0 30.5 13t12.5 30t-12.5 29.5t-30.5 12.5q-20 0 -33 -16q-6 -7 -15 -5z" />
    <glyph glyph-name="Egrave" unicode="&#xc8;" horiz-adv-x="341" 
d="M70 0q-11 0 -15.5 4.5t-4.5 15.5v660q0 11 4.5 15.5t15.5 4.5h211q11 0 15.5 -4.5t4.5 -15.5v-38q0 -11 -4.5 -15.5t-15.5 -4.5h-127q-15 0 -17.5 -2.5t-2.5 -17.5v-174q0 -15 2.5 -17.5t17.5 -2.5h127q11 0 15.5 -4.5t4.5 -15.5v-38q0 -11 -4.5 -15.5t-15.5 -4.5h-127
q-15 0 -17.5 -2.5t-2.5 -17.5v-212q0 -15 2.5 -17.5t17.5 -2.5h127q11 0 15.5 -4.5t4.5 -15.5v-38q0 -11 -4.5 -15.5t-15.5 -4.5h-211zM205 735h-28q-7 0 -10 3t-7 14l-30 85q-10 27 13 27h51q12 0 16.5 -4.5t4.5 -16.5v-98q0 -10 -10 -10z" />
    <glyph glyph-name="Eacute" unicode="&#xc9;" horiz-adv-x="341" 
d="M70 0q-11 0 -15.5 4.5t-4.5 15.5v660q0 11 4.5 15.5t15.5 4.5h211q11 0 15.5 -4.5t4.5 -15.5v-38q0 -11 -4.5 -15.5t-15.5 -4.5h-127q-15 0 -17.5 -2.5t-2.5 -17.5v-174q0 -15 2.5 -17.5t17.5 -2.5h127q11 0 15.5 -4.5t4.5 -15.5v-38q0 -11 -4.5 -15.5t-15.5 -4.5h-127
q-15 0 -17.5 -2.5t-2.5 -17.5v-212q0 -15 2.5 -17.5t17.5 -2.5h127q11 0 15.5 -4.5t4.5 -15.5v-38q0 -11 -4.5 -15.5t-15.5 -4.5h-211zM162 735q-10 0 -10 10v98q0 12 4.5 16.5t16.5 4.5h51q23 0 13 -27l-30 -85q-4 -11 -6.5 -14t-10.5 -3h-28z" />
    <glyph glyph-name="Ecircumflex" unicode="&#xca;" horiz-adv-x="341" 
d="M70 0q-11 0 -15.5 4.5t-4.5 15.5v660q0 11 4.5 15.5t15.5 4.5h211q11 0 15.5 -4.5t4.5 -15.5v-38q0 -11 -4.5 -15.5t-15.5 -4.5h-127q-15 0 -17.5 -2.5t-2.5 -17.5v-174q0 -15 2.5 -17.5t17.5 -2.5h127q11 0 15.5 -4.5t4.5 -15.5v-38q0 -11 -4.5 -15.5t-15.5 -4.5h-127
q-15 0 -17.5 -2.5t-2.5 -17.5v-212q0 -15 2.5 -17.5t17.5 -2.5h127q11 0 15.5 -4.5t4.5 -15.5v-38q0 -11 -4.5 -15.5t-15.5 -4.5h-211zM197 746l-17 62q-1 4 -4 4t-4 -4l-17 -62q-3 -11 -13 -11h-53q-7 0 -8.5 5.5t2.5 12.5l64 104q5 7 15 7h28q10 0 15 -7l64 -104
q4 -7 2.5 -12.5t-8.5 -5.5h-53q-10 0 -13 11z" />
    <glyph glyph-name="Edieresis" unicode="&#xcb;" horiz-adv-x="341" 
d="M64 780q0 20 14 34t34 14t34.5 -14t14.5 -34t-14.5 -34.5t-34.5 -14.5t-34 14.5t-14 34.5zM192 780q0 20 14 34t34 14t34.5 -14t14.5 -34t-14.5 -34.5t-34.5 -14.5t-34 14.5t-14 34.5zM70 0q-11 0 -15.5 4.5t-4.5 15.5v660q0 11 4.5 15.5t15.5 4.5h211q11 0 15.5 -4.5
t4.5 -15.5v-38q0 -11 -4.5 -15.5t-15.5 -4.5h-127q-15 0 -17.5 -2.5t-2.5 -17.5v-174q0 -15 2.5 -17.5t17.5 -2.5h127q11 0 15.5 -4.5t4.5 -15.5v-38q0 -11 -4.5 -15.5t-15.5 -4.5h-127q-15 0 -17.5 -2.5t-2.5 -17.5v-212q0 -15 2.5 -17.5t17.5 -2.5h127q11 0 15.5 -4.5
t4.5 -15.5v-38q0 -11 -4.5 -15.5t-15.5 -4.5h-211z" />
    <glyph glyph-name="Igrave" unicode="&#xcc;" horiz-adv-x="184" 
d="M134 20q0 -11 -4.5 -15.5t-15.5 -4.5h-44q-11 0 -15.5 4.5t-4.5 15.5v660q0 11 4.5 15.5t15.5 4.5h44q11 0 15.5 -4.5t4.5 -15.5v-660zM106 735h-28q-8 0 -10.5 3t-6.5 14l-30 85q-10 27 13 27h51q12 0 16.5 -4.5t4.5 -16.5v-98q0 -10 -10 -10z" />
    <glyph glyph-name="Iacute" unicode="&#xcd;" horiz-adv-x="184" 
d="M134 20q0 -11 -4.5 -15.5t-15.5 -4.5h-44q-11 0 -15.5 4.5t-4.5 15.5v660q0 11 4.5 15.5t15.5 4.5h44q11 0 15.5 -4.5t4.5 -15.5v-660zM77 735q-10 0 -10 10v98q0 12 4.5 16.5t16.5 4.5h51q23 0 13 -27l-30 -85q-4 -11 -7 -14t-10 -3h-28z" />
    <glyph glyph-name="Icircumflex" unicode="&#xce;" horiz-adv-x="184" 
d="M134 20q0 -11 -4.5 -15.5t-15.5 -4.5h-44q-11 0 -15.5 4.5t-4.5 15.5v660q0 11 4.5 15.5t15.5 4.5h44q11 0 15.5 -4.5t4.5 -15.5v-660zM113 746l-17 62q-1 4 -4 4t-4 -4l-17 -62q-3 -11 -13 -11h-53q-7 0 -8.5 5.5t2.5 12.5l64 104q5 7 15 7h28q10 0 15 -7l64 -104
q4 -7 2.5 -12.5t-8.5 -5.5h-53q-10 0 -13 11z" />
    <glyph glyph-name="Idieresis" unicode="&#xcf;" horiz-adv-x="184" 
d="M134 20q0 -11 -4.5 -15.5t-15.5 -4.5h-44q-11 0 -15.5 4.5t-4.5 15.5v660q0 11 4.5 15.5t15.5 4.5h44q11 0 15.5 -4.5t4.5 -15.5v-660zM-20 780q0 20 14 34t34 14t34.5 -14t14.5 -34t-14.5 -34.5t-34.5 -14.5t-34 14.5t-14 34.5zM108 780q0 20 14 34t34 14t34.5 -14
t14.5 -34t-14.5 -34.5t-34.5 -14.5t-34 14.5t-14 34.5z" />
    <glyph glyph-name="Eth" unicode="&#xd0;" horiz-adv-x="390" 
d="M50 412q0 10 -10 10q-11 0 -15.5 4.5t-4.5 15.5v38q0 11 4.5 15.5t15.5 4.5q10 0 10 10v170q0 11 4.5 15.5t15.5 4.5h120q69 0 114.5 -46.5t45.5 -143.5v-320q0 -97 -45.5 -143.5t-114.5 -46.5h-120q-11 0 -15.5 4.5t-4.5 15.5v392zM134 412v-313q0 -16 2.5 -18.5
t17.5 -2.5h36q76 0 76 108v328q0 108 -76 108h-36q-15 0 -17.5 -2.5t-2.5 -17.5v-92q0 -10 10 -10h41q11 0 15.5 -4.5t4.5 -15.5v-38q0 -11 -4.5 -15.5t-15.5 -4.5h-41q-10 0 -10 -10z" />
    <glyph glyph-name="Ntilde" unicode="&#xd1;" horiz-adv-x="455" 
d="M385 0h-37q-15 0 -20 12l-186 448q-1 3 -3 4t-3.5 -0.5t-1.5 -3.5v-440q0 -11 -4.5 -15.5t-15.5 -4.5h-44q-11 0 -15.5 4.5t-4.5 15.5v660q0 11 4.5 15.5t15.5 4.5h37q15 0 20 -13l186 -448q1 -3 3 -4t3.5 0.5t1.5 3.5v441q0 11 4.5 15.5t15.5 4.5h44q11 0 15.5 -4.5
t4.5 -15.5v-660q0 -11 -4.5 -15.5t-15.5 -4.5zM268 731q-16 2 -40.5 13.5t-34.5 11.5q-19 0 -25 -18q-2 -7 -8 -7h-47q-7 0 -6 6q15 81 86 76q16 -1 41 -13t34 -12q19 0 25 18q2 7 8 7h47q7 0 6 -6q-16 -83 -86 -76z" />
    <glyph glyph-name="Ograve" unicode="&#xd2;" horiz-adv-x="400" 
d="M360 514v-328q0 -97 -45.5 -143.5t-114.5 -46.5t-114.5 46.5t-45.5 143.5v328q0 97 45.5 143.5t114.5 46.5t114.5 -46.5t45.5 -143.5zM124 518v-336q0 -108 76 -108t76 108v336q0 108 -76 108t-76 -108zM213 735h-28q-7 0 -10 3t-7 14l-30 85q-10 27 13 27h51
q12 0 16.5 -4.5t4.5 -16.5v-98q0 -10 -10 -10z" />
    <glyph glyph-name="Oacute" unicode="&#xd3;" horiz-adv-x="400" 
d="M360 514v-328q0 -97 -45.5 -143.5t-114.5 -46.5t-114.5 46.5t-45.5 143.5v328q0 97 45.5 143.5t114.5 46.5t114.5 -46.5t45.5 -143.5zM124 518v-336q0 -108 76 -108t76 108v336q0 108 -76 108t-76 -108zM188 735q-10 0 -10 10v98q0 12 4.5 16.5t16.5 4.5h51q23 0 13 -27
l-30 -85q-4 -11 -6.5 -14t-10.5 -3h-28z" />
    <glyph glyph-name="Ocircumflex" unicode="&#xd4;" horiz-adv-x="400" 
d="M360 514v-328q0 -97 -45.5 -143.5t-114.5 -46.5t-114.5 46.5t-45.5 143.5v328q0 97 45.5 143.5t114.5 46.5t114.5 -46.5t45.5 -143.5zM124 518v-336q0 -108 76 -108t76 108v336q0 108 -76 108t-76 -108zM222 746l-17 62q-1 4 -4 4t-4 -4l-17 -62q-3 -11 -13 -11h-53
q-7 0 -8.5 5.5t2.5 12.5l64 104q5 7 15 7h28q10 0 15 -7l64 -104q4 -7 2.5 -12.5t-8.5 -5.5h-53q-10 0 -13 11z" />
    <glyph glyph-name="Otilde" unicode="&#xd5;" horiz-adv-x="400" 
d="M360 514v-328q0 -97 -45.5 -143.5t-114.5 -46.5t-114.5 46.5t-45.5 143.5v328q0 97 45.5 143.5t114.5 46.5t114.5 -46.5t45.5 -143.5zM124 518v-336q0 -108 76 -108t76 108v336q0 108 -76 108t-76 -108zM238 731q-15 2 -39.5 13t-34.5 11q-19 0 -25 -17q-2 -7 -8 -7h-46
q-7 0 -6 6q16 80 85 75q16 -1 40.5 -13t33.5 -12q19 0 25 18q2 7 8 7h46q7 0 6 -6q-16 -81 -85 -75z" />
    <glyph glyph-name="Odieresis" unicode="&#xd6;" horiz-adv-x="400" 
d="M360 514v-328q0 -97 -45.5 -143.5t-114.5 -46.5t-114.5 46.5t-45.5 143.5v328q0 97 45.5 143.5t114.5 46.5t114.5 -46.5t45.5 -143.5zM124 518v-336q0 -108 76 -108t76 108v336q0 108 -76 108t-76 -108zM88 780q0 20 14 34t34 14t34.5 -14t14.5 -34t-14.5 -34.5
t-34.5 -14.5t-34 14.5t-14 34.5zM216 780q0 20 14 34t34 14t34.5 -14t14.5 -34t-14.5 -34.5t-34.5 -14.5t-34 14.5t-14 34.5z" />
    <glyph glyph-name="multiply" unicode="&#xd7;" horiz-adv-x="383" 
d="M254 377q-7 -7 0 -14l85 -86q14 -14 0 -28l-27 -27q-14 -14 -28 0l-85 86q-7 8 -15 0l-85 -86q-14 -14 -28 0l-27 27q-14 14 0 28l85 86q7 7 0 14l-85 85q-14 14 0 29l27 27q14 14 28 0l85 -86q8 -8 15 0l85 86q13 15 28 0l27 -27q15 -15 0 -29z" />
    <glyph glyph-name="Oslash" unicode="&#xd8;" horiz-adv-x="400" 
d="M360 514v-328q0 -93 -42.5 -139.5t-106.5 -49.5l-7 -61q-3 -22 -23 -22h-42q-21 0 -19 20l9 76q-89 42 -89 176v328q0 92 41.5 138.5t106.5 50.5l8 61q3 22 23 22h42q21 0 19 -20l-10 -77q90 -42 90 -175zM124 518v-336q0 -108 76 -108t76 108v336q0 108 -76 108
t-76 -108z" />
    <glyph glyph-name="Ugrave" unicode="&#xd9;" horiz-adv-x="410" 
d="M129 680v-498q0 -108 76 -108t76 108v498q0 11 4.5 15.5t15.5 4.5h44q11 0 15.5 -4.5t4.5 -15.5v-494q0 -97 -45.5 -143.5t-114.5 -46.5t-114.5 46.5t-45.5 143.5v494q0 11 4.5 15.5t15.5 4.5h44q11 0 15.5 -4.5t4.5 -15.5zM220 735h-28q-8 0 -10.5 3t-6.5 14l-30 85
q-10 27 13 27h51q12 0 16.5 -4.5t4.5 -16.5v-98q0 -10 -10 -10z" />
    <glyph glyph-name="Uacute" unicode="&#xda;" horiz-adv-x="410" 
d="M129 680v-498q0 -108 76 -108t76 108v498q0 11 4.5 15.5t15.5 4.5h44q11 0 15.5 -4.5t4.5 -15.5v-494q0 -97 -45.5 -143.5t-114.5 -46.5t-114.5 46.5t-45.5 143.5v494q0 11 4.5 15.5t15.5 4.5h44q11 0 15.5 -4.5t4.5 -15.5zM191 735q-10 0 -10 10v98q0 12 4.5 16.5
t16.5 4.5h51q23 0 13 -27l-30 -85q-4 -11 -7 -14t-10 -3h-28z" />
    <glyph glyph-name="Ucircumflex" unicode="&#xdb;" horiz-adv-x="410" 
d="M129 680v-498q0 -108 76 -108t76 108v498q0 11 4.5 15.5t15.5 4.5h44q11 0 15.5 -4.5t4.5 -15.5v-494q0 -97 -45.5 -143.5t-114.5 -46.5t-114.5 46.5t-45.5 143.5v494q0 11 4.5 15.5t15.5 4.5h44q11 0 15.5 -4.5t4.5 -15.5zM225 746l-17 62q-1 4 -4 4t-4 -4l-17 -62
q-3 -11 -13 -11h-53q-7 0 -8.5 5.5t2.5 12.5l64 104q5 7 15 7h28q10 0 15 -7l64 -104q4 -7 2.5 -12.5t-8.5 -5.5h-53q-10 0 -13 11z" />
    <glyph glyph-name="Udieresis" unicode="&#xdc;" horiz-adv-x="410" 
d="M129 680v-498q0 -108 76 -108t76 108v498q0 11 4.5 15.5t15.5 4.5h44q11 0 15.5 -4.5t4.5 -15.5v-494q0 -97 -45.5 -143.5t-114.5 -46.5t-114.5 46.5t-45.5 143.5v494q0 11 4.5 15.5t15.5 4.5h44q11 0 15.5 -4.5t4.5 -15.5zM93 780q0 20 14 34t34 14t34.5 -14t14.5 -34
t-14.5 -34.5t-34.5 -14.5t-34 14.5t-14 34.5zM221 780q0 20 14 34t34 14t34.5 -14t14.5 -34t-14.5 -34.5t-34.5 -14.5t-34 14.5t-14 34.5z" />
    <glyph glyph-name="Yacute" unicode="&#xdd;" horiz-adv-x="350" 
d="M153 0q-11 0 -15.5 4.5t-4.5 15.5v204l-111 456q-5 20 13 20h48q13 0 16.5 -3.5t6.5 -16.5l64 -279q1 -5 5 -5t5 5l64 279q3 13 6.5 16.5t16.5 3.5h48q18 0 13 -20q-111 -446 -111 -456v-204q0 -11 -4.5 -15.5t-15.5 -4.5h-44zM162 735q-10 0 -10 10v98q0 12 4.5 16.5
t16.5 4.5h51q23 0 13 -27l-30 -85q-4 -11 -6.5 -14t-10.5 -3h-28z" />
    <glyph glyph-name="Thorn" unicode="&#xde;" horiz-adv-x="380" 
d="M50 20v660q0 11 4 15.5t16 4.5h44q20 0 20 -20v-76q0 -14 2.5 -16.5t17.5 -2.5h36q69 0 114.5 -46.5t45.5 -143.5v-87q0 -97 -45.5 -143.5t-114.5 -46.5h-36q-15 0 -17.5 -2.5t-2.5 -17.5v-78q0 -20 -20 -20h-44q-12 0 -16 4.5t-4 15.5zM134 217q0 -16 2.5 -18.5
t17.5 -2.5h36q76 0 76 108v95q0 108 -76 108h-36q-15 0 -17.5 -2.5t-2.5 -17.5v-270z" />
    <glyph glyph-name="germandbls" unicode="&#xdf;" horiz-adv-x="409" 
d="M129 -95q0 -11 -4.5 -15.5t-15.5 -4.5h-44q-11 0 -15.5 4.5t-4.5 15.5v577q0 126 41.5 174t108.5 48q60 0 105 -41.5t42 -117.5q-2 -37 -26.5 -74.5t-46 -67.5t-18.5 -52q3 -19 17.5 -35t33.5 -29t38 -28t31.5 -40t12.5 -57q0 -54 -34 -98t-103 -67q-14 -3 -17.5 -0.5
t-7.5 11.5l-13 34q-8 21 14 28q33 11 57.5 35.5t24.5 55.5q0 26 -21 47t-45.5 34.5t-45.5 41.5t-21 66q0 37 20.5 69.5t43 63t25.5 61.5q3 34 -14.5 59t-48.5 23q-36 -2 -52.5 -39t-16.5 -136v-546z" />
    <glyph glyph-name="agrave" unicode="&#xe0;" 
d="M325 0h-43q-11 0 -15.5 6t-6.5 26q-41 -36 -96 -36q-56 0 -91.5 34.5t-35.5 98.5v18q0 51 21.5 82.5t52.5 44t62.5 21.5t54 25.5t23.5 45.5q1 23 -15.5 41.5t-44.5 18.5q-26 0 -45 -19.5t-19 -52.5q0 -12 -4 -16.5t-16 -4.5h-38q-11 0 -15 4.5t-5 15.5q-2 62 40 106.5
t103 44.5q59 0 102 -42.5t43 -111.5v-281q1 -21 8 -49q4 -20 -20 -20zM187 74q66 3 66 82v100q-17 -8 -47.5 -21t-39.5 -18t-23.5 -17t-18 -25.5t-3.5 -35.5q0 -12 3 -25t19 -27t44 -13zM214 549h-28q-8 0 -10.5 3t-6.5 14l-30 85q-10 27 13 27h51q12 0 16.5 -4.5t4.5 -16.5
v-98q0 -10 -10 -10z" />
    <glyph glyph-name="aacute" unicode="&#xe1;" 
d="M325 0h-43q-11 0 -15.5 6t-6.5 26q-41 -36 -96 -36q-56 0 -91.5 34.5t-35.5 98.5v18q0 51 21.5 82.5t52.5 44t62.5 21.5t54 25.5t23.5 45.5q1 23 -15.5 41.5t-44.5 18.5q-26 0 -45 -19.5t-19 -52.5q0 -12 -4 -16.5t-16 -4.5h-38q-11 0 -15 4.5t-5 15.5q-2 62 40 106.5
t103 44.5q59 0 102 -42.5t43 -111.5v-281q1 -21 8 -49q4 -20 -20 -20zM187 74q66 3 66 82v100q-17 -8 -47.5 -21t-39.5 -18t-23.5 -17t-18 -25.5t-3.5 -35.5q0 -12 3 -25t19 -27t44 -13zM179 549q-10 0 -10 10v98q0 12 4.5 16.5t16.5 4.5h51q23 0 13 -27l-30 -85
q-4 -11 -7 -14t-10 -3h-28z" />
    <glyph glyph-name="acircumflex" unicode="&#xe2;" 
d="M325 0h-43q-11 0 -15.5 6t-6.5 26q-41 -36 -96 -36q-56 0 -91.5 34.5t-35.5 98.5v18q0 51 21.5 82.5t52.5 44t62.5 21.5t54 25.5t23.5 45.5q1 23 -15.5 41.5t-44.5 18.5q-26 0 -45 -19.5t-19 -52.5q0 -12 -4 -16.5t-16 -4.5h-38q-11 0 -15 4.5t-5 15.5q-2 62 40 106.5
t103 44.5q59 0 102 -42.5t43 -111.5v-281q1 -21 8 -49q4 -20 -20 -20zM187 74q66 3 66 82v100q-17 -8 -47.5 -21t-39.5 -18t-23.5 -17t-18 -25.5t-3.5 -35.5q0 -12 3 -25t19 -27t44 -13zM218 560l-17 62q-1 4 -4 4t-4 -4l-17 -62q-3 -11 -13 -11h-53q-7 0 -8.5 5.5t2.5 12.5
l64 104q5 7 15 7h28q10 0 15 -7l64 -104q4 -7 2.5 -12.5t-8.5 -5.5h-53q-10 0 -13 11z" />
    <glyph glyph-name="atilde" unicode="&#xe3;" 
d="M325 0h-43q-11 0 -15.5 6t-6.5 26q-41 -36 -96 -36q-56 0 -91.5 34.5t-35.5 98.5v18q0 51 21.5 82.5t52.5 44t62.5 21.5t54 25.5t23.5 45.5q1 23 -15.5 41.5t-44.5 18.5q-26 0 -45 -19.5t-19 -52.5q0 -12 -4 -16.5t-16 -4.5h-38q-11 0 -15 4.5t-5 15.5q-2 62 40 106.5
t103 44.5q59 0 102 -42.5t43 -111.5v-281q1 -21 8 -49q4 -20 -20 -20zM187 74q66 3 66 82v100q-17 -8 -47.5 -21t-39.5 -18t-23.5 -17t-18 -25.5t-3.5 -35.5q0 -12 3 -25t19 -27t44 -13zM229 545q-16 2 -40.5 13.5t-34.5 11.5q-19 0 -25 -18q-2 -7 -8 -7h-47q-7 0 -6 6
q15 81 86 76q16 -1 41 -13t34 -12q19 0 25 18q2 7 8 7h47q7 0 6 -6q-16 -83 -86 -76z" />
    <glyph glyph-name="adieresis" unicode="&#xe4;" 
d="M325 0h-43q-11 0 -15.5 6t-6.5 26q-41 -36 -96 -36q-56 0 -91.5 34.5t-35.5 98.5v18q0 51 21.5 82.5t52.5 44t62.5 21.5t54 25.5t23.5 45.5q1 23 -15.5 41.5t-44.5 18.5q-26 0 -45 -19.5t-19 -52.5q0 -12 -4 -16.5t-16 -4.5h-38q-11 0 -15 4.5t-5 15.5q-2 62 40 106.5
t103 44.5q59 0 102 -42.5t43 -111.5v-281q1 -21 8 -49q4 -20 -20 -20zM187 74q66 3 66 82v100q-17 -8 -47.5 -21t-39.5 -18t-23.5 -17t-18 -25.5t-3.5 -35.5q0 -12 3 -25t19 -27t44 -13zM82 594q0 20 14 34t34 14t34.5 -14t14.5 -34t-14.5 -34.5t-34.5 -14.5t-34 14.5
t-14 34.5zM210 594q0 20 14 34t34 14t34.5 -14t14.5 -34t-14.5 -34.5t-34.5 -14.5t-34 14.5t-14 34.5z" />
    <glyph glyph-name="aring" unicode="&#xe5;" 
d="M325 0h-43q-11 0 -15.5 6t-6.5 26q-41 -36 -96 -36q-56 0 -91.5 34.5t-35.5 98.5v18q0 51 21.5 82.5t52.5 44t62.5 21.5t54 25.5t23.5 45.5q1 23 -15.5 41.5t-44.5 18.5q-26 0 -45 -19.5t-19 -52.5q0 -12 -4 -16.5t-16 -4.5h-38q-11 0 -15 4.5t-5 15.5q-2 62 40 106.5
t103 44.5q59 0 102 -42.5t43 -111.5v-281q1 -21 8 -49q4 -20 -20 -20zM187 74q66 3 66 82v100q-17 -8 -47.5 -21t-39.5 -18t-23.5 -17t-18 -25.5t-3.5 -35.5q0 -12 3 -25t19 -27t44 -13zM158 637q0 -13 10 -23t23 -10t23 10t10 23t-10 23t-23 10t-23 -10t-10 -23zM99 637
q0 38 27 65.5t65 27.5t65.5 -27.5t27.5 -65.5t-27.5 -65t-65.5 -27t-65 27t-27 65z" />
    <glyph glyph-name="ae" unicode="&#xe6;" horiz-adv-x="594" 
d="M404 -4q-78 0 -118 61q-45 -61 -122 -61q-56 0 -91.5 34.5t-35.5 98.5v25q0 51 22 80.5t54 40t64 18t54 24.5t22 50q0 20 -17 39.5t-45 19.5q-26 0 -45 -19.5t-19 -52.5q0 -12 -4 -16.5t-16 -4.5h-38q-11 0 -15 4.5t-5 15.5q-2 62 40 106.5t103 44.5q63 0 106 -45
q41 45 106 45q62 0 106 -44.5t44 -139.5v-67q0 -12 -4.5 -16t-16.5 -4h-175q-11 0 -15.5 -4.5t-4.5 -15.5v-60q0 -38 18.5 -58.5t47.5 -20.5q27 0 45.5 18t19.5 49q1 14 4.5 20t15.5 6h40q11 0 15 -4.5t5 -15.5q3 -52 -35 -101.5t-110 -49.5zM187 74q66 3 66 82v99
q-17 -9 -41 -18.5t-37.5 -15t-27.5 -16t-20 -26.5t-6 -40q0 -12 3 -25t19 -27t44 -13zM470 347q0 38 -18.5 58.5t-47.5 20.5t-47.5 -20.5t-18.5 -58.5v-20q0 -11 4.5 -15.5t15.5 -4.5h92q11 0 15.5 4.5t4.5 15.5v20z" />
    <glyph glyph-name="ccedilla" unicode="&#xe7;" horiz-adv-x="376" 
d="M158 -118l-42 10q-13 3 -10 14l31 99q-97 37 -97 175v140q0 95 44 139.5t106 44.5q72 0 110 -49.5t35 -101.5q-1 -11 -5 -15.5t-15 -4.5h-40q-12 0 -15.5 6t-4.5 20q-1 31 -19.5 49t-45.5 18q-29 0 -47.5 -20.5t-18.5 -58.5v-194q0 -38 18.5 -58.5t47.5 -20.5
q27 0 45.5 18t19.5 49q1 14 4.5 20t15.5 6h40q11 0 15 -4.5t5 -15.5q3 -49 -31 -97t-100 -53l-14 -46q51 18 87.5 -12.5t35.5 -77.5q-1 -41 -26 -70t-59 -34.5t-70 9.5q-7 3 -3 12l14 39q3 8 13 5q13 -4 24 -4q18 0 30.5 13t12.5 30t-12.5 29.5t-30.5 12.5q-20 0 -33 -16
q-6 -7 -15 -5z" />
    <glyph glyph-name="egrave" unicode="&#xe8;" horiz-adv-x="380" 
d="M40 180v140q0 95 44 139.5t106 44.5t106 -44.5t44 -139.5v-67q0 -12 -4.5 -16t-16.5 -4h-175q-11 0 -15.5 -4.5t-4.5 -15.5v-60q0 -38 18.5 -58.5t47.5 -20.5q27 0 45.5 18t19.5 49q1 14 4.5 20t15.5 6h40q11 0 15 -4.5t5 -15.5q3 -52 -35 -101.5t-110 -49.5
q-62 0 -106 44.5t-44 139.5zM256 347q0 38 -18.5 58.5t-47.5 20.5t-47.5 -20.5t-18.5 -58.5v-20q0 -11 4.5 -15.5t15.5 -4.5h92q11 0 15.5 4.5t4.5 15.5v20zM203 549h-28q-7 0 -10 3t-7 14l-30 85q-10 27 13 27h51q12 0 16.5 -4.5t4.5 -16.5v-98q0 -10 -10 -10z" />
    <glyph glyph-name="eacute" unicode="&#xe9;" horiz-adv-x="380" 
d="M40 180v140q0 95 44 139.5t106 44.5t106 -44.5t44 -139.5v-67q0 -12 -4.5 -16t-16.5 -4h-175q-11 0 -15.5 -4.5t-4.5 -15.5v-60q0 -38 18.5 -58.5t47.5 -20.5q27 0 45.5 18t19.5 49q1 14 4.5 20t15.5 6h40q11 0 15 -4.5t5 -15.5q3 -52 -35 -101.5t-110 -49.5
q-62 0 -106 44.5t-44 139.5zM256 347q0 38 -18.5 58.5t-47.5 20.5t-47.5 -20.5t-18.5 -58.5v-20q0 -11 4.5 -15.5t15.5 -4.5h92q11 0 15.5 4.5t4.5 15.5v20zM175 549q-10 0 -10 10v98q0 12 4.5 16.5t16.5 4.5h51q23 0 13 -27l-30 -85q-4 -11 -7 -14t-10 -3h-28z" />
    <glyph glyph-name="ecircumflex" unicode="&#xea;" horiz-adv-x="380" 
d="M40 180v140q0 95 44 139.5t106 44.5t106 -44.5t44 -139.5v-67q0 -12 -4.5 -16t-16.5 -4h-175q-11 0 -15.5 -4.5t-4.5 -15.5v-60q0 -38 18.5 -58.5t47.5 -20.5q27 0 45.5 18t19.5 49q1 14 4.5 20t15.5 6h40q11 0 15 -4.5t5 -15.5q3 -52 -35 -101.5t-110 -49.5
q-62 0 -106 44.5t-44 139.5zM256 347q0 38 -18.5 58.5t-47.5 20.5t-47.5 -20.5t-18.5 -58.5v-20q0 -11 4.5 -15.5t15.5 -4.5h92q11 0 15.5 4.5t4.5 15.5v20zM213 560l-17 62q-1 4 -4 4t-4 -4l-17 -62q-3 -11 -13 -11h-53q-7 0 -8.5 5.5t2.5 12.5l64 104q5 7 15 7h28
q10 0 15 -7l64 -104q4 -7 2.5 -12.5t-8.5 -5.5h-53q-10 0 -13 11z" />
    <glyph glyph-name="edieresis" unicode="&#xeb;" horiz-adv-x="380" 
d="M40 180v140q0 95 44 139.5t106 44.5t106 -44.5t44 -139.5v-67q0 -12 -4.5 -16t-16.5 -4h-175q-11 0 -15.5 -4.5t-4.5 -15.5v-60q0 -38 18.5 -58.5t47.5 -20.5q27 0 45.5 18t19.5 49q1 14 4.5 20t15.5 6h40q11 0 15 -4.5t5 -15.5q3 -52 -35 -101.5t-110 -49.5
q-62 0 -106 44.5t-44 139.5zM256 347q0 38 -18.5 58.5t-47.5 20.5t-47.5 -20.5t-18.5 -58.5v-20q0 -11 4.5 -15.5t15.5 -4.5h92q11 0 15.5 4.5t4.5 15.5v20zM79 594q0 20 14 34t34 14t34.5 -14t14.5 -34t-14.5 -34.5t-34.5 -14.5t-34 14.5t-14 34.5zM207 594q0 20 14 34
t34 14t34.5 -14t14.5 -34t-14.5 -34.5t-34.5 -14.5t-34 14.5t-14 34.5z" />
    <glyph glyph-name="igrave" unicode="&#xec;" horiz-adv-x="184" 
d="M70 0q-11 0 -15.5 4.5t-4.5 15.5v460q0 11 4.5 15.5t15.5 4.5h44q11 0 15.5 -4.5t4.5 -15.5v-460q0 -11 -4.5 -15.5t-15.5 -4.5h-44zM104 549h-28q-8 0 -10.5 3t-6.5 14l-30 85q-10 27 13 27h51q12 0 16.5 -4.5t4.5 -16.5v-98q0 -10 -10 -10z" />
    <glyph glyph-name="iacute" unicode="&#xed;" horiz-adv-x="184" 
d="M70 0q-11 0 -15.5 4.5t-4.5 15.5v460q0 11 4.5 15.5t15.5 4.5h44q11 0 15.5 -4.5t4.5 -15.5v-460q0 -11 -4.5 -15.5t-15.5 -4.5h-44zM77 549q-10 0 -10 10v98q0 12 4.5 16.5t16.5 4.5h51q23 0 13 -27l-30 -85q-4 -11 -7 -14t-10 -3h-28z" />
    <glyph glyph-name="icircumflex" unicode="&#xee;" horiz-adv-x="184" 
d="M70 0q-11 0 -15.5 4.5t-4.5 15.5v460q0 11 4.5 15.5t15.5 4.5h44q11 0 15.5 -4.5t4.5 -15.5v-460q0 -11 -4.5 -15.5t-15.5 -4.5h-44zM113 560l-17 62q-1 4 -4 4t-4 -4l-17 -62q-3 -11 -13 -11h-53q-7 0 -8.5 5.5t2.5 12.5l64 104q5 7 15 7h28q10 0 15 -7l64 -104
q4 -7 2.5 -12.5t-8.5 -5.5h-53q-10 0 -13 11z" />
    <glyph glyph-name="idieresis" unicode="&#xef;" horiz-adv-x="184" 
d="M70 0q-11 0 -15.5 4.5t-4.5 15.5v460q0 11 4.5 15.5t15.5 4.5h44q11 0 15.5 -4.5t4.5 -15.5v-460q0 -11 -4.5 -15.5t-15.5 -4.5h-44zM-20 594q0 20 14 34t34 14t34.5 -14t14.5 -34t-14.5 -34.5t-34.5 -14.5t-34 14.5t-14 34.5zM108 594q0 20 14 34t34 14t34.5 -14
t14.5 -34t-14.5 -34.5t-34.5 -14.5t-34 14.5t-14 34.5z" />
    <glyph glyph-name="eth" unicode="&#xf0;" horiz-adv-x="380" 
d="M340 180q0 -95 -44 -139.5t-106 -44.5t-106 44.5t-44 139.5v95q0 85 36 128.5t93 41.5q49 -1 87 -39q0 91 -38 141q-5 6 -11 0l-25 -26q-13 -14 -29 0l-19 20q-15 15 0 28l32 33q7 7 0 14q-20 19 -60 41q-6 3 -4 10l9 31q2 7 8 5q50 -10 94 -42q7 -5 13 1l32 32
q14 14 29 0l19 -19q14 -15 0 -29l-34 -34q-5 -5 1 -12q67 -92 67 -249v-171zM124 285v-129q0 -44 20 -63t46 -19t46 19t20 63v129q0 44 -20 63t-46 19t-46 -19t-20 -63z" />
    <glyph glyph-name="ntilde" unicode="&#xf1;" horiz-adv-x="387" 
d="M134 350v-330q0 -11 -4.5 -15.5t-15.5 -4.5h-44q-11 0 -15.5 4.5t-4.5 15.5v460q0 11 4.5 15.5t15.5 4.5h44q11 0 15.5 -4.5t4.5 -15.5v-14q27 35 74 38q60 2 97 -40t37 -130v-314q0 -11 -4.5 -15.5t-15.5 -4.5h-44q-11 0 -15.5 4.5t-4.5 15.5v330q0 41 -18.5 58.5
t-43.5 17.5t-43.5 -17.5t-18.5 -58.5zM227 545q-15 2 -39 13t-33 11q-19 0 -25 -18q-3 -6 -7 -6h-46q-7 0 -6 6q15 77 84 72q16 -1 39.5 -12.5t32.5 -11.5q18 0 24 18q2 6 8 6h45q6 0 6 -3v-2q-16 -79 -83 -73z" />
    <glyph glyph-name="ograve" unicode="&#xf2;" horiz-adv-x="380" 
d="M340 320v-140q0 -95 -44 -139.5t-106 -44.5t-106 44.5t-44 139.5v140q0 95 44 139.5t106 44.5t106 -44.5t44 -139.5zM256 344q0 44 -20 63t-46 19t-46 -19t-20 -63v-188q0 -44 20 -63t46 -19t46 19t20 63v188zM204 549h-28q-8 0 -10.5 3t-6.5 14l-30 85q-10 27 13 27h51
q12 0 16.5 -4.5t4.5 -16.5v-98q0 -10 -10 -10z" />
    <glyph glyph-name="oacute" unicode="&#xf3;" horiz-adv-x="380" 
d="M340 320v-140q0 -95 -44 -139.5t-106 -44.5t-106 44.5t-44 139.5v140q0 95 44 139.5t106 44.5t106 -44.5t44 -139.5zM256 344q0 44 -20 63t-46 19t-46 -19t-20 -63v-188q0 -44 20 -63t46 -19t46 19t20 63v188zM178 549q-10 0 -10 10v98q0 12 4.5 16.5t16.5 4.5h51
q23 0 13 -27l-30 -85q-4 -11 -6.5 -14t-10.5 -3h-28z" />
    <glyph glyph-name="ocircumflex" unicode="&#xf4;" horiz-adv-x="380" 
d="M340 320v-140q0 -95 -44 -139.5t-106 -44.5t-106 44.5t-44 139.5v140q0 95 44 139.5t106 44.5t106 -44.5t44 -139.5zM256 344q0 44 -20 63t-46 19t-46 -19t-20 -63v-188q0 -44 20 -63t46 -19t46 19t20 63v188zM211 560l-17 62q-1 4 -4 4t-4 -4l-17 -62q-3 -11 -13 -11
h-53q-7 0 -8.5 5.5t2.5 12.5l64 104q5 7 15 7h28q10 0 15 -7l64 -104q4 -7 2.5 -12.5t-8.5 -5.5h-53q-10 0 -13 11z" />
    <glyph glyph-name="otilde" unicode="&#xf5;" horiz-adv-x="380" 
d="M340 320v-140q0 -95 -44 -139.5t-106 -44.5t-106 44.5t-44 139.5v140q0 95 44 139.5t106 44.5t106 -44.5t44 -139.5zM256 344q0 44 -20 63t-46 19t-46 -19t-20 -63v-188q0 -44 20 -63t46 -19t46 19t20 63v188zM226 545q-15 2 -39 13t-33 11q-19 0 -25 -18q-3 -6 -7 -6
h-46q-7 0 -6 6q15 77 84 72q16 -1 39.5 -12.5t32.5 -11.5q18 0 24 18q2 6 8 6h45q6 0 6 -3v-2q-16 -79 -83 -73z" />
    <glyph glyph-name="odieresis" unicode="&#xf6;" horiz-adv-x="380" 
d="M340 320v-140q0 -95 -44 -139.5t-106 -44.5t-106 44.5t-44 139.5v140q0 95 44 139.5t106 44.5t106 -44.5t44 -139.5zM256 344q0 44 -20 63t-46 19t-46 -19t-20 -63v-188q0 -44 20 -63t46 -19t46 19t20 63v188zM78 594q0 20 14 34t34 14t34.5 -14t14.5 -34t-14.5 -34.5
t-34.5 -14.5t-34 14.5t-14 34.5zM206 594q0 20 14 34t34 14t34.5 -14t14.5 -34t-14.5 -34.5t-34.5 -14.5t-34 14.5t-14 34.5z" />
    <glyph glyph-name="divide" unicode="&#xf7;" horiz-adv-x="370" 
d="M136 217q0 20 14 34t34 14t34.5 -14t14.5 -34t-14.5 -34.5t-34.5 -14.5t-34 14.5t-14 34.5zM136 520q0 20 14 34t34 14t34.5 -14t14.5 -34t-14.5 -34.5t-34.5 -14.5t-34 14.5t-14 34.5zM35 388q0 11 4.5 15.5t15.5 4.5h260q11 0 15.5 -4.5t4.5 -15.5v-38
q0 -11 -4.5 -15.5t-15.5 -4.5h-260q-11 0 -15.5 4.5t-4.5 15.5v38z" />
    <glyph glyph-name="oslash" unicode="&#xf8;" horiz-adv-x="380" 
d="M340 320v-140q0 -91 -41 -135.5t-99 -47.5l-7 -60q-3 -22 -23 -22h-42q-21 0 -19 20l9 78q-78 43 -78 167v140q0 90 40 134.5t98 48.5l7 60q3 22 23 22h42q21 0 19 -20l-10 -77q81 -43 81 -168zM256 344q0 44 -20 63t-46 19t-46 -19t-20 -63v-188q0 -44 20 -63t46 -19
t46 19t20 63v188z" />
    <glyph glyph-name="ugrave" unicode="&#xf9;" horiz-adv-x="387" 
d="M253 150v330q0 11 4.5 15.5t15.5 4.5h44q11 0 15.5 -4.5t4.5 -15.5v-460q0 -11 -4.5 -15.5t-15.5 -4.5h-44q-11 0 -15.5 4.5t-4.5 15.5v14q-27 -35 -74 -38q-60 -2 -97 40t-37 130v314q0 11 4.5 15.5t15.5 4.5h44q11 0 15.5 -4.5t4.5 -15.5v-330q0 -41 18.5 -58.5
t43.5 -17.5t43.5 17.5t18.5 58.5zM214 549h-28q-8 0 -10.5 3t-6.5 14l-30 85q-10 27 13 27h51q12 0 16.5 -4.5t4.5 -16.5v-98q0 -10 -10 -10z" />
    <glyph glyph-name="uacute" unicode="&#xfa;" horiz-adv-x="387" 
d="M253 150v330q0 11 4.5 15.5t15.5 4.5h44q11 0 15.5 -4.5t4.5 -15.5v-460q0 -11 -4.5 -15.5t-15.5 -4.5h-44q-11 0 -15.5 4.5t-4.5 15.5v14q-27 -35 -74 -38q-60 -2 -97 40t-37 130v314q0 11 4.5 15.5t15.5 4.5h44q11 0 15.5 -4.5t4.5 -15.5v-330q0 -41 18.5 -58.5
t43.5 -17.5t43.5 17.5t18.5 58.5zM178 549q-10 0 -10 10v98q0 12 4.5 16.5t16.5 4.5h51q23 0 13 -27l-30 -85q-4 -11 -6.5 -14t-10.5 -3h-28z" />
    <glyph glyph-name="ucircumflex" unicode="&#xfb;" horiz-adv-x="387" 
d="M253 150v330q0 11 4.5 15.5t15.5 4.5h44q11 0 15.5 -4.5t4.5 -15.5v-460q0 -11 -4.5 -15.5t-15.5 -4.5h-44q-11 0 -15.5 4.5t-4.5 15.5v14q-27 -35 -74 -38q-60 -2 -97 40t-37 130v314q0 11 4.5 15.5t15.5 4.5h44q11 0 15.5 -4.5t4.5 -15.5v-330q0 -41 18.5 -58.5
t43.5 -17.5t43.5 17.5t18.5 58.5zM214 560l-17 62q-1 4 -4 4t-4 -4l-17 -62q-3 -11 -13 -11h-53q-7 0 -8.5 5.5t2.5 12.5l64 104q5 7 15 7h28q10 0 15 -7l64 -104q4 -7 2.5 -12.5t-8.5 -5.5h-53q-10 0 -13 11z" />
    <glyph glyph-name="udieresis" unicode="&#xfc;" horiz-adv-x="387" 
d="M253 150v330q0 11 4.5 15.5t15.5 4.5h44q11 0 15.5 -4.5t4.5 -15.5v-460q0 -11 -4.5 -15.5t-15.5 -4.5h-44q-11 0 -15.5 4.5t-4.5 15.5v14q-27 -35 -74 -38q-60 -2 -97 40t-37 130v314q0 11 4.5 15.5t15.5 4.5h44q11 0 15.5 -4.5t4.5 -15.5v-330q0 -41 18.5 -58.5
t43.5 -17.5t43.5 17.5t18.5 58.5zM82 594q0 20 14 34t34 14t34.5 -14t14.5 -34t-14.5 -34.5t-34.5 -14.5t-34 14.5t-14 34.5zM210 594q0 20 14 34t34 14t34.5 -14t14.5 -34t-14.5 -34.5t-34.5 -14.5t-34 14.5t-14 34.5z" />
    <glyph glyph-name="yacute" unicode="&#xfd;" horiz-adv-x="352" 
d="M172 102q1 -4 4 -4t4 4l68 383q1 7 4.5 10.5t6.5 4t11 0.5h44q7 0 10 -0.5t5.5 -4.5t1.5 -12l-99 -495q-10 -53 -24.5 -87t-35 -51.5t-42 -23.5t-52.5 -6q-11 0 -15.5 4.5t-4.5 15.5v39q0 11 4.5 15.5t15.5 4.5q59 1 45 77l-102 507q-2 11 2.5 14t14.5 3h44
q8 0 11.5 -0.5t6.5 -4t4 -10.5zM170 549q-10 0 -10 10v98q0 12 4.5 16.5t16.5 4.5h51q23 0 13 -27l-30 -85q-4 -11 -6.5 -14t-10.5 -3h-28z" />
    <glyph glyph-name="thorn" unicode="&#xfe;" 
d="M134 350v-200q0 -41 18.5 -58.5t43.5 -17.5t43.5 17.5t18.5 58.5v200q0 41 -18.5 58.5t-43.5 17.5t-43.5 -17.5t-18.5 -58.5zM70 700h44q11 0 15.5 -4.5t4.5 -15.5v-213q26 34 74 37q60 2 97 -40t37 -130v-168q0 -88 -37 -130t-97 -40q-47 3 -74 38v-194
q0 -11 -4.5 -15.5t-15.5 -4.5h-44q-11 0 -15.5 4.5t-4.5 15.5v840q0 11 4.5 15.5t15.5 4.5z" />
    <glyph glyph-name="ydieresis" unicode="&#xff;" horiz-adv-x="352" 
d="M172 102q1 -4 4 -4t4 4l68 383q1 7 4.5 10.5t6.5 4t11 0.5h44q7 0 10 -0.5t5.5 -4.5t1.5 -12l-99 -495q-10 -53 -24.5 -87t-35 -51.5t-42 -23.5t-52.5 -6q-11 0 -15.5 4.5t-4.5 15.5v39q0 11 4.5 15.5t15.5 4.5q59 1 45 77l-102 507q-2 11 2.5 14t14.5 3h44
q8 0 11.5 -0.5t6.5 -4t4 -10.5zM64 594q0 20 14 34t34 14t34.5 -14t14.5 -34t-14.5 -34.5t-34.5 -14.5t-34 14.5t-14 34.5zM192 594q0 20 14 34t34 14t34.5 -14t14.5 -34t-14.5 -34.5t-34.5 -14.5t-34 14.5t-14 34.5z" />
    <glyph glyph-name="Amacron" unicode="&#x100;" horiz-adv-x="412" 
d="M364 0h-44q-8 0 -11 0.5t-6.5 4t-4.5 10.5l-11 62q-3 15 -6 17.5t-16 2.5h-117q-14 0 -17 -2.5t-6 -17.5l-11 -62q-1 -7 -4.5 -10.5t-6.5 -4t-11 -0.5h-44q-7 0 -10 0.5t-5.5 4.5t-1.5 12l126 665q2 11 6 14.5t16 3.5h54q12 0 16 -3.5t6 -14.5l126 -665q2 -11 -2.5 -14
t-14.5 -3zM202 534l-57 -339q-2 -15 0 -17.5t17 -2.5h88q15 0 17 2.5t0 17.5l-57 339q-1 4 -4 4t-4 -4zM107 785q0 11 4.5 15.5t15.5 4.5h159q11 0 15.5 -4.5t4.5 -15.5v-30q0 -11 -4.5 -15.5t-15.5 -4.5h-159q-11 0 -15.5 4.5t-4.5 15.5v30z" />
    <glyph glyph-name="amacron" unicode="&#x101;" 
d="M325 0h-43q-11 0 -15.5 6t-6.5 26q-41 -36 -96 -36q-56 0 -91.5 34.5t-35.5 98.5v18q0 51 21.5 82.5t52.5 44t62.5 21.5t54 25.5t23.5 45.5q1 23 -15.5 41.5t-44.5 18.5q-26 0 -45 -19.5t-19 -52.5q0 -12 -4 -16.5t-16 -4.5h-38q-11 0 -15 4.5t-5 15.5q-2 62 40 106.5
t103 44.5q59 0 102 -42.5t43 -111.5v-281q1 -21 8 -49q4 -20 -20 -20zM187 74q66 3 66 82v100q-17 -8 -47.5 -21t-39.5 -18t-23.5 -17t-18 -25.5t-3.5 -35.5q0 -12 3 -25t19 -27t44 -13zM93 599q0 11 4.5 15.5t15.5 4.5h159q11 0 15.5 -4.5t4.5 -15.5v-30q0 -11 -4.5 -15.5
t-15.5 -4.5h-159q-11 0 -15.5 4.5t-4.5 15.5v30z" />
    <glyph glyph-name="Abreve" unicode="&#x102;" horiz-adv-x="412" 
d="M364 0h-44q-8 0 -11 0.5t-6.5 4t-4.5 10.5l-11 62q-3 15 -6 17.5t-16 2.5h-117q-14 0 -17 -2.5t-6 -17.5l-11 -62q-1 -7 -4.5 -10.5t-6.5 -4t-11 -0.5h-44q-7 0 -10 0.5t-5.5 4.5t-1.5 12l126 665q2 11 6 14.5t16 3.5h54q12 0 16 -3.5t6 -14.5l126 -665q2 -11 -2.5 -14
t-14.5 -3zM202 534l-57 -339q-2 -15 0 -17.5t17 -2.5h88q15 0 17 2.5t0 17.5l-57 339q-1 4 -4 4t-4 -4zM206 731q-45 0 -78 29.5t-36 84.5q-1 14 2.5 17t16.5 3h19q12 0 15.5 -2.5t4.5 -14.5q6 -60 56 -60t56 60q1 12 4.5 14.5t15.5 2.5h19q10 0 13 -1t5 -5t1 -14
q-3 -55 -36 -84.5t-78 -29.5z" />
    <glyph glyph-name="abreve" unicode="&#x103;" 
d="M325 0h-43q-11 0 -15.5 6t-6.5 26q-41 -36 -96 -36q-56 0 -91.5 34.5t-35.5 98.5v18q0 51 21.5 82.5t52.5 44t62.5 21.5t54 25.5t23.5 45.5q1 23 -15.5 41.5t-44.5 18.5q-26 0 -45 -19.5t-19 -52.5q0 -12 -4 -16.5t-16 -4.5h-38q-11 0 -15 4.5t-5 15.5q-2 62 40 106.5
t103 44.5q59 0 102 -42.5t43 -111.5v-281q1 -21 8 -49q4 -20 -20 -20zM187 74q66 3 66 82v100q-17 -8 -47.5 -21t-39.5 -18t-23.5 -17t-18 -25.5t-3.5 -35.5q0 -12 3 -25t19 -27t44 -13zM195 545q-45 0 -78 29.5t-36 84.5q-1 14 2.5 17t16.5 3h19q12 0 15.5 -2.5t4.5 -14.5
q6 -60 56 -60t56 60q1 12 4.5 14.5t15.5 2.5h19q10 0 13 -1t5 -5t1 -14q-3 -55 -36 -84.5t-78 -29.5z" />
    <glyph glyph-name="Aogonek" unicode="&#x104;" horiz-adv-x="412" 
d="M364 0h-2l-4 -7q-14 -23 -0.5 -35.5t34.5 -16.5q11 -2 9 -12l-13 -55q-2 -10 -13 -8q-50 8 -69.5 46.5t8.5 83.5q0 2 2 4q-16 0 -18 15l-11 62q-3 15 -6 17.5t-16 2.5h-117q-14 0 -17 -2.5t-6 -17.5l-11 -62q-1 -7 -4.5 -10.5t-6.5 -4t-11 -0.5h-44q-7 0 -10 0.5
t-5.5 4.5t-1.5 12l126 665q2 11 6 14.5t16 3.5h54q12 0 16 -3.5t6 -14.5l126 -665q2 -11 -2.5 -14t-14.5 -3zM202 534l-57 -339q-2 -15 0 -17.5t17 -2.5h88q15 0 17 2.5t0 17.5l-57 339q-1 4 -4 4t-4 -4z" />
    <glyph glyph-name="aogonek" unicode="&#x105;" 
d="M325 0h-12l-4 -7q-14 -23 -0.5 -35.5t34.5 -16.5q11 -2 9 -12l-13 -55q-2 -10 -13 -8q-50 8 -69.5 46.5t8.5 83.5l4 7q-6 5 -9 29q-41 -36 -96 -36q-56 0 -91.5 34.5t-35.5 98.5v18q0 51 21.5 82.5t52.5 44t62.5 21.5t54 25.5t23.5 45.5q1 23 -15.5 41.5t-44.5 18.5
q-26 0 -45 -19.5t-19 -52.5q0 -12 -4 -16.5t-16 -4.5h-38q-11 0 -15 4.5t-5 15.5q-2 62 40 106.5t103 44.5q59 0 102 -42.5t43 -111.5v-281q1 -21 8 -49q4 -20 -20 -20zM187 74q66 3 66 82v100q-17 -8 -47.5 -21t-39.5 -18t-23.5 -17t-18 -25.5t-3.5 -35.5q0 -12 3 -25
t19 -27t44 -13z" />
    <glyph glyph-name="Cacute" unicode="&#x106;" horiz-adv-x="395" 
d="M124 518v-336q0 -108 76 -108q68 0 75 87q1 16 5 21t15 5h44q22 0 20 -29q-7 -83 -51.5 -122.5t-107.5 -39.5q-69 0 -114.5 46.5t-45.5 143.5v328q0 97 45.5 143.5t114.5 46.5q63 0 107.5 -39.5t51.5 -122.5q2 -29 -20 -29h-44q-11 0 -15 5t-5 21q-7 87 -75 87
q-76 0 -76 -108zM180 735q-10 0 -10 10v98q0 12 4.5 16.5t16.5 4.5h51q23 0 13 -27l-30 -85q-4 -11 -6.5 -14t-10.5 -3h-28z" />
    <glyph glyph-name="cacute" unicode="&#x107;" horiz-adv-x="376" 
d="M124 347v-194q0 -38 18.5 -58.5t47.5 -20.5q27 0 45.5 18t19.5 49q1 14 4.5 20t15.5 6h40q11 0 15 -4.5t5 -15.5q3 -52 -35 -101.5t-110 -49.5q-62 0 -106 44.5t-44 139.5v140q0 95 44 139.5t106 44.5q72 0 110 -49.5t35 -101.5q-1 -11 -5 -15.5t-15 -4.5h-40
q-12 0 -15.5 6t-4.5 20q-1 31 -19.5 49t-45.5 18q-29 0 -47.5 -20.5t-18.5 -58.5zM175 549q-10 0 -10 10v98q0 12 4.5 16.5t16.5 4.5h51q23 0 13 -27l-30 -85q-4 -11 -7 -14t-10 -3h-28z" />
    <glyph glyph-name="Ccircumflex" unicode="&#x108;" horiz-adv-x="395" 
d="M124 518v-336q0 -108 76 -108q68 0 75 87q1 16 5 21t15 5h44q22 0 20 -29q-7 -83 -51.5 -122.5t-107.5 -39.5q-69 0 -114.5 46.5t-45.5 143.5v328q0 97 45.5 143.5t114.5 46.5q63 0 107.5 -39.5t51.5 -122.5q2 -29 -20 -29h-44q-11 0 -15 5t-5 21q-7 87 -75 87
q-76 0 -76 -108zM222 746l-17 62q-1 4 -4 4t-4 -4l-17 -62q-3 -11 -13 -11h-53q-7 0 -8.5 5.5t2.5 12.5l64 104q5 7 15 7h28q10 0 15 -7l64 -104q4 -7 2.5 -12.5t-8.5 -5.5h-53q-10 0 -13 11z" />
    <glyph glyph-name="ccircumflex" unicode="&#x109;" horiz-adv-x="376" 
d="M124 347v-194q0 -38 18.5 -58.5t47.5 -20.5q27 0 45.5 18t19.5 49q1 14 4.5 20t15.5 6h40q11 0 15 -4.5t5 -15.5q3 -52 -35 -101.5t-110 -49.5q-62 0 -106 44.5t-44 139.5v140q0 95 44 139.5t106 44.5q72 0 110 -49.5t35 -101.5q-1 -11 -5 -15.5t-15 -4.5h-40
q-12 0 -15.5 6t-4.5 20q-1 31 -19.5 49t-45.5 18q-29 0 -47.5 -20.5t-18.5 -58.5zM210 560l-17 62q-1 4 -4 4t-4 -4l-17 -62q-3 -11 -13 -11h-53q-7 0 -8.5 5.5t2.5 12.5l64 104q5 7 15 7h28q10 0 15 -7l64 -104q4 -7 2.5 -12.5t-8.5 -5.5h-53q-10 0 -13 11z" />
    <glyph glyph-name="Cdotaccent" unicode="&#x10a;" horiz-adv-x="395" 
d="M124 518v-336q0 -108 76 -108q68 0 75 87q1 16 5 21t15 5h44q22 0 20 -29q-7 -83 -51.5 -122.5t-107.5 -39.5q-69 0 -114.5 46.5t-45.5 143.5v328q0 97 45.5 143.5t114.5 46.5q63 0 107.5 -39.5t51.5 -122.5q2 -29 -20 -29h-44q-11 0 -15 5t-5 21q-7 87 -75 87
q-76 0 -76 -108zM152 780q0 20 14 34t34 14t34.5 -14t14.5 -34t-14.5 -34.5t-34.5 -14.5t-34 14.5t-14 34.5z" />
    <glyph glyph-name="cdotaccent" unicode="&#x10b;" horiz-adv-x="376" 
d="M124 347v-194q0 -38 18.5 -58.5t47.5 -20.5q27 0 45.5 18t19.5 49q1 14 4.5 20t15.5 6h40q11 0 15 -4.5t5 -15.5q3 -52 -35 -101.5t-110 -49.5q-62 0 -106 44.5t-44 139.5v140q0 95 44 139.5t106 44.5q72 0 110 -49.5t35 -101.5q-1 -11 -5 -15.5t-15 -4.5h-40
q-12 0 -15.5 6t-4.5 20q-1 31 -19.5 49t-45.5 18q-29 0 -47.5 -20.5t-18.5 -58.5zM141 594q0 20 14 34t34 14t34.5 -14t14.5 -34t-14.5 -34.5t-34.5 -14.5t-34 14.5t-14 34.5z" />
    <glyph glyph-name="Ccaron" unicode="&#x10c;" horiz-adv-x="395" 
d="M124 518v-336q0 -108 76 -108q68 0 75 87q1 16 5 21t15 5h44q22 0 20 -29q-7 -83 -51.5 -122.5t-107.5 -39.5q-69 0 -114.5 46.5t-45.5 143.5v328q0 97 45.5 143.5t114.5 46.5q63 0 107.5 -39.5t51.5 -122.5q2 -29 -20 -29h-44q-11 0 -15 5t-5 21q-7 87 -75 87
q-76 0 -76 -108zM206 791l17 62q3 11 13 11h53q7 0 8.5 -5t-2.5 -13l-64 -104q-5 -7 -15 -7h-28q-10 0 -15 7l-64 104q-4 8 -2.5 13t8.5 5h53q10 0 13 -11l17 -62q1 -4 4 -4t4 4z" />
    <glyph glyph-name="ccaron" unicode="&#x10d;" horiz-adv-x="376" 
d="M124 347v-194q0 -38 18.5 -58.5t47.5 -20.5q27 0 45.5 18t19.5 49q1 14 4.5 20t15.5 6h40q11 0 15 -4.5t5 -15.5q3 -52 -35 -101.5t-110 -49.5q-62 0 -106 44.5t-44 139.5v140q0 95 44 139.5t106 44.5q72 0 110 -49.5t35 -101.5q-1 -11 -5 -15.5t-15 -4.5h-40
q-12 0 -15.5 6t-4.5 20q-1 31 -19.5 49t-45.5 18q-29 0 -47.5 -20.5t-18.5 -58.5zM193 605l17 62q3 11 13 11h53q7 0 8.5 -5t-2.5 -13l-64 -104q-5 -7 -15 -7h-28q-10 0 -15 7l-64 104q-4 8 -2.5 13t8.5 5h53q10 0 13 -11l17 -62q1 -4 4 -4t4 4z" />
    <glyph glyph-name="Dcaron" unicode="&#x10e;" horiz-adv-x="390" 
d="M70 700h120q69 0 114.5 -46.5t45.5 -143.5v-320q0 -97 -45.5 -143.5t-114.5 -46.5h-120q-11 0 -15.5 4.5t-4.5 15.5v660q0 11 4.5 15.5t15.5 4.5zM134 99q0 -16 2.5 -18.5t17.5 -2.5h36q76 0 76 108v328q0 108 -76 108h-36q-15 0 -17.5 -2.5t-2.5 -17.5v-503zM189 791
l17 62q3 11 13 11h53q7 0 8.5 -5t-2.5 -13l-64 -104q-5 -7 -15 -7h-28q-10 0 -15 7l-64 104q-4 8 -2.5 13t8.5 5h53q10 0 13 -11l17 -62q1 -4 4 -4t4 4z" />
    <glyph glyph-name="dcaron" unicode="&#x10f;" horiz-adv-x="510" 
d="M248 150v200q0 41 -18.5 58.5t-43.5 17.5t-43.5 -17.5t-18.5 -58.5v-200q0 -41 18.5 -58.5t43.5 -17.5t43.5 17.5t18.5 58.5zM312 0h-44q-11 0 -15.5 4.5t-4.5 15.5v13q-26 -34 -74 -37q-60 -2 -97 40t-37 130v168q0 88 37 130t97 40q47 -3 74 -38v214q0 11 4.5 15.5
t15.5 4.5h44q11 0 15.5 -4.5t4.5 -15.5v-660q0 -11 -4.5 -15.5t-15.5 -4.5zM381 699q0 21 14.5 36t36.5 15q15 0 27.5 -8.5t19 -25.5t5 -39t-16.5 -52t-44 -61q-7 -7 -15 -1l-11 9q-7 6 -3 13q20 27 22 43.5t-6.5 22.5t-18.5 18.5t-10 29.5z" />
    <glyph glyph-name="Dcroat" unicode="&#x110;" horiz-adv-x="390" 
d="M50 412q0 10 -10 10q-11 0 -15.5 4.5t-4.5 15.5v38q0 11 4.5 15.5t15.5 4.5q10 0 10 10v170q0 11 4.5 15.5t15.5 4.5h120q69 0 114.5 -46.5t45.5 -143.5v-320q0 -97 -45.5 -143.5t-114.5 -46.5h-120q-11 0 -15.5 4.5t-4.5 15.5v392zM134 412v-313q0 -16 2.5 -18.5
t17.5 -2.5h36q76 0 76 108v328q0 108 -76 108h-36q-15 0 -17.5 -2.5t-2.5 -17.5v-92q0 -10 10 -10h41q11 0 15.5 -4.5t4.5 -15.5v-38q0 -11 -4.5 -15.5t-15.5 -4.5h-41q-10 0 -10 -10z" />
    <glyph glyph-name="dcroat" unicode="&#x111;" 
d="M332 639q0 -10 10 -10q11 0 15.5 -4.5t4.5 -15.5v-28q0 -11 -4.5 -15.5t-15.5 -4.5q-10 0 -10 -10v-531q0 -11 -4.5 -15.5t-15.5 -4.5h-44q-11 0 -15.5 4.5t-4.5 15.5v13q-26 -34 -74 -37q-60 -2 -97 40t-37 130v168q0 88 37 130t97 40q47 -3 74 -38v85q0 10 -10 10h-90
q-11 0 -15.5 4.5t-4.5 15.5v28q0 11 4.5 15.5t15.5 4.5h90q10 0 10 10v41q0 11 4.5 15.5t15.5 4.5h44q11 0 15.5 -4.5t4.5 -15.5v-41zM248 150v200q0 41 -18.5 58.5t-43.5 17.5t-43.5 -17.5t-18.5 -58.5v-200q0 -41 18.5 -58.5t43.5 -17.5t43.5 17.5t18.5 58.5z" />
    <glyph glyph-name="Emacron" unicode="&#x112;" horiz-adv-x="341" 
d="M70 0q-11 0 -15.5 4.5t-4.5 15.5v660q0 11 4.5 15.5t15.5 4.5h211q11 0 15.5 -4.5t4.5 -15.5v-38q0 -11 -4.5 -15.5t-15.5 -4.5h-127q-15 0 -17.5 -2.5t-2.5 -17.5v-174q0 -15 2.5 -17.5t17.5 -2.5h127q11 0 15.5 -4.5t4.5 -15.5v-38q0 -11 -4.5 -15.5t-15.5 -4.5h-127
q-15 0 -17.5 -2.5t-2.5 -17.5v-212q0 -15 2.5 -17.5t17.5 -2.5h127q11 0 15.5 -4.5t4.5 -15.5v-38q0 -11 -4.5 -15.5t-15.5 -4.5h-211zM76 785q0 11 4.5 15.5t15.5 4.5h159q11 0 15.5 -4.5t4.5 -15.5v-30q0 -11 -4.5 -15.5t-15.5 -4.5h-159q-11 0 -15.5 4.5t-4.5 15.5v30z
" />
    <glyph glyph-name="emacron" unicode="&#x113;" horiz-adv-x="380" 
d="M40 180v140q0 95 44 139.5t106 44.5t106 -44.5t44 -139.5v-67q0 -12 -4.5 -16t-16.5 -4h-175q-11 0 -15.5 -4.5t-4.5 -15.5v-60q0 -38 18.5 -58.5t47.5 -20.5q27 0 45.5 18t19.5 49q1 14 4.5 20t15.5 6h40q11 0 15 -4.5t5 -15.5q3 -52 -35 -101.5t-110 -49.5
q-62 0 -106 44.5t-44 139.5zM256 347q0 38 -18.5 58.5t-47.5 20.5t-47.5 -20.5t-18.5 -58.5v-20q0 -11 4.5 -15.5t15.5 -4.5h92q11 0 15.5 4.5t4.5 15.5v20zM90 599q0 11 4.5 15.5t15.5 4.5h159q11 0 15.5 -4.5t4.5 -15.5v-30q0 -11 -4.5 -15.5t-15.5 -4.5h-159
q-11 0 -15.5 4.5t-4.5 15.5v30z" />
    <glyph glyph-name="Ebreve" unicode="&#x114;" horiz-adv-x="341" 
d="M70 0q-11 0 -15.5 4.5t-4.5 15.5v660q0 11 4.5 15.5t15.5 4.5h211q11 0 15.5 -4.5t4.5 -15.5v-38q0 -11 -4.5 -15.5t-15.5 -4.5h-127q-15 0 -17.5 -2.5t-2.5 -17.5v-174q0 -15 2.5 -17.5t17.5 -2.5h127q11 0 15.5 -4.5t4.5 -15.5v-38q0 -11 -4.5 -15.5t-15.5 -4.5h-127
q-15 0 -17.5 -2.5t-2.5 -17.5v-212q0 -15 2.5 -17.5t17.5 -2.5h127q11 0 15.5 -4.5t4.5 -15.5v-38q0 -11 -4.5 -15.5t-15.5 -4.5h-211zM173 731q-45 0 -78 29.5t-36 84.5q-1 14 2 17t17 3h19q12 0 15.5 -2.5t4.5 -14.5q6 -60 56 -60t56 60q1 12 4.5 14.5t15.5 2.5h19
q10 0 13 -1t5 -5t1 -14q-3 -55 -36 -84.5t-78 -29.5z" />
    <glyph glyph-name="ebreve" unicode="&#x115;" horiz-adv-x="380" 
d="M40 180v140q0 95 44 139.5t106 44.5t106 -44.5t44 -139.5v-67q0 -12 -4.5 -16t-16.5 -4h-175q-11 0 -15.5 -4.5t-4.5 -15.5v-60q0 -38 18.5 -58.5t47.5 -20.5q27 0 45.5 18t19.5 49q1 14 4.5 20t15.5 6h40q11 0 15 -4.5t5 -15.5q3 -52 -35 -101.5t-110 -49.5
q-62 0 -106 44.5t-44 139.5zM256 347q0 38 -18.5 58.5t-47.5 20.5t-47.5 -20.5t-18.5 -58.5v-20q0 -11 4.5 -15.5t15.5 -4.5h92q11 0 15.5 4.5t4.5 15.5v20zM189 545q-45 0 -78 29.5t-36 84.5q-1 14 2 17t17 3h19q12 0 15.5 -2.5t4.5 -14.5q6 -60 56 -60t56 60
q1 12 4.5 14.5t15.5 2.5h19q10 0 13 -1t5 -5t1 -14q-3 -55 -36 -84.5t-78 -29.5z" />
    <glyph glyph-name="Edotaccent" unicode="&#x116;" horiz-adv-x="341" 
d="M70 0q-11 0 -15.5 4.5t-4.5 15.5v660q0 11 4.5 15.5t15.5 4.5h211q11 0 15.5 -4.5t4.5 -15.5v-38q0 -11 -4.5 -15.5t-15.5 -4.5h-127q-15 0 -17.5 -2.5t-2.5 -17.5v-174q0 -15 2.5 -17.5t17.5 -2.5h127q11 0 15.5 -4.5t4.5 -15.5v-38q0 -11 -4.5 -15.5t-15.5 -4.5h-127
q-15 0 -17.5 -2.5t-2.5 -17.5v-212q0 -15 2.5 -17.5t17.5 -2.5h127q11 0 15.5 -4.5t4.5 -15.5v-38q0 -11 -4.5 -15.5t-15.5 -4.5h-211zM129 780q0 20 14 34t34 14t34.5 -14t14.5 -34t-14.5 -34.5t-34.5 -14.5t-34 14.5t-14 34.5z" />
    <glyph glyph-name="edotaccent" unicode="&#x117;" horiz-adv-x="380" 
d="M40 180v140q0 95 44 139.5t106 44.5t106 -44.5t44 -139.5v-67q0 -12 -4.5 -16t-16.5 -4h-175q-11 0 -15.5 -4.5t-4.5 -15.5v-60q0 -38 18.5 -58.5t47.5 -20.5q27 0 45.5 18t19.5 49q1 14 4.5 20t15.5 6h40q11 0 15 -4.5t5 -15.5q3 -52 -35 -101.5t-110 -49.5
q-62 0 -106 44.5t-44 139.5zM256 347q0 38 -18.5 58.5t-47.5 20.5t-47.5 -20.5t-18.5 -58.5v-20q0 -11 4.5 -15.5t15.5 -4.5h92q11 0 15.5 4.5t4.5 15.5v20zM143 594q0 20 14 34t34 14t34.5 -14t14.5 -34t-14.5 -34.5t-34.5 -14.5t-34 14.5t-14 34.5z" />
    <glyph glyph-name="Eogonek" unicode="&#x118;" horiz-adv-x="341" 
d="M70 0q-11 0 -15.5 4.5t-4.5 15.5v660q0 11 4.5 15.5t15.5 4.5h211q11 0 15.5 -4.5t4.5 -15.5v-38q0 -11 -4.5 -15.5t-15.5 -4.5h-127q-15 0 -17.5 -2.5t-2.5 -17.5v-174q0 -15 2.5 -17.5t17.5 -2.5h127q11 0 15.5 -4.5t4.5 -15.5v-38q0 -11 -4.5 -15.5t-15.5 -4.5h-127
q-15 0 -17.5 -2.5t-2.5 -17.5v-212q0 -15 2.5 -17.5t17.5 -2.5h127q11 0 15.5 -4.5t4.5 -15.5v-38q0 -11 -4.5 -15.5t-15.5 -4.5h-23l-4 -7q-14 -23 -0.5 -35.5t34.5 -16.5q11 -2 9 -12l-13 -55q-2 -10 -13 -8q-50 8 -69.5 46.5t8.5 83.5q0 2 2 4h-142z" />
    <glyph glyph-name="eogonek" unicode="&#x119;" horiz-adv-x="380" 
d="M40 180v140q0 95 44 139.5t106 44.5t106 -44.5t44 -139.5v-67q0 -12 -4.5 -16t-16.5 -4h-175q-11 0 -15.5 -4.5t-4.5 -15.5v-60q0 -38 18.5 -58.5t47.5 -20.5q27 0 45.5 18t19.5 49q1 14 4.5 20t15.5 6h40q11 0 15 -4.5t5 -15.5q1 -28 -9.5 -58t-38.5 -56.5t-67 -33.5
q-3 -3 -3 -6q-14 -23 -0.5 -35.5t34.5 -16.5q11 -2 9 -12l-13 -55q-2 -10 -13 -8q-50 8 -69.5 46.5t8.5 83.5v1q-56 5 -94.5 49.5t-38.5 133.5zM256 347q0 38 -18.5 58.5t-47.5 20.5t-47.5 -20.5t-18.5 -58.5v-20q0 -11 4.5 -15.5t15.5 -4.5h92q11 0 15.5 4.5t4.5 15.5v20z
" />
    <glyph glyph-name="Ecaron" unicode="&#x11a;" horiz-adv-x="341" 
d="M70 0q-11 0 -15.5 4.5t-4.5 15.5v660q0 11 4.5 15.5t15.5 4.5h211q11 0 15.5 -4.5t4.5 -15.5v-38q0 -11 -4.5 -15.5t-15.5 -4.5h-127q-15 0 -17.5 -2.5t-2.5 -17.5v-174q0 -15 2.5 -17.5t17.5 -2.5h127q11 0 15.5 -4.5t4.5 -15.5v-38q0 -11 -4.5 -15.5t-15.5 -4.5h-127
q-15 0 -17.5 -2.5t-2.5 -17.5v-212q0 -15 2.5 -17.5t17.5 -2.5h127q11 0 15.5 -4.5t4.5 -15.5v-38q0 -11 -4.5 -15.5t-15.5 -4.5h-211zM180 791l17 62q3 11 13 11h53q7 0 8.5 -5t-2.5 -13l-64 -104q-5 -7 -15 -7h-28q-10 0 -15 7l-64 104q-4 8 -2.5 13t8.5 5h53q10 0 13 -11
l17 -62q1 -4 4 -4t4 4z" />
    <glyph glyph-name="ecaron" unicode="&#x11b;" horiz-adv-x="380" 
d="M40 180v140q0 95 44 139.5t106 44.5t106 -44.5t44 -139.5v-67q0 -12 -4.5 -16t-16.5 -4h-175q-11 0 -15.5 -4.5t-4.5 -15.5v-60q0 -38 18.5 -58.5t47.5 -20.5q27 0 45.5 18t19.5 49q1 14 4.5 20t15.5 6h40q11 0 15 -4.5t5 -15.5q3 -52 -35 -101.5t-110 -49.5
q-62 0 -106 44.5t-44 139.5zM256 347q0 38 -18.5 58.5t-47.5 20.5t-47.5 -20.5t-18.5 -58.5v-20q0 -11 4.5 -15.5t15.5 -4.5h92q11 0 15.5 4.5t4.5 15.5v20zM195 601l17 62q3 11 13 11h53q7 0 8.5 -5t-2.5 -13l-64 -104q-5 -7 -15 -7h-28q-10 0 -15 7l-64 104q-4 8 -2.5 13
t8.5 5h53q10 0 13 -11l17 -62q1 -4 4 -4t4 4z" />
    <glyph glyph-name="Gcircumflex" unicode="&#x11c;" horiz-adv-x="400" 
d="M124 518v-336q0 -108 76 -108q68 0 75 87q0 2 0.5 6.5t0.5 5.5v137q0 15 -2.5 17.5t-17.5 2.5h-8q-12 0 -16 4t-4 16v38q0 11 4 15.5t16 4.5h92q11 0 15.5 -4.5t4.5 -15.5v-202q0 -95 -44.5 -142.5t-115.5 -47.5q-69 0 -114.5 46.5t-45.5 143.5v328q0 97 45.5 143.5
t114.5 46.5q63 0 107.5 -39.5t51.5 -122.5q2 -29 -20 -29h-44q-11 0 -15 5t-5 21q-7 87 -75 87q-76 0 -76 -108zM223 746l-17 62q-1 4 -4 4t-4 -4l-17 -62q-3 -11 -13 -11h-53q-7 0 -8.5 5.5t2.5 12.5l64 104q5 7 15 7h28q10 0 15 -7l64 -104q4 -7 2.5 -12.5t-8.5 -5.5h-53
q-10 0 -13 11z" />
    <glyph glyph-name="gcircumflex" unicode="&#x11d;" 
d="M57 -67l40 13q18 6 25 -10q16 -41 60 -41q29 0 47.5 20.5t18.5 58.5v60q-27 -35 -74 -38q-60 -2 -97 40t-37 130v168q0 88 37 130t97 40q48 -3 74 -37v13q0 11 4.5 15.5t15.5 4.5h44q11 0 15.5 -4.5t4.5 -15.5v-479q0 -95 -44 -139.5t-106 -44.5q-99 0 -136 95
q-7 16 11 21zM248 150v200q0 41 -18.5 58.5t-43.5 17.5t-43.5 -17.5t-18.5 -58.5v-200q0 -41 18.5 -58.5t43.5 -17.5t43.5 17.5t18.5 58.5zM207 560l-17 62q-1 4 -4 4t-4 -4l-17 -62q-3 -11 -13 -11h-53q-7 0 -8.5 5.5t2.5 12.5l64 104q5 7 15 7h28q10 0 15 -7l64 -104
q4 -7 2.5 -12.5t-8.5 -5.5h-53q-10 0 -13 11z" />
    <glyph glyph-name="Gbreve" unicode="&#x11e;" horiz-adv-x="400" 
d="M124 518v-336q0 -108 76 -108q68 0 75 87q0 2 0.5 6.5t0.5 5.5v137q0 15 -2.5 17.5t-17.5 2.5h-8q-12 0 -16 4t-4 16v38q0 11 4 15.5t16 4.5h92q11 0 15.5 -4.5t4.5 -15.5v-202q0 -95 -44.5 -142.5t-115.5 -47.5q-69 0 -114.5 46.5t-45.5 143.5v328q0 97 45.5 143.5
t114.5 46.5q63 0 107.5 -39.5t51.5 -122.5q2 -29 -20 -29h-44q-11 0 -15 5t-5 21q-7 87 -75 87q-76 0 -76 -108zM202 731q-45 0 -78 29.5t-36 84.5q-1 14 2.5 17t16.5 3h19q12 0 15.5 -2.5t4.5 -14.5q6 -60 56 -60t56 60q1 12 4.5 14.5t15.5 2.5h19q10 0 13 -1t5 -5t1 -14
q-3 -55 -36 -84.5t-78 -29.5z" />
    <glyph glyph-name="gbreve" unicode="&#x11f;" 
d="M57 -67l40 13q18 6 25 -10q16 -41 60 -41q29 0 47.5 20.5t18.5 58.5v60q-27 -35 -74 -38q-60 -2 -97 40t-37 130v168q0 88 37 130t97 40q48 -3 74 -37v13q0 11 4.5 15.5t15.5 4.5h44q11 0 15.5 -4.5t4.5 -15.5v-479q0 -95 -44 -139.5t-106 -44.5q-99 0 -136 95
q-7 16 11 21zM248 150v200q0 41 -18.5 58.5t-43.5 17.5t-43.5 -17.5t-18.5 -58.5v-200q0 -41 18.5 -58.5t43.5 -17.5t43.5 17.5t18.5 58.5zM187 545q-45 0 -78 29.5t-36 84.5q-1 14 2 17t17 3h19q12 0 15.5 -2.5t4.5 -14.5q6 -60 56 -60t56 60q1 12 4.5 14.5t15.5 2.5h19
q10 0 13 -1t5 -5t1 -14q-3 -55 -36 -84.5t-78 -29.5z" />
    <glyph glyph-name="Gdotaccent" unicode="&#x120;" horiz-adv-x="400" 
d="M124 518v-336q0 -108 76 -108q68 0 75 87q0 2 0.5 6.5t0.5 5.5v137q0 15 -2.5 17.5t-17.5 2.5h-8q-12 0 -16 4t-4 16v38q0 11 4 15.5t16 4.5h92q11 0 15.5 -4.5t4.5 -15.5v-202q0 -95 -44.5 -142.5t-115.5 -47.5q-69 0 -114.5 46.5t-45.5 143.5v328q0 97 45.5 143.5
t114.5 46.5q63 0 107.5 -39.5t51.5 -122.5q2 -29 -20 -29h-44q-11 0 -15 5t-5 21q-7 87 -75 87q-76 0 -76 -108zM153 781q0 20 14 34t34 14t34.5 -14t14.5 -34t-14.5 -34.5t-34.5 -14.5t-34 14.5t-14 34.5z" />
    <glyph glyph-name="gdotaccent" unicode="&#x121;" 
d="M57 -67l40 13q18 6 25 -10q16 -41 60 -41q29 0 47.5 20.5t18.5 58.5v60q-27 -35 -74 -38q-60 -2 -97 40t-37 130v168q0 88 37 130t97 40q48 -3 74 -37v13q0 11 4.5 15.5t15.5 4.5h44q11 0 15.5 -4.5t4.5 -15.5v-479q0 -95 -44 -139.5t-106 -44.5q-99 0 -136 95
q-7 16 11 21zM248 150v200q0 41 -18.5 58.5t-43.5 17.5t-43.5 -17.5t-18.5 -58.5v-200q0 -41 18.5 -58.5t43.5 -17.5t43.5 17.5t18.5 58.5zM140 594q0 20 14 34t34 14t34.5 -14t14.5 -34t-14.5 -34.5t-34.5 -14.5t-34 14.5t-14 34.5z" />
    <glyph glyph-name="Gcommaaccent" unicode="&#x122;" horiz-adv-x="400" 
d="M124 518v-336q0 -108 76 -108q68 0 75 87q0 2 0.5 6.5t0.5 5.5v137q0 15 -2.5 17.5t-17.5 2.5h-8q-12 0 -16 4t-4 16v38q0 11 4 15.5t16 4.5h92q11 0 15.5 -4.5t4.5 -15.5v-202q0 -95 -44.5 -142.5t-115.5 -47.5q-69 0 -114.5 46.5t-45.5 143.5v328q0 97 45.5 143.5
t114.5 46.5q63 0 107.5 -39.5t51.5 -122.5q2 -29 -20 -29h-44q-11 0 -15 5t-5 21q-7 87 -75 87q-76 0 -76 -108zM152 -83q0 21 14.5 36t36.5 15q15 0 27.5 -8.5t19 -25.5t5 -39t-16.5 -52t-44 -61q-7 -7 -15 -1l-11 9q-7 6 -3 13q20 27 22 43.5t-6.5 22.5t-18.5 18.5
t-10 29.5z" />
    <glyph glyph-name="gcommaaccent" unicode="&#x123;" 
d="M57 -67l40 13q18 6 25 -10q16 -41 60 -41q29 0 47.5 20.5t18.5 58.5v60q-27 -35 -74 -38q-60 -2 -97 40t-37 130v168q0 88 37 130t97 40q48 -3 74 -37v13q0 11 4.5 15.5t15.5 4.5h44q11 0 15.5 -4.5t4.5 -15.5v-479q0 -95 -44 -139.5t-106 -44.5q-99 0 -136 95
q-7 16 11 21zM248 150v200q0 41 -18.5 58.5t-43.5 17.5t-43.5 -17.5t-18.5 -58.5v-200q0 -41 18.5 -58.5t43.5 -17.5t43.5 17.5t18.5 58.5zM235 596q0 -21 -14.5 -36t-36.5 -15q-15 0 -27.5 8.5t-19 25.5t-5 39t16.5 52t44 61q7 7 15 1l11 -9q7 -6 3 -13q-20 -27 -22 -43.5
t6.5 -22.5t18.5 -18.5t10 -29.5z" />
    <glyph glyph-name="Hcircumflex" unicode="&#x124;" horiz-adv-x="400" 
d="M134 310v-290q0 -11 -4.5 -15.5t-15.5 -4.5h-44q-11 0 -15.5 4.5t-4.5 15.5v660q0 11 4.5 15.5t15.5 4.5h44q11 0 15.5 -4.5t4.5 -15.5v-252q0 -15 2.5 -17.5t17.5 -2.5h92q15 0 17.5 2.5t2.5 17.5v252q0 11 4.5 15.5t15.5 4.5h44q11 0 15.5 -4.5t4.5 -15.5v-660
q0 -11 -4.5 -15.5t-15.5 -4.5h-44q-11 0 -15.5 4.5t-4.5 15.5v290q0 15 -2.5 17.5t-17.5 2.5h-92q-15 0 -17.5 -2.5t-2.5 -17.5zM222 746l-17 62q-1 4 -4 4t-4 -4l-17 -62q-3 -11 -13 -11h-53q-7 0 -8.5 5.5t2.5 12.5l64 104q5 7 15 7h28q10 0 15 -7l64 -104q4 -7 2.5 -12.5
t-8.5 -5.5h-53q-10 0 -13 11z" />
    <glyph glyph-name="hcircumflex" unicode="&#x125;" horiz-adv-x="387" 
d="M134 350v-330q0 -11 -4.5 -15.5t-15.5 -4.5h-44q-11 0 -15.5 4.5t-4.5 15.5v660q0 11 4.5 15.5t15.5 4.5h44q11 0 15.5 -4.5t4.5 -15.5v-214q27 35 74 38q60 2 97 -40t37 -130v-314q0 -11 -4.5 -15.5t-15.5 -4.5h-44q-11 0 -15.5 4.5t-4.5 15.5v330q0 41 -18.5 58.5
t-43.5 17.5t-43.5 -17.5t-18.5 -58.5zM114 746l-17 62q-1 4 -4 4t-4 -4l-17 -62q-3 -11 -13 -11h-53q-7 0 -8.5 5.5t2.5 12.5l64 104q5 7 15 7h28q10 0 15 -7l64 -104q4 -7 2.5 -12.5t-8.5 -5.5h-53q-10 0 -13 11z" />
    <glyph glyph-name="Hbar" unicode="&#x126;" horiz-adv-x="400" 
d="M50 516q0 10 -10 10q-11 0 -15.5 4.5t-4.5 15.5v38q0 11 4.5 15.5t15.5 4.5q10 0 10 10v66q0 11 4.5 15.5t15.5 4.5h44q11 0 15.5 -4.5t4.5 -15.5v-66q0 -10 10 -10h112q10 0 10 10v66q0 11 4.5 15.5t15.5 4.5h44q11 0 15.5 -4.5t4.5 -15.5v-66q0 -10 10 -10
q11 0 15.5 -4.5t4.5 -15.5v-38q0 -11 -4.5 -15.5t-15.5 -4.5q-10 0 -10 -10v-496q0 -11 -4.5 -15.5t-15.5 -4.5h-44q-11 0 -15.5 4.5t-4.5 15.5v290q0 15 -2.5 17.5t-17.5 2.5h-92q-15 0 -17.5 -2.5t-2.5 -17.5v-290q0 -11 -4.5 -15.5t-15.5 -4.5h-44q-11 0 -15.5 4.5
t-4.5 15.5v496zM134 516v-88q0 -15 2.5 -17.5t17.5 -2.5h92q15 0 17.5 2.5t2.5 17.5v88q0 10 -10 10h-112q-10 0 -10 -10z" />
    <glyph glyph-name="hbar" unicode="&#x127;" horiz-adv-x="387" 
d="M50 542q0 10 -10 10q-11 0 -15.5 4.5t-4.5 15.5v34q0 11 4.5 15.5t15.5 4.5q10 0 10 10v44q0 11 4.5 15.5t15.5 4.5h44q11 0 15.5 -4.5t4.5 -15.5v-44q0 -10 10 -10h90q11 0 15.5 -4.5t4.5 -15.5v-34q0 -11 -4.5 -15.5t-15.5 -4.5h-90q-10 0 -10 -10v-76q27 35 74 38
q60 2 97 -40t37 -130v-314q0 -11 -4.5 -15.5t-15.5 -4.5h-44q-11 0 -15.5 4.5t-4.5 15.5v330q0 41 -18.5 58.5t-43.5 17.5t-43.5 -17.5t-18.5 -58.5v-330q0 -11 -4.5 -15.5t-15.5 -4.5h-44q-11 0 -15.5 4.5t-4.5 15.5v522z" />
    <glyph glyph-name="Itilde" unicode="&#x128;" horiz-adv-x="184" 
d="M134 20q0 -11 -4.5 -15.5t-15.5 -4.5h-44q-11 0 -15.5 4.5t-4.5 15.5v660q0 11 4.5 15.5t15.5 4.5h44q11 0 15.5 -4.5t4.5 -15.5v-660zM130 731q-16 2 -40.5 13.5t-34.5 11.5q-19 0 -25 -18q-2 -7 -8 -7h-47q-7 0 -6 6q15 81 86 76q16 -1 41 -13t34 -12q19 0 25 18
q2 7 8 7h47q7 0 6 -6q-16 -83 -86 -76z" />
    <glyph glyph-name="itilde" unicode="&#x129;" horiz-adv-x="184" 
d="M70 0q-11 0 -15.5 4.5t-4.5 15.5v460q0 11 4.5 15.5t15.5 4.5h44q11 0 15.5 -4.5t4.5 -15.5v-460q0 -11 -4.5 -15.5t-15.5 -4.5h-44zM130 549q-16 2 -40.5 13.5t-34.5 11.5q-19 0 -25 -18q-2 -7 -8 -7h-47q-7 0 -6 6q15 81 86 76q16 -1 41 -13t34 -12q19 0 25 18q2 7 8 7
h47q7 0 6 -6q-16 -83 -86 -76z" />
    <glyph glyph-name="Imacron" unicode="&#x12a;" horiz-adv-x="184" 
d="M134 20q0 -11 -4.5 -15.5t-15.5 -4.5h-44q-11 0 -15.5 4.5t-4.5 15.5v660q0 11 4.5 15.5t15.5 4.5h44q11 0 15.5 -4.5t4.5 -15.5v-660zM-7 785q0 11 4.5 15.5t15.5 4.5h159q11 0 15.5 -4.5t4.5 -15.5v-30q0 -11 -4.5 -15.5t-15.5 -4.5h-159q-11 0 -15.5 4.5t-4.5 15.5v30
z" />
    <glyph glyph-name="imacron" unicode="&#x12b;" horiz-adv-x="184" 
d="M70 0q-11 0 -15.5 4.5t-4.5 15.5v460q0 11 4.5 15.5t15.5 4.5h44q11 0 15.5 -4.5t4.5 -15.5v-460q0 -11 -4.5 -15.5t-15.5 -4.5h-44zM-7 599q0 11 4.5 15.5t15.5 4.5h159q11 0 15.5 -4.5t4.5 -15.5v-30q0 -11 -4.5 -15.5t-15.5 -4.5h-159q-11 0 -15.5 4.5t-4.5 15.5v30z
" />
    <glyph glyph-name="Ibreve" unicode="&#x12c;" horiz-adv-x="184" 
d="M134 20q0 -11 -4.5 -15.5t-15.5 -4.5h-44q-11 0 -15.5 4.5t-4.5 15.5v660q0 11 4.5 15.5t15.5 4.5h44q11 0 15.5 -4.5t4.5 -15.5v-660zM92 731q-45 0 -78 29.5t-36 84.5q-1 14 2.5 17t16.5 3h19q12 0 15.5 -2.5t4.5 -14.5q6 -60 56 -60t56 60q1 12 4.5 14.5t15.5 2.5h19
q10 0 13 -1t5 -5t1 -14q-3 -55 -36 -84.5t-78 -29.5z" />
    <glyph glyph-name="ibreve" unicode="&#x12d;" horiz-adv-x="184" 
d="M70 0q-11 0 -15.5 4.5t-4.5 15.5v460q0 11 4.5 15.5t15.5 4.5h44q11 0 15.5 -4.5t4.5 -15.5v-460q0 -11 -4.5 -15.5t-15.5 -4.5h-44zM92 545q-45 0 -78 29.5t-36 84.5q-1 14 2.5 17t16.5 3h19q12 0 15.5 -2.5t4.5 -14.5q6 -60 56 -60t56 60q1 12 4.5 14.5t15.5 2.5h19
q10 0 13 -1t5 -5t1 -14q-3 -55 -36 -84.5t-78 -29.5z" />
    <glyph glyph-name="Iogonek" unicode="&#x12e;" horiz-adv-x="184" 
d="M134 20q0 -11 -4.5 -15.5t-15.5 -4.5l-4 -7q-14 -23 -0.5 -35.5t34.5 -16.5q11 -2 9 -12l-13 -55q-2 -10 -13 -8q-50 8 -69.5 46.5t8.5 83.5q0 2 2 4q-10 0 -14 4.5t-4 15.5v660q0 11 4.5 15.5t15.5 4.5h44q11 0 15.5 -4.5t4.5 -15.5v-660z" />
    <glyph glyph-name="iogonek" unicode="&#x12f;" horiz-adv-x="184" 
d="M134 20q0 -20 -19 -20l-4 -7q-14 -23 -0.5 -35.5t34.5 -16.5q11 -2 9 -12l-13 -55q-2 -10 -13 -8q-50 8 -69.5 46.5t8.5 83.5q0 2 2 4q-19 0 -19 20v460q0 11 4.5 15.5t15.5 4.5h44q11 0 15.5 -4.5t4.5 -15.5v-460zM44 594q0 20 14 34t34 14t34.5 -14t14.5 -34
t-14.5 -34.5t-34.5 -14.5t-34 14.5t-14 34.5z" />
    <glyph glyph-name="Idotaccent" unicode="&#x130;" horiz-adv-x="184" 
d="M134 20q0 -11 -4.5 -15.5t-15.5 -4.5h-44q-11 0 -15.5 4.5t-4.5 15.5v660q0 11 4.5 15.5t15.5 4.5h44q11 0 15.5 -4.5t4.5 -15.5v-660zM44 780q0 20 14 34t34 14t34.5 -14t14.5 -34t-14.5 -34.5t-34.5 -14.5t-34 14.5t-14 34.5z" />
    <glyph glyph-name="dotlessi" unicode="&#x131;" horiz-adv-x="184" 
d="M70 0q-11 0 -15.5 4.5t-4.5 15.5v460q0 11 4.5 15.5t15.5 4.5h44q11 0 15.5 -4.5t4.5 -15.5v-460q0 -11 -4.5 -15.5t-15.5 -4.5h-44z" />
    <glyph glyph-name="IJ" unicode="&#x132;" horiz-adv-x="372" 
d="M134 20q0 -11 -4.5 -15.5t-15.5 -4.5h-44q-11 0 -15.5 4.5t-4.5 15.5v660q0 11 4.5 15.5t15.5 4.5h44q11 0 15.5 -4.5t4.5 -15.5v-660zM179 78q19 1 31.5 9t19 17t9.5 27.5t3.5 30.5t0.5 36v482q0 11 4.5 15.5t15.5 4.5h44q11 0 15.5 -4.5t4.5 -15.5v-480
q0 -114 -31.5 -157t-116.5 -43q-11 0 -15.5 4.5t-4.5 15.5v38q0 11 4.5 15t15.5 5z" />
    <glyph glyph-name="ij" unicode="&#x133;" horiz-adv-x="363" 
d="M70 0q-11 0 -15.5 4.5t-4.5 15.5v460q0 11 4.5 15.5t15.5 4.5h44q11 0 15.5 -4.5t4.5 -15.5v-460q0 -11 -4.5 -15.5t-15.5 -4.5h-44zM44 594q0 20 14 34t34 14t34.5 -14t14.5 -34t-14.5 -34.5t-34.5 -14.5t-34 14.5t-14 34.5zM168 -161v38q0 18 18 22q27 5 35 28.5
t8 66.5v486q0 11 4.5 15.5t15.5 4.5h44q11 0 15.5 -4.5t4.5 -15.5v-485q-1 -89 -29 -129.5t-92 -45.5q-8 0 -12.5 1t-8 5t-3.5 13zM223 594q0 20 14 34t34 14t34.5 -14t14.5 -34t-14.5 -34.5t-34.5 -14.5t-34 14.5t-14 34.5z" />
    <glyph glyph-name="Jcircumflex" unicode="&#x134;" horiz-adv-x="228" 
d="M35 78q19 1 31.5 9t19 17t9.5 27.5t3.5 30.5t0.5 36v482q0 11 4.5 15.5t15.5 4.5h44q11 0 15.5 -4.5t4.5 -15.5v-480q0 -114 -31.5 -157t-116.5 -43q-11 0 -15.5 4.5t-4.5 15.5v38q0 11 4.5 15t15.5 5zM161 746l-17 62q-1 4 -4 4t-4 -4l-17 -62q-3 -11 -13 -11h-53
q-7 0 -8.5 5.5t2.5 12.5l64 104q5 7 15 7h28q10 0 15 -7l64 -104q4 -7 2.5 -12.5t-8.5 -5.5h-53q-10 0 -13 11z" />
    <glyph glyph-name="jcircumflex" unicode="&#x135;" horiz-adv-x="184" 
d="M-11 -161v38q0 18 18 22q27 5 35 28.5t8 66.5v486q0 11 4.5 15.5t15.5 4.5h44q11 0 15.5 -4.5t4.5 -15.5v-485q-1 -89 -29 -129.5t-92 -45.5q-8 0 -12.5 1t-8 5t-3.5 13zM115 560l-17 62q-1 4 -4 4t-4 -4l-17 -62q-3 -11 -13 -11h-53q-7 0 -8.5 5.5t2.5 12.5l64 104
q5 7 15 7h28q10 0 15 -7l64 -104q4 -7 2.5 -12.5t-8.5 -5.5h-53q-10 0 -13 11z" />
    <glyph glyph-name="Kcommaaccent" unicode="&#x136;" horiz-adv-x="381" 
d="M134 20q0 -11 -4.5 -15.5t-15.5 -4.5h-44q-11 0 -15.5 4.5t-4.5 15.5v660q0 11 4.5 15.5t15.5 4.5h44q11 0 15.5 -4.5t4.5 -15.5v-309q0 -5 3 -5.5t5 3.5l136 316q5 11 8.5 13t13.5 2h52q21 0 11 -21l-108 -251q-2 -5 0 -13l108 -395q5 -20 -18 -20h-40q-21 0 -26 20
l-77 283q0 2 -2 3.5t-3.5 0.5t-2.5 -3l-56 -130q-4 -9 -4 -22v-132zM154 -82q0 21 14.5 36t36.5 15q15 0 27.5 -8.5t19 -25.5t5 -39t-16.5 -52t-44 -61q-7 -7 -15 -1l-11 9q-7 6 -3 13q20 27 22 43.5t-6.5 22.5t-18.5 18.5t-10 29.5z" />
    <glyph glyph-name="kcommaaccent" unicode="&#x137;" horiz-adv-x="349" 
d="M70 0q-11 0 -15.5 4.5t-4.5 15.5v660q0 11 4.5 15.5t15.5 4.5h44q11 0 15.5 -4.5t4.5 -15.5v-390l107 195q6 11 10 13t15 2h54q21 0 9 -21l-108 -197l115 -261q9 -21 -11 -21h-52q-11 0 -15 2t-9 13l-84 190l-31 -57v-128q0 -11 -4.5 -15.5t-15.5 -4.5h-44zM132 -81
q0 21 14.5 36t36.5 15q15 0 27.5 -8.5t19 -25.5t5 -39t-16.5 -52t-44 -61q-7 -7 -15 -1l-11 9q-7 6 -3 13q20 27 22 43.5t-6.5 22.5t-18.5 18.5t-10 29.5z" />
    <glyph glyph-name="Lacute" unicode="&#x139;" horiz-adv-x="316" 
d="M70 0q-11 0 -15.5 4.5t-4.5 15.5v660q0 11 4.5 15.5t15.5 4.5h44q11 0 15.5 -4.5t4.5 -15.5v-581q0 -16 2.5 -18.5t18.5 -2.5h126q11 0 15.5 -4.5t4.5 -15.5v-38q0 -11 -4.5 -15.5t-15.5 -4.5h-211zM76 735q-10 0 -10 10v98q0 12 4.5 16.5t16.5 4.5h51q23 0 13 -27
l-30 -85q-4 -11 -6.5 -14t-10.5 -3h-28z" />
    <glyph glyph-name="lacute" unicode="&#x13a;" horiz-adv-x="225" 
d="M129 680v-505q0 -54 11 -73.5t45 -23.5q12 -2 16 -5.5t4 -14.5v-38q0 -11 -4.5 -15.5t-15.5 -4.5q-75 2 -107 41t-33 135v504q0 11 4.5 15.5t15.5 4.5h44q11 0 15.5 -4.5t4.5 -15.5zM71 735q-10 0 -10 10v98q0 12 4.5 16.5t16.5 4.5h51q23 0 13 -27l-30 -85
q-4 -11 -7 -14t-10 -3h-28z" />
    <glyph glyph-name="Lcommaaccent" unicode="&#x13b;" horiz-adv-x="316" 
d="M70 0q-11 0 -15.5 4.5t-4.5 15.5v660q0 11 4.5 15.5t15.5 4.5h44q11 0 15.5 -4.5t4.5 -15.5v-581q0 -16 2.5 -18.5t18.5 -2.5h126q11 0 15.5 -4.5t4.5 -15.5v-38q0 -11 -4.5 -15.5t-15.5 -4.5h-211zM130 -82q0 21 14.5 36t36.5 15q15 0 27.5 -8.5t19 -25.5t5 -39
t-16.5 -52t-44 -61q-7 -7 -15 -1l-11 9q-7 6 -3 13q20 27 22 43.5t-6.5 22.5t-18.5 18.5t-10 29.5z" />
    <glyph glyph-name="lcommaaccent" unicode="&#x13c;" horiz-adv-x="225" 
d="M129 680v-505q0 -54 11 -73.5t45 -23.5q12 -2 16 -5.5t4 -14.5v-38q0 -11 -4.5 -15.5t-15.5 -4.5q-75 2 -107 41t-33 135v504q0 11 4.5 15.5t15.5 4.5h44q11 0 15.5 -4.5t4.5 -15.5zM81 -72q0 21 14.5 36t36.5 15q15 0 27.5 -8.5t19 -25.5t5 -39t-16.5 -52t-44 -61
q-7 -7 -15 -1l-11 9q-7 6 -3 13q20 27 22 43.5t-6.5 22.5t-18.5 18.5t-10 29.5z" />
    <glyph glyph-name="Lcaron" unicode="&#x13d;" horiz-adv-x="316" 
d="M70 0q-11 0 -15.5 4.5t-4.5 15.5v660q0 11 4.5 15.5t15.5 4.5h44q11 0 15.5 -4.5t4.5 -15.5v-581q0 -16 2.5 -18.5t18.5 -2.5h126q11 0 15.5 -4.5t4.5 -15.5v-38q0 -11 -4.5 -15.5t-15.5 -4.5h-211zM96 791l17 62q3 11 13 11h53q7 0 8.5 -5t-2.5 -13l-64 -104
q-5 -7 -15 -7h-28q-10 0 -15 7l-64 104q-4 8 -2.5 13t8.5 5h53q10 0 13 -11l17 -62q1 -4 4 -4t4 4z" />
    <glyph glyph-name="lcaron" unicode="&#x13e;" horiz-adv-x="310" 
d="M129 680v-505q0 -54 11 -73.5t45 -23.5q12 -2 16 -5.5t4 -14.5v-38q0 -11 -4.5 -15.5t-15.5 -4.5q-75 2 -107 41t-33 135v504q0 11 4.5 15.5t15.5 4.5h44q11 0 15.5 -4.5t4.5 -15.5zM186 700q0 21 14.5 36t36.5 15q15 0 27.5 -8.5t19 -25.5t5 -39t-16.5 -52t-44 -61
q-7 -7 -15 -1l-11 9q-7 6 -3 13q20 27 22 43.5t-6.5 22.5t-18.5 18.5t-10 29.5z" />
    <glyph glyph-name="Ldot" unicode="&#x13f;" horiz-adv-x="316" 
d="M187 472q0 20 14 34t34 14t34.5 -14t14.5 -34t-14.5 -34.5t-34.5 -14.5t-34 14.5t-14 34.5zM70 0q-11 0 -15.5 4.5t-4.5 15.5v660q0 11 4.5 15.5t15.5 4.5h44q11 0 15.5 -4.5t4.5 -15.5v-581q0 -16 2.5 -18.5t18.5 -2.5h126q11 0 15.5 -4.5t4.5 -15.5v-38
q0 -11 -4.5 -15.5t-15.5 -4.5h-211z" />
    <glyph glyph-name="ldot" unicode="&#x140;" horiz-adv-x="294" 
d="M129 680v-505q0 -54 11 -73.5t45 -23.5q12 -2 16 -5.5t4 -14.5v-38q0 -11 -4.5 -15.5t-15.5 -4.5q-75 2 -107 41t-33 135v504q0 11 4.5 15.5t15.5 4.5h44q11 0 15.5 -4.5t4.5 -15.5zM177 369q0 20 14 34t34 14t34.5 -14t14.5 -34t-14.5 -34.5t-34.5 -14.5t-34 14.5
t-14 34.5z" />
    <glyph glyph-name="Lslash" unicode="&#x141;" horiz-adv-x="316" 
d="M70 0q-11 0 -15.5 4.5t-4.5 15.5v660q0 11 4.5 15.5t15.5 4.5h44q11 0 15.5 -4.5t4.5 -15.5v-240l33 40q8 10 13.5 10.5t14.5 -7.5l30 -26q9 -8 9.5 -13.5t-7.5 -14.5l-93 -111v-219q0 -16 2.5 -18.5t18.5 -2.5h126q11 0 15.5 -4.5t4.5 -15.5v-38q0 -11 -4.5 -15.5
t-15.5 -4.5h-211z" />
    <glyph glyph-name="lslash" unicode="&#x142;" horiz-adv-x="240" 
d="M55 273l-17 -17q-4 -5 -8.5 -3.5t-4.5 8.5v74q0 21 10 31l20 20v294q0 11 4.5 15.5t15.5 4.5h44q11 0 15.5 -4.5t4.5 -15.5v-209l36 36q7 6 10.5 4t3.5 -9v-80q0 -14 -10 -24l-40 -40v-183q0 -54 11 -73.5t45 -23.5q12 -2 16 -5.5t4 -14.5v-38q0 -11 -4.5 -15.5
t-15.5 -4.5q-75 2 -107 41t-33 135v97z" />
    <glyph glyph-name="Nacute" unicode="&#x143;" horiz-adv-x="455" 
d="M385 0h-37q-15 0 -20 12l-186 448q-1 3 -3 4t-3.5 -0.5t-1.5 -3.5v-440q0 -11 -4.5 -15.5t-15.5 -4.5h-44q-11 0 -15.5 4.5t-4.5 15.5v660q0 11 4.5 15.5t15.5 4.5h37q15 0 20 -13l186 -448q1 -3 3 -4t3.5 0.5t1.5 3.5v441q0 11 4.5 15.5t15.5 4.5h44q11 0 15.5 -4.5
t4.5 -15.5v-660q0 -11 -4.5 -15.5t-15.5 -4.5zM216 735q-10 0 -10 10v98q0 12 4.5 16.5t16.5 4.5h51q23 0 13 -27l-30 -85q-4 -11 -6.5 -14t-10.5 -3h-28z" />
    <glyph glyph-name="nacute" unicode="&#x144;" horiz-adv-x="387" 
d="M134 350v-330q0 -11 -4.5 -15.5t-15.5 -4.5h-44q-11 0 -15.5 4.5t-4.5 15.5v460q0 11 4.5 15.5t15.5 4.5h44q11 0 15.5 -4.5t4.5 -15.5v-14q27 35 74 38q60 2 97 -40t37 -130v-314q0 -11 -4.5 -15.5t-15.5 -4.5h-44q-11 0 -15.5 4.5t-4.5 15.5v330q0 41 -18.5 58.5
t-43.5 17.5t-43.5 -17.5t-18.5 -58.5zM177 549q-10 0 -10 10v98q0 12 4.5 16.5t16.5 4.5h51q23 0 13 -27l-30 -85q-4 -11 -7 -14t-10 -3h-28z" />
    <glyph glyph-name="Ncommaaccent" unicode="&#x145;" horiz-adv-x="455" 
d="M385 0h-37q-15 0 -20 12l-186 448q-1 3 -3 4t-3.5 -0.5t-1.5 -3.5v-440q0 -11 -4.5 -15.5t-15.5 -4.5h-44q-11 0 -15.5 4.5t-4.5 15.5v660q0 11 4.5 15.5t15.5 4.5h37q15 0 20 -13l186 -448q1 -3 3 -4t3.5 0.5t1.5 3.5v441q0 11 4.5 15.5t15.5 4.5h44q11 0 15.5 -4.5
t4.5 -15.5v-660q0 -11 -4.5 -15.5t-15.5 -4.5zM178 -82q0 21 14.5 36t36.5 15q15 0 27.5 -8.5t19 -25.5t5 -39t-16.5 -52t-44 -61q-7 -7 -15 -1l-11 9q-7 6 -3 13q20 27 22 43.5t-6.5 22.5t-18.5 18.5t-10 29.5z" />
    <glyph glyph-name="ncommaaccent" unicode="&#x146;" horiz-adv-x="387" 
d="M134 350v-330q0 -11 -4.5 -15.5t-15.5 -4.5h-44q-11 0 -15.5 4.5t-4.5 15.5v460q0 11 4.5 15.5t15.5 4.5h44q11 0 15.5 -4.5t4.5 -15.5v-14q27 35 74 38q60 2 97 -40t37 -130v-314q0 -11 -4.5 -15.5t-15.5 -4.5h-44q-11 0 -15.5 4.5t-4.5 15.5v330q0 41 -18.5 58.5
t-43.5 17.5t-43.5 -17.5t-18.5 -58.5zM142 -82q0 21 14.5 36t36.5 15q15 0 27.5 -8.5t19 -25.5t5 -39t-16.5 -52t-44 -61q-7 -7 -15 -1l-11 9q-7 6 -3 13q20 27 22 43.5t-6.5 22.5t-18.5 18.5t-10 29.5z" />
    <glyph glyph-name="Ncaron" unicode="&#x147;" horiz-adv-x="455" 
d="M385 0h-37q-15 0 -20 12l-186 448q-1 3 -3 4t-3.5 -0.5t-1.5 -3.5v-440q0 -11 -4.5 -15.5t-15.5 -4.5h-44q-11 0 -15.5 4.5t-4.5 15.5v660q0 11 4.5 15.5t15.5 4.5h37q15 0 20 -13l186 -448q1 -3 3 -4t3.5 0.5t1.5 3.5v441q0 11 4.5 15.5t15.5 4.5h44q11 0 15.5 -4.5
t4.5 -15.5v-660q0 -11 -4.5 -15.5t-15.5 -4.5zM232 791l17 62q3 11 13 11h53q7 0 8.5 -5t-2.5 -13l-64 -104q-5 -7 -15 -7h-28q-10 0 -15 7l-64 104q-4 8 -2.5 13t8.5 5h53q10 0 13 -11l17 -62q1 -4 4 -4t4 4z" />
    <glyph glyph-name="ncaron" unicode="&#x148;" horiz-adv-x="387" 
d="M134 350v-330q0 -11 -4.5 -15.5t-15.5 -4.5h-44q-11 0 -15.5 4.5t-4.5 15.5v460q0 11 4.5 15.5t15.5 4.5h44q11 0 15.5 -4.5t4.5 -15.5v-14q27 35 74 38q60 2 97 -40t37 -130v-314q0 -11 -4.5 -15.5t-15.5 -4.5h-44q-11 0 -15.5 4.5t-4.5 15.5v330q0 41 -18.5 58.5
t-43.5 17.5t-43.5 -17.5t-18.5 -58.5zM191 605l17 62q3 11 13 11h53q7 0 8.5 -5t-2.5 -13l-64 -104q-5 -7 -15 -7h-28q-10 0 -15 7l-64 104q-4 8 -2.5 13t8.5 5h53q10 0 13 -11l17 -62q1 -4 4 -4t4 4z" />
    <glyph glyph-name="napostrophe" unicode="&#x149;" horiz-adv-x="480" 
d="M227 350v-330q0 -11 -4.5 -15.5t-15.5 -4.5h-44q-11 0 -15.5 4.5t-4.5 15.5v460q0 11 4.5 15.5t15.5 4.5h44q11 0 15.5 -4.5t4.5 -15.5v-14q27 35 74 38q60 2 97 -40t37 -130v-314q0 -11 -4.5 -15.5t-15.5 -4.5h-44q-11 0 -15.5 4.5t-4.5 15.5v330q0 41 -18.5 58.5
t-43.5 17.5t-43.5 -17.5t-18.5 -58.5zM25 699q0 21 14.5 36t36.5 15q15 0 27.5 -8.5t19 -25.5t5 -39t-16.5 -52t-44 -61q-7 -7 -15 -1l-11 9q-7 6 -3 13q20 27 22 43.5t-6.5 22.5t-18.5 18.5t-10 29.5z" />
    <glyph glyph-name="Omacron" unicode="&#x14c;" horiz-adv-x="400" 
d="M360 514v-328q0 -97 -45.5 -143.5t-114.5 -46.5t-114.5 46.5t-45.5 143.5v328q0 97 45.5 143.5t114.5 46.5t114.5 -46.5t45.5 -143.5zM124 518v-336q0 -108 76 -108t76 108v336q0 108 -76 108t-76 -108zM103 785q0 11 4.5 15.5t15.5 4.5h159q11 0 15.5 -4.5t4.5 -15.5
v-30q0 -11 -4.5 -15.5t-15.5 -4.5h-159q-11 0 -15.5 4.5t-4.5 15.5v30z" />
    <glyph glyph-name="omacron" unicode="&#x14d;" horiz-adv-x="380" 
d="M340 320v-140q0 -95 -44 -139.5t-106 -44.5t-106 44.5t-44 139.5v140q0 95 44 139.5t106 44.5t106 -44.5t44 -139.5zM256 344q0 44 -20 63t-46 19t-46 -19t-20 -63v-188q0 -44 20 -63t46 -19t46 19t20 63v188zM91 599q0 11 4.5 15.5t15.5 4.5h159q11 0 15.5 -4.5
t4.5 -15.5v-30q0 -11 -4.5 -15.5t-15.5 -4.5h-159q-11 0 -15.5 4.5t-4.5 15.5v30z" />
    <glyph glyph-name="Obreve" unicode="&#x14e;" horiz-adv-x="400" 
d="M360 514v-328q0 -97 -45.5 -143.5t-114.5 -46.5t-114.5 46.5t-45.5 143.5v328q0 97 45.5 143.5t114.5 46.5t114.5 -46.5t45.5 -143.5zM124 518v-336q0 -108 76 -108t76 108v336q0 108 -76 108t-76 -108zM200 731q-45 0 -78 29.5t-36 84.5q-1 14 2.5 17t16.5 3h19
q12 0 15.5 -2.5t4.5 -14.5q6 -60 56 -60t56 60q1 12 4.5 14.5t15.5 2.5h19q10 0 13 -1t5 -5t1 -14q-3 -55 -36 -84.5t-78 -29.5z" />
    <glyph glyph-name="obreve" unicode="&#x14f;" horiz-adv-x="380" 
d="M340 320v-140q0 -95 -44 -139.5t-106 -44.5t-106 44.5t-44 139.5v140q0 95 44 139.5t106 44.5t106 -44.5t44 -139.5zM256 344q0 44 -20 63t-46 19t-46 -19t-20 -63v-188q0 -44 20 -63t46 -19t46 19t20 63v188zM190 545q-45 0 -78 29.5t-36 84.5q-1 14 2.5 17t16.5 3h19
q12 0 15.5 -2.5t4.5 -14.5q6 -60 56 -60t56 60q1 12 4.5 14.5t15.5 2.5h19q10 0 13 -1t5 -5t1 -14q-3 -55 -36 -84.5t-78 -29.5z" />
    <glyph glyph-name="Ohungarumlaut" unicode="&#x150;" horiz-adv-x="400" 
d="M360 514v-328q0 -97 -45.5 -143.5t-114.5 -46.5t-114.5 46.5t-45.5 143.5v328q0 97 45.5 143.5t114.5 46.5t114.5 -46.5t45.5 -143.5zM124 518v-336q0 -108 76 -108t76 108v336q0 108 -76 108t-76 -108zM125 735q-10 0 -10 10v98q0 12 4.5 16.5t16.5 4.5h51q23 0 13 -27
l-30 -85q-4 -11 -7 -14t-10 -3h-28zM251 735q-10 0 -10 10v98q0 12 4.5 16.5t16.5 4.5h51q23 0 13 -27l-30 -85q-4 -11 -7 -14t-10 -3h-28z" />
    <glyph glyph-name="ohungarumlaut" unicode="&#x151;" horiz-adv-x="380" 
d="M340 320v-140q0 -95 -44 -139.5t-106 -44.5t-106 44.5t-44 139.5v140q0 95 44 139.5t106 44.5t106 -44.5t44 -139.5zM256 344q0 44 -20 63t-46 19t-46 -19t-20 -63v-188q0 -44 20 -63t46 -19t46 19t20 63v188zM110 549q-10 0 -10 10v98q0 12 4.5 16.5t16.5 4.5h51
q23 0 13 -27l-30 -85q-4 -11 -6.5 -14t-10.5 -3h-28zM236 549q-10 0 -10 10v98q0 12 4.5 16.5t16.5 4.5h51q23 0 13 -27l-30 -85q-4 -11 -6.5 -14t-10.5 -3h-28z" />
    <glyph glyph-name="OE" unicode="&#x152;" horiz-adv-x="567" 
d="M296 0q-18 0 -19 13q-34 -17 -77 -17q-69 0 -114.5 46.5t-45.5 143.5v328q0 97 45.5 143.5t114.5 46.5q41 0 77 -18q1 14 19 14h211q11 0 15.5 -4.5t4.5 -15.5v-38q0 -11 -4.5 -15.5t-15.5 -4.5h-127q-15 0 -17.5 -2.5t-2.5 -17.5v-174q0 -15 2.5 -17.5t17.5 -2.5h127
q11 0 15.5 -4.5t4.5 -15.5v-38q0 -11 -4.5 -15.5t-15.5 -4.5h-127q-15 0 -17.5 -2.5t-2.5 -17.5v-212q0 -15 2.5 -17.5t17.5 -2.5h127q11 0 15.5 -4.5t4.5 -15.5v-38q0 -11 -4.5 -15.5t-15.5 -4.5h-211zM124 518v-336q0 -108 76 -108q72 0 76 96v348q0 108 -76 108t-76 -108
z" />
    <glyph glyph-name="oe" unicode="&#x153;" horiz-adv-x="596" 
d="M190 504q67 0 108 -47q43 47 108 47q62 0 106 -44.5t44 -139.5v-67q0 -12 -4.5 -16t-16.5 -4h-175q-11 0 -15.5 -4.5t-4.5 -15.5v-60q0 -38 18.5 -58.5t47.5 -20.5q27 0 45.5 18t19.5 49q1 14 4.5 20t15.5 6h40q11 0 15 -4.5t5 -15.5q3 -52 -35 -101.5t-110 -49.5
q-67 0 -108 47q-40 -47 -108 -47q-62 0 -106 44.5t-44 139.5v140q0 95 44 139.5t106 44.5zM256 344q0 44 -20 63t-46 19t-46 -19t-20 -63v-188q0 -44 20 -63t46 -19t46 19t20 63v188zM472 347q0 38 -18.5 58.5t-47.5 20.5t-47.5 -20.5t-18.5 -58.5v-20q0 -11 4.5 -15.5
t15.5 -4.5h92q11 0 15.5 4.5t4.5 15.5v20z" />
    <glyph glyph-name="Racute" unicode="&#x154;" horiz-adv-x="390" 
d="M70 700h120q69 0 114.5 -46.5t45.5 -143.5v-27q0 -114 -66 -161l1 -3q13 -62 60 -298q5 -21 -12 -21h-47q-8 0 -11 0.5t-6.5 4t-4.5 10.5l-54 269q-2 9 -12 9h-44q-15 0 -17.5 -2.5t-2.5 -17.5v-253q0 -20 -20 -20h-44q-12 0 -16 4.5t-4 15.5v660q0 11 4.5 15.5t15.5 4.5
zM134 392q0 -16 2.5 -18.5t17.5 -2.5h36q76 0 76 108v35q0 108 -76 108h-36q-15 0 -17.5 -2.5t-2.5 -17.5v-210zM161 735q-10 0 -10 10v98q0 12 4.5 16.5t16.5 4.5h51q23 0 13 -27l-30 -85q-4 -11 -7 -14t-10 -3h-28z" />
    <glyph glyph-name="racute" unicode="&#x155;" horiz-adv-x="251" 
d="M216 417q-20 5 -32 5q-18 0 -29 -8t-15 -25.5t-5 -30.5t-1 -38v-300q0 -11 -4.5 -15.5t-15.5 -4.5h-44q-11 0 -15.5 4.5t-4.5 15.5v460q0 11 4.5 15.5t15.5 4.5h44q11 0 15.5 -4.5t4.5 -15.5v-12q30 30 72 32h10q11 0 15.5 -4.5t4.5 -15.5v-43q0 -12 -4.5 -17.5
t-15.5 -2.5zM77 549q-10 0 -10 10v98q0 12 4.5 16.5t16.5 4.5h51q23 0 13 -27l-30 -85q-4 -11 -7 -14t-10 -3h-28z" />
    <glyph glyph-name="Rcommaaccent" unicode="&#x156;" horiz-adv-x="390" 
d="M70 700h120q69 0 114.5 -46.5t45.5 -143.5v-27q0 -114 -66 -161l1 -3q13 -62 60 -298q5 -21 -12 -21h-47q-8 0 -11 0.5t-6.5 4t-4.5 10.5l-54 269q-2 9 -12 9h-44q-15 0 -17.5 -2.5t-2.5 -17.5v-253q0 -20 -20 -20h-44q-12 0 -16 4.5t-4 15.5v660q0 11 4.5 15.5t15.5 4.5
zM134 392q0 -16 2.5 -18.5t17.5 -2.5h36q76 0 76 108v35q0 108 -76 108h-36q-15 0 -17.5 -2.5t-2.5 -17.5v-210zM145 -82q0 21 14.5 36t36.5 15q15 0 27.5 -8.5t19 -25.5t5 -39t-16.5 -52t-44 -61q-7 -7 -15 -1l-11 9q-7 6 -3 13q20 27 22 43.5t-6.5 22.5t-18.5 18.5
t-10 29.5z" />
    <glyph glyph-name="rcommaaccent" unicode="&#x157;" horiz-adv-x="251" 
d="M216 417q-20 5 -32 5q-18 0 -29 -8t-15 -25.5t-5 -30.5t-1 -38v-300q0 -11 -4.5 -15.5t-15.5 -4.5h-44q-11 0 -15.5 4.5t-4.5 15.5v460q0 11 4.5 15.5t15.5 4.5h44q11 0 15.5 -4.5t4.5 -15.5v-12q30 30 72 32h10q11 0 15.5 -4.5t4.5 -15.5v-43q0 -12 -4.5 -17.5
t-15.5 -2.5zM40 -82q0 21 14.5 36t36.5 15q15 0 27.5 -8.5t19 -25.5t5 -39t-16.5 -52t-44 -61q-7 -7 -15 -1l-11 9q-7 6 -3 13q20 27 22 43.5t-6.5 22.5t-18.5 18.5t-10 29.5z" />
    <glyph glyph-name="Rcaron" unicode="&#x158;" horiz-adv-x="390" 
d="M70 700h120q69 0 114.5 -46.5t45.5 -143.5v-27q0 -114 -66 -161l1 -3q13 -62 60 -298q5 -21 -12 -21h-47q-8 0 -11 0.5t-6.5 4t-4.5 10.5l-54 269q-2 9 -12 9h-44q-15 0 -17.5 -2.5t-2.5 -17.5v-253q0 -20 -20 -20h-44q-12 0 -16 4.5t-4 15.5v660q0 11 4.5 15.5t15.5 4.5
zM134 392q0 -16 2.5 -18.5t17.5 -2.5h36q76 0 76 108v35q0 108 -76 108h-36q-15 0 -17.5 -2.5t-2.5 -17.5v-210zM184 791l17 62q3 11 13 11h53q7 0 8.5 -5t-2.5 -13l-64 -104q-5 -7 -15 -7h-28q-10 0 -15 7l-64 104q-4 8 -2.5 13t8.5 5h53q10 0 13 -11l17 -62q1 -4 4 -4t4 4
z" />
    <glyph glyph-name="rcaron" unicode="&#x159;" horiz-adv-x="251" 
d="M216 417q-20 5 -32 5q-18 0 -29 -8t-15 -25.5t-5 -30.5t-1 -38v-300q0 -11 -4.5 -15.5t-15.5 -4.5h-44q-11 0 -15.5 4.5t-4.5 15.5v460q0 11 4.5 15.5t15.5 4.5h44q11 0 15.5 -4.5t4.5 -15.5v-12q30 30 72 32h10q11 0 15.5 -4.5t4.5 -15.5v-43q0 -12 -4.5 -17.5
t-15.5 -2.5zM95 605l17 62q3 11 13 11h53q7 0 8.5 -5t-2.5 -13l-64 -104q-5 -7 -15 -7h-28q-10 0 -15 7l-64 104q-4 8 -2.5 13t8.5 5h53q10 0 13 -11l17 -62q1 -4 4 -4t4 4z" />
    <glyph glyph-name="Sacute" unicode="&#x15a;" horiz-adv-x="367" 
d="M181 -4q-68 0 -115 48.5t-45 115.5q0 13 4 17.5t17 4.5h41q19 0 20 -23q3 -45 26.5 -65t51.5 -20q34 0 54.5 21t23.5 51q4 36 -17 76t-54 77.5t-67.5 75.5t-60.5 83t-28 88q-4 65 38 111.5t109 46.5q53 0 95 -37.5t48 -95.5q2 -21 -1.5 -26.5t-18.5 -5.5h-38
q-11 0 -14.5 4.5t-5.5 18.5q-4 30 -22.5 47t-42.5 17q-30 0 -49 -23t-15 -56q4 -37 37.5 -83t72 -85t74 -94t41.5 -108q9 -70 -37.5 -125.5t-121.5 -55.5zM164 735q-10 0 -10 10v98q0 12 4.5 16.5t16.5 4.5h51q23 0 13 -27l-30 -85q-4 -11 -6.5 -14t-10.5 -3h-28z" />
    <glyph glyph-name="sacute" unicode="&#x15b;" horiz-adv-x="332" 
d="M116 375q1 -20 20.5 -39t46.5 -35.5t55 -36t49 -49t24 -65.5q5 -61 -38.5 -107.5t-106.5 -46.5q-65 0 -105.5 45t-40.5 95q0 11 4.5 15.5t15.5 4.5h42q11 0 15.5 -4.5t4.5 -15.5q1 -24 19 -43t45 -19q23 0 40.5 14.5t22.5 34.5q7 29 -9.5 53t-46 43t-59.5 38t-53 48
t-25 65q-3 57 36.5 95.5t93.5 38.5t91.5 -40t37.5 -97q0 -11 -4.5 -15.5t-15.5 -4.5h-39q-11 0 -15 4.5t-5 19.5q-1 25 -16 40.5t-39 14.5q-19 -1 -32.5 -16t-12.5 -35zM148 549q-10 0 -10 10v98q0 12 4.5 16.5t16.5 4.5h51q23 0 13 -27l-30 -85q-4 -11 -6.5 -14t-10.5 -3
h-28z" />
    <glyph glyph-name="Scircumflex" unicode="&#x15c;" horiz-adv-x="367" 
d="M181 -4q-68 0 -115 48.5t-45 115.5q0 13 4 17.5t17 4.5h41q19 0 20 -23q3 -45 26.5 -65t51.5 -20q34 0 54.5 21t23.5 51q4 36 -17 76t-54 77.5t-67.5 75.5t-60.5 83t-28 88q-4 65 38 111.5t109 46.5q53 0 95 -37.5t48 -95.5q2 -21 -1.5 -26.5t-18.5 -5.5h-38
q-11 0 -14.5 4.5t-5.5 18.5q-4 30 -22.5 47t-42.5 17q-30 0 -49 -23t-15 -56q4 -37 37.5 -83t72 -85t74 -94t41.5 -108q9 -70 -37.5 -125.5t-121.5 -55.5zM202 746l-17 62q-1 4 -4 4t-4 -4l-17 -62q-3 -11 -13 -11h-53q-7 0 -8.5 5.5t2.5 12.5l64 104q5 7 15 7h28
q10 0 15 -7l64 -104q4 -7 2.5 -12.5t-8.5 -5.5h-53q-10 0 -13 11z" />
    <glyph glyph-name="scircumflex" unicode="&#x15d;" horiz-adv-x="332" 
d="M116 375q1 -20 20.5 -39t46.5 -35.5t55 -36t49 -49t24 -65.5q5 -61 -38.5 -107.5t-106.5 -46.5q-65 0 -105.5 45t-40.5 95q0 11 4.5 15.5t15.5 4.5h42q11 0 15.5 -4.5t4.5 -15.5q1 -24 19 -43t45 -19q23 0 40.5 14.5t22.5 34.5q7 29 -9.5 53t-46 43t-59.5 38t-53 48
t-25 65q-3 57 36.5 95.5t93.5 38.5t91.5 -40t37.5 -97q0 -11 -4.5 -15.5t-15.5 -4.5h-39q-11 0 -15 4.5t-5 19.5q-1 25 -16 40.5t-39 14.5q-19 -1 -32.5 -16t-12.5 -35zM189 560l-17 62q-1 4 -4 4t-4 -4l-17 -62q-3 -11 -13 -11h-53q-7 0 -8.5 5.5t2.5 12.5l64 104q5 7 15 7
h28q10 0 15 -7l64 -104q4 -7 2.5 -12.5t-8.5 -5.5h-53q-10 0 -13 11z" />
    <glyph glyph-name="Scedilla" unicode="&#x15e;" horiz-adv-x="367" 
d="M160 -118l-42 10q-13 3 -10 14l29 96q-52 14 -84.5 58.5t-31.5 99.5q0 13 4 17.5t17 4.5h41q19 0 20 -23q3 -45 26.5 -65t51.5 -20q34 0 54.5 21t23.5 51q4 36 -17 76t-54 77.5t-67.5 75.5t-60.5 83t-28 88q-4 65 38 111.5t109 46.5q53 0 95 -37.5t48 -95.5
q2 -21 -1.5 -26.5t-18.5 -5.5h-38q-11 0 -14.5 4.5t-5.5 18.5q-4 30 -22.5 47t-42.5 17q-30 0 -49 -23t-15 -56q4 -37 37.5 -83t72 -85t74 -94t41.5 -108q8 -64 -30.5 -116.5t-103.5 -62.5l-14 -47q51 18 87.5 -12.5t35.5 -77.5q-1 -41 -26 -70t-59 -34.5t-70 9.5
q-7 3 -3 12l14 39q3 8 13 5q13 -4 24 -4q18 0 30.5 13t12.5 30t-12.5 29.5t-30.5 12.5q-20 0 -33 -16q-6 -7 -15 -5z" />
    <glyph glyph-name="scedilla" unicode="&#x15f;" horiz-adv-x="332" 
d="M143 -118l-42 10q-13 3 -10 14l30 97q-46 15 -73.5 54t-27.5 79q0 11 4.5 15.5t15.5 4.5h42q11 0 15.5 -4.5t4.5 -15.5q1 -24 19 -43t45 -19q23 0 40.5 14.5t22.5 34.5q7 29 -9.5 53t-46 43t-59.5 38t-53 48t-25 65q-3 57 36.5 95.5t93.5 38.5t91.5 -40t37.5 -97
q0 -11 -4.5 -15.5t-15.5 -4.5h-39q-11 0 -15 4.5t-5 19.5q-1 25 -16 40.5t-39 14.5q-19 -1 -32.5 -16t-12.5 -35t20.5 -39t46.5 -35.5t55 -36t49 -49t24 -65.5q4 -55 -31.5 -99t-90.5 -53l-14 -47q51 18 87.5 -12.5t35.5 -77.5q-1 -41 -26 -70t-59 -34.5t-70 9.5q-7 3 -3 12
l14 39q3 8 13 5q13 -4 24 -4q18 0 30.5 13t12.5 30t-12.5 29.5t-30.5 12.5q-20 0 -33 -16q-6 -7 -15 -5z" />
    <glyph glyph-name="Scaron" unicode="&#x160;" horiz-adv-x="367" 
d="M181 -4q-68 0 -115 48.5t-45 115.5q0 13 4 17.5t17 4.5h41q19 0 20 -23q3 -45 26.5 -65t51.5 -20q34 0 54.5 21t23.5 51q4 36 -17 76t-54 77.5t-67.5 75.5t-60.5 83t-28 88q-4 65 38 111.5t109 46.5q53 0 95 -37.5t48 -95.5q2 -21 -1.5 -26.5t-18.5 -5.5h-38
q-11 0 -14.5 4.5t-5.5 18.5q-4 30 -22.5 47t-42.5 17q-30 0 -49 -23t-15 -56q4 -37 37.5 -83t72 -85t74 -94t41.5 -108q9 -70 -37.5 -125.5t-121.5 -55.5zM183 791l17 62q3 11 13 11h53q7 0 8.5 -5t-2.5 -13l-64 -104q-5 -7 -15 -7h-28q-10 0 -15 7l-64 104q-4 8 -2.5 13
t8.5 5h53q10 0 13 -11l17 -62q1 -4 4 -4t4 4z" />
    <glyph glyph-name="scaron" unicode="&#x161;" horiz-adv-x="332" 
d="M116 375q1 -20 20.5 -39t46.5 -35.5t55 -36t49 -49t24 -65.5q5 -61 -38.5 -107.5t-106.5 -46.5q-65 0 -105.5 45t-40.5 95q0 11 4.5 15.5t15.5 4.5h42q11 0 15.5 -4.5t4.5 -15.5q1 -24 19 -43t45 -19q23 0 40.5 14.5t22.5 34.5q7 29 -9.5 53t-46 43t-59.5 38t-53 48
t-25 65q-3 57 36.5 95.5t93.5 38.5t91.5 -40t37.5 -97q0 -11 -4.5 -15.5t-15.5 -4.5h-39q-11 0 -15 4.5t-5 19.5q-1 25 -16 40.5t-39 14.5q-19 -1 -32.5 -16t-12.5 -35zM169 605l17 62q3 11 13 11h53q7 0 8.5 -5t-2.5 -13l-64 -104q-5 -7 -15 -7h-28q-10 0 -15 7l-64 104
q-4 8 -2.5 13t8.5 5h53q10 0 13 -11l17 -62q1 -4 4 -4t4 4z" />
    <glyph glyph-name="uni0162" unicode="&#x162;" horiz-adv-x="330" 
d="M149 -123l-42 10q-13 3 -10 14l31 102q-5 4 -5 17v582q0 15 -2.5 17.5t-16.5 2.5h-69q-11 0 -15.5 4.5t-4.5 15.5v38q0 11 4.5 15.5t15.5 4.5h260q11 0 15.5 -4.5t4.5 -15.5v-38q0 -11 -4.5 -15.5t-15.5 -4.5h-68q-15 0 -17.5 -2.5t-2.5 -17.5v-582q0 -14 -9 -19l-17 -55
q51 18 87.5 -12.5t35.5 -77.5q-1 -41 -26 -70t-59 -34.5t-70 9.5q-7 3 -3 12l14 39q3 8 13 5q13 -4 24 -4q18 0 30.5 13t12.5 30t-12.5 29.5t-30.5 12.5q-20 0 -33 -16q-6 -7 -15 -5z" />
    <glyph glyph-name="uni0163" unicode="&#x163;" horiz-adv-x="230" 
d="M144 -123l-42 10q-13 3 -10 14l34 109q-76 29 -76 166v230q0 10 -10 10q-11 0 -15.5 4.5t-4.5 15.5v34q0 11 4.5 15.5t15.5 4.5q10 0 10 10v87q0 11 4.5 15.5t15.5 4.5h44q11 0 15.5 -4.5t4.5 -15.5v-87q0 -10 10 -10h25q11 0 15.5 -4.5t4.5 -15.5v-34q0 -11 -4.5 -15.5
t-15.5 -4.5h-25q-10 0 -10 -10v-231q0 -54 11 -73.5t45 -23.5q12 -2 16 -5.5t4 -14.5v-38q0 -20 -18 -20l-16 -54q51 18 87.5 -12.5t35.5 -77.5q-1 -41 -26 -70t-59 -34.5t-70 9.5q-7 3 -3 12l14 39q3 8 13 5q13 -4 24 -4q18 0 30.5 13t12.5 30t-12.5 29.5t-30.5 12.5
q-20 0 -33 -16q-6 -7 -15 -5z" />
    <glyph glyph-name="Tcaron" unicode="&#x164;" horiz-adv-x="330" 
d="M15 680q0 11 4.5 15.5t15.5 4.5h260q11 0 15.5 -4.5t4.5 -15.5v-38q0 -11 -4.5 -15.5t-15.5 -4.5h-68q-15 0 -17.5 -2.5t-2.5 -17.5v-582q0 -11 -4.5 -15.5t-15.5 -4.5h-44q-11 0 -15.5 4.5t-4.5 15.5v582q0 15 -2.5 17.5t-16.5 2.5h-69q-11 0 -15.5 4.5t-4.5 15.5v38z
M170 791l17 62q3 11 13 11h53q7 0 8.5 -5t-2.5 -13l-64 -104q-5 -7 -15 -7h-28q-10 0 -15 7l-64 104q-4 8 -2.5 13t8.5 5h53q10 0 13 -11l17 -62q1 -4 4 -4t4 4z" />
    <glyph glyph-name="tcaron" unicode="&#x165;" horiz-adv-x="308" 
d="M134 175q0 -54 11 -73.5t45 -23.5q12 -2 16 -5.5t4 -14.5v-38q0 -11 -4.5 -15.5t-15.5 -4.5q-75 2 -107 41t-33 135v230q0 10 -10 10q-11 0 -15.5 4.5t-4.5 15.5v34q0 11 4.5 15.5t15.5 4.5q10 0 10 10v87q0 11 4.5 15.5t15.5 4.5h44q11 0 15.5 -4.5t4.5 -15.5v-87
q0 -10 10 -10h25q11 0 15.5 -4.5t4.5 -15.5v-34q0 -11 -4.5 -15.5t-15.5 -4.5h-25q-10 0 -10 -10v-231zM184 700q0 21 14.5 36t36.5 15q15 0 27.5 -8.5t19 -25.5t5 -39t-16.5 -52t-44 -61q-7 -7 -15 -1l-11 9q-7 6 -3 13q20 27 22 43.5t-6.5 22.5t-18.5 18.5t-10 29.5z" />
    <glyph glyph-name="Tbar" unicode="&#x166;" horiz-adv-x="330" 
d="M15 680q0 11 4.5 15.5t15.5 4.5h260q11 0 15.5 -4.5t4.5 -15.5v-38q0 -11 -4.5 -15.5t-15.5 -4.5h-68q-15 0 -17.5 -2.5t-2.5 -17.5v-92q0 -10 10 -10h58q11 0 15.5 -4.5t4.5 -15.5v-38q0 -11 -4.5 -15.5t-15.5 -4.5h-58q-10 0 -10 -10v-392q0 -9 -3.5 -14t-6.5 -5.5
t-10 -0.5h-44q-7 0 -10 0.5t-6.5 5.5t-3.5 14v392q0 10 -10 10h-53q-11 0 -15.5 4.5t-4.5 15.5v38q0 11 4.5 15.5t15.5 4.5h53q10 0 10 10v92q0 15 -2.5 17.5t-16.5 2.5h-69q-11 0 -15.5 4.5t-4.5 15.5v38z" />
    <glyph glyph-name="tbar" unicode="&#x167;" horiz-adv-x="230" 
d="M50 255q0 10 -10 10q-11 0 -15.5 4.5t-4.5 15.5v34q0 11 4.5 15.5t15.5 4.5q10 0 10 10v57q0 10 -10 10q-11 0 -15.5 4.5t-4.5 15.5v34q0 11 4.5 15.5t15.5 4.5q10 0 10 10v87q0 11 4.5 15.5t15.5 4.5h44q11 0 15.5 -4.5t4.5 -15.5v-87q0 -10 10 -10h25q11 0 15.5 -4.5
t4.5 -15.5v-34q0 -11 -4.5 -15.5t-15.5 -4.5h-25q-10 0 -10 -10v-57q0 -10 10 -10h25q11 0 15.5 -4.5t4.5 -15.5v-34q0 -11 -4.5 -15.5t-15.5 -4.5h-25q-10 0 -10 -10v-80q0 -54 11 -73.5t45 -23.5q12 -2 16 -5.5t4 -14.5v-38q0 -11 -4.5 -15.5t-15.5 -4.5q-75 2 -107 41
t-33 135v79z" />
    <glyph glyph-name="Utilde" unicode="&#x168;" horiz-adv-x="410" 
d="M129 680v-498q0 -108 76 -108t76 108v498q0 11 4.5 15.5t15.5 4.5h44q11 0 15.5 -4.5t4.5 -15.5v-494q0 -97 -45.5 -143.5t-114.5 -46.5t-114.5 46.5t-45.5 143.5v494q0 11 4.5 15.5t15.5 4.5h44q11 0 15.5 -4.5t4.5 -15.5zM244 731q-16 2 -40.5 13.5t-34.5 11.5
q-19 0 -25 -18q-2 -7 -8 -7h-47q-7 0 -6 6q15 81 86 76q16 -1 41 -13t34 -12q19 0 25 18q2 7 8 7h47q7 0 6 -6q-16 -83 -86 -76z" />
    <glyph glyph-name="utilde" unicode="&#x169;" horiz-adv-x="387" 
d="M253 150v330q0 11 4.5 15.5t15.5 4.5h44q11 0 15.5 -4.5t4.5 -15.5v-460q0 -11 -4.5 -15.5t-15.5 -4.5h-44q-11 0 -15.5 4.5t-4.5 15.5v14q-27 -35 -74 -38q-60 -2 -97 40t-37 130v314q0 11 4.5 15.5t15.5 4.5h44q11 0 15.5 -4.5t4.5 -15.5v-330q0 -41 18.5 -58.5
t43.5 -17.5t43.5 17.5t18.5 58.5zM230 545q-15 2 -39 13t-33 11q-19 0 -25 -18q-3 -6 -7 -6h-46q-7 0 -6 6q15 77 84 72q16 -1 39.5 -12.5t32.5 -11.5q18 0 24 18q2 6 8 6h45q6 0 6 -3v-2q-16 -79 -83 -73z" />
    <glyph glyph-name="Umacron" unicode="&#x16a;" horiz-adv-x="410" 
d="M129 680v-498q0 -108 76 -108t76 108v498q0 11 4.5 15.5t15.5 4.5h44q11 0 15.5 -4.5t4.5 -15.5v-494q0 -97 -45.5 -143.5t-114.5 -46.5t-114.5 46.5t-45.5 143.5v494q0 11 4.5 15.5t15.5 4.5h44q11 0 15.5 -4.5t4.5 -15.5zM108 785q0 11 4.5 15.5t15.5 4.5h159
q11 0 15.5 -4.5t4.5 -15.5v-30q0 -11 -4.5 -15.5t-15.5 -4.5h-159q-11 0 -15.5 4.5t-4.5 15.5v30z" />
    <glyph glyph-name="umacron" unicode="&#x16b;" horiz-adv-x="387" 
d="M253 150v330q0 11 4.5 15.5t15.5 4.5h44q11 0 15.5 -4.5t4.5 -15.5v-460q0 -11 -4.5 -15.5t-15.5 -4.5h-44q-11 0 -15.5 4.5t-4.5 15.5v14q-27 -35 -74 -38q-60 -2 -97 40t-37 130v314q0 11 4.5 15.5t15.5 4.5h44q11 0 15.5 -4.5t4.5 -15.5v-330q0 -41 18.5 -58.5
t43.5 -17.5t43.5 17.5t18.5 58.5zM96 599q0 11 4.5 15.5t15.5 4.5h159q11 0 15.5 -4.5t4.5 -15.5v-30q0 -11 -4.5 -15.5t-15.5 -4.5h-159q-11 0 -15.5 4.5t-4.5 15.5v30z" />
    <glyph glyph-name="Ubreve" unicode="&#x16c;" horiz-adv-x="410" 
d="M129 680v-498q0 -108 76 -108t76 108v498q0 11 4.5 15.5t15.5 4.5h44q11 0 15.5 -4.5t4.5 -15.5v-494q0 -97 -45.5 -143.5t-114.5 -46.5t-114.5 46.5t-45.5 143.5v494q0 11 4.5 15.5t15.5 4.5h44q11 0 15.5 -4.5t4.5 -15.5zM203 731q-45 0 -78 29.5t-36 84.5q-1 14 2 17
t17 3h19q12 0 15.5 -2.5t4.5 -14.5q6 -60 56 -60t56 60q1 12 4.5 14.5t15.5 2.5h19q10 0 13 -1t5 -5t1 -14q-3 -55 -36 -84.5t-78 -29.5z" />
    <glyph glyph-name="ubreve" unicode="&#x16d;" horiz-adv-x="387" 
d="M253 150v330q0 11 4.5 15.5t15.5 4.5h44q11 0 15.5 -4.5t4.5 -15.5v-460q0 -11 -4.5 -15.5t-15.5 -4.5h-44q-11 0 -15.5 4.5t-4.5 15.5v14q-27 -35 -74 -38q-60 -2 -97 40t-37 130v314q0 11 4.5 15.5t15.5 4.5h44q11 0 15.5 -4.5t4.5 -15.5v-330q0 -41 18.5 -58.5
t43.5 -17.5t43.5 17.5t18.5 58.5zM194 545q-45 0 -78 29.5t-36 84.5q-1 14 2.5 17t16.5 3h19q12 0 15.5 -2.5t4.5 -14.5q6 -60 56 -60t56 60q1 12 4.5 14.5t15.5 2.5h19q10 0 13 -1t5 -5t1 -14q-3 -55 -36 -84.5t-78 -29.5z" />
    <glyph glyph-name="Uring" unicode="&#x16e;" horiz-adv-x="410" 
d="M129 680v-498q0 -108 76 -108t76 108v498q0 11 4.5 15.5t15.5 4.5h44q11 0 15.5 -4.5t4.5 -15.5v-494q0 -97 -45.5 -143.5t-114.5 -46.5t-114.5 46.5t-45.5 143.5v494q0 11 4.5 15.5t15.5 4.5h44q11 0 15.5 -4.5t4.5 -15.5zM172 823q0 -13 10 -23t23 -10t23 10t10 23
t-10 23t-23 10t-23 -10t-10 -23zM113 823q0 38 27 65.5t65 27.5t65.5 -27.5t27.5 -65.5t-27.5 -65t-65.5 -27t-65 27t-27 65z" />
    <glyph glyph-name="uring" unicode="&#x16f;" horiz-adv-x="387" 
d="M253 150v330q0 11 4.5 15.5t15.5 4.5h44q11 0 15.5 -4.5t4.5 -15.5v-460q0 -11 -4.5 -15.5t-15.5 -4.5h-44q-11 0 -15.5 4.5t-4.5 15.5v14q-27 -35 -74 -38q-60 -2 -97 40t-37 130v314q0 11 4.5 15.5t15.5 4.5h44q11 0 15.5 -4.5t4.5 -15.5v-330q0 -41 18.5 -58.5
t43.5 -17.5t43.5 17.5t18.5 58.5zM159 637q0 -13 9.5 -23t23.5 -10t23.5 10t9.5 23t-9.5 23t-23.5 10t-23.5 -10t-9.5 -23zM100 637q0 38 27 65.5t65 27.5t65.5 -27.5t27.5 -65.5t-27.5 -65t-65.5 -27t-65 27t-27 65z" />
    <glyph glyph-name="Uhungarumlaut" unicode="&#x170;" horiz-adv-x="410" 
d="M129 680v-498q0 -108 76 -108t76 108v498q0 11 4.5 15.5t15.5 4.5h44q11 0 15.5 -4.5t4.5 -15.5v-494q0 -97 -45.5 -143.5t-114.5 -46.5t-114.5 46.5t-45.5 143.5v494q0 11 4.5 15.5t15.5 4.5h44q11 0 15.5 -4.5t4.5 -15.5zM124 735q-10 0 -10 10v98q0 12 4.5 16.5
t16.5 4.5h51q23 0 13 -27l-30 -85q-4 -11 -6.5 -14t-10.5 -3h-28zM250 735q-10 0 -10 10v98q0 12 4.5 16.5t16.5 4.5h51q23 0 13 -27l-30 -85q-4 -11 -6.5 -14t-10.5 -3h-28z" />
    <glyph glyph-name="uhungarumlaut" unicode="&#x171;" horiz-adv-x="387" 
d="M253 150v330q0 11 4.5 15.5t15.5 4.5h44q11 0 15.5 -4.5t4.5 -15.5v-460q0 -11 -4.5 -15.5t-15.5 -4.5h-44q-11 0 -15.5 4.5t-4.5 15.5v14q-27 -35 -74 -38q-60 -2 -97 40t-37 130v314q0 11 4.5 15.5t15.5 4.5h44q11 0 15.5 -4.5t4.5 -15.5v-330q0 -41 18.5 -58.5
t43.5 -17.5t43.5 17.5t18.5 58.5zM114 549q-10 0 -10 10v98q0 12 4.5 16.5t16.5 4.5h51q23 0 13 -27l-30 -85q-4 -11 -6.5 -14t-10.5 -3h-28zM240 549q-10 0 -10 10v98q0 12 4.5 16.5t16.5 4.5h51q23 0 13 -27l-30 -85q-4 -11 -6.5 -14t-10.5 -3h-28z" />
    <glyph glyph-name="Uogonek" unicode="&#x172;" horiz-adv-x="410" 
d="M129 680v-498q0 -108 76 -108t76 108v498q0 11 4.5 15.5t15.5 4.5h44q11 0 15.5 -4.5t4.5 -15.5v-494q0 -93 -42 -139.5t-106 -49.5l-2 -4q-14 -23 -0.5 -35.5t34.5 -16.5q11 -2 9 -12l-13 -55q-2 -10 -13 -8q-50 8 -69.5 46.5t8.5 83.5l1 1v2q-56 10 -91.5 56t-35.5 131
v494q0 11 4.5 15.5t15.5 4.5h44q11 0 15.5 -4.5t4.5 -15.5z" />
    <glyph glyph-name="uogonek" unicode="&#x173;" horiz-adv-x="387" 
d="M253 150v330q0 11 4.5 15.5t15.5 4.5h44q11 0 15.5 -4.5t4.5 -15.5v-460q0 -11 -4.5 -15.5t-15.5 -4.5h-13l-4 -7q-14 -23 -0.5 -35.5t34.5 -16.5q11 -2 9 -12l-13 -55q-2 -10 -13 -8q-50 8 -69.5 46.5t8.5 83.5q2 4 4 6q-7 4 -7 18v14q-27 -35 -74 -38q-60 -2 -97 40
t-37 130v314q0 11 4.5 15.5t15.5 4.5h44q11 0 15.5 -4.5t4.5 -15.5v-330q0 -41 18.5 -58.5t43.5 -17.5t43.5 17.5t18.5 58.5z" />
    <glyph glyph-name="Wcircumflex" unicode="&#x174;" horiz-adv-x="634" 
d="M317 478q-4 0 -5 -7l-92 -451q-2 -9 -3 -12t-5.5 -5.5t-14.5 -2.5h-23q-13 0 -17 4t-6 16l-125 660q-4 20 17 20h44q12 0 16 -3.5t7 -16.5l74 -432q1 -4 4.5 -4t4.5 4l88 432q2 12 6.5 16t15.5 4h28q11 0 15.5 -4t6.5 -16l88 -432q1 -4 4.5 -4t4.5 4l74 432q3 13 7 16.5
t16 3.5h44q21 0 17 -20l-125 -660q-2 -12 -6 -16t-17 -4h-33q-13 0 -17 4t-6 16l-82 451q-1 7 -5 7zM338 746l-17 62q-1 4 -4 4t-4 -4l-17 -62q-3 -11 -13 -11h-53q-7 0 -8.5 5.5t2.5 12.5l64 104q5 7 15 7h28q10 0 15 -7l64 -104q4 -7 2.5 -12.5t-8.5 -5.5h-53
q-10 0 -13 11z" />
    <glyph glyph-name="wcircumflex" unicode="&#x175;" horiz-adv-x="554" 
d="M472 500h44q7 0 10 -0.5t5.5 -4.5t1.5 -12l-93 -465q-2 -11 -6 -14.5t-16 -3.5h-34q-12 0 -15.5 3t-6.5 15l-81 301q-1 4 -4 4t-4 -4l-81 -301q-3 -12 -6.5 -15t-15.5 -3h-34q-12 0 -16 3.5t-6 14.5l-93 465q-2 11 2.5 14t14.5 3h44q8 0 11 -0.5t6.5 -4t4.5 -10.5
l57 -285q1 -4 4 -4t4 4l77 285q4 15 20 15h22q16 0 20 -15l77 -285q1 -4 4 -4t4 4l57 285q1 7 4.5 10.5t6.5 4t11 0.5zM298 560l-17 62q-1 4 -4 4t-4 -4l-17 -62q-3 -11 -13 -11h-53q-7 0 -8.5 5.5t2.5 12.5l64 104q5 7 15 7h28q10 0 15 -7l64 -104q4 -7 2.5 -12.5
t-8.5 -5.5h-53q-10 0 -13 11z" />
    <glyph glyph-name="Ycircumflex" unicode="&#x176;" horiz-adv-x="350" 
d="M153 0q-11 0 -15.5 4.5t-4.5 15.5v204l-111 456q-5 20 13 20h48q13 0 16.5 -3.5t6.5 -16.5l64 -279q1 -5 5 -5t5 5l64 279q3 13 6.5 16.5t16.5 3.5h48q18 0 13 -20q-111 -446 -111 -456v-204q0 -11 -4.5 -15.5t-15.5 -4.5h-44zM196 746l-17 62q-1 4 -4 4t-4 -4l-17 -62
q-3 -11 -13 -11h-53q-7 0 -8.5 5.5t2.5 12.5l64 104q5 7 15 7h28q10 0 15 -7l64 -104q4 -7 2.5 -12.5t-8.5 -5.5h-53q-10 0 -13 11z" />
    <glyph glyph-name="ycircumflex" unicode="&#x177;" horiz-adv-x="352" 
d="M172 102q1 -4 4 -4t4 4l68 383q1 7 4.5 10.5t6.5 4t11 0.5h44q7 0 10 -0.5t5.5 -4.5t1.5 -12l-99 -495q-10 -53 -24.5 -87t-35 -51.5t-42 -23.5t-52.5 -6q-11 0 -15.5 4.5t-4.5 15.5v39q0 11 4.5 15.5t15.5 4.5q59 1 45 77l-102 507q-2 11 2.5 14t14.5 3h44
q8 0 11.5 -0.5t6.5 -4t4 -10.5zM197 560l-17 62q-1 4 -4 4t-4 -4l-17 -62q-3 -11 -13 -11h-53q-7 0 -8.5 5.5t2.5 12.5l64 104q5 7 15 7h28q10 0 15 -7l64 -104q4 -7 2.5 -12.5t-8.5 -5.5h-53q-10 0 -13 11z" />
    <glyph glyph-name="Ydieresis" unicode="&#x178;" horiz-adv-x="350" 
d="M153 0q-11 0 -15.5 4.5t-4.5 15.5v204l-111 456q-5 20 13 20h48q13 0 16.5 -3.5t6.5 -16.5l64 -279q1 -5 5 -5t5 5l64 279q3 13 6.5 16.5t16.5 3.5h48q18 0 13 -20q-111 -446 -111 -456v-204q0 -11 -4.5 -15.5t-15.5 -4.5h-44zM63 780q0 20 14 34t34 14t34.5 -14
t14.5 -34t-14.5 -34.5t-34.5 -14.5t-34 14.5t-14 34.5zM191 780q0 20 14 34t34 14t34.5 -14t14.5 -34t-14.5 -34.5t-34.5 -14.5t-34 14.5t-14 34.5z" />
    <glyph glyph-name="Zacute" unicode="&#x179;" horiz-adv-x="340" 
d="M306 613l-185 -527q-3 -8 6 -8h163q11 0 15.5 -4.5t4.5 -15.5v-38q0 -11 -4.5 -15.5t-15.5 -4.5h-240q-11 0 -15.5 4.5t-4.5 15.5v45q0 11 4 22l184 527q3 8 -4 8h-164q-11 0 -15.5 4.5t-4.5 15.5v38q0 11 4.5 15.5t15.5 4.5h240q11 0 15.5 -4.5t4.5 -15.5v-45
q0 -10 -4 -22zM161 735q-10 0 -10 10v98q0 12 4.5 16.5t16.5 4.5h51q23 0 13 -27l-30 -85q-4 -11 -7 -14t-10 -3h-28z" />
    <glyph glyph-name="zacute" unicode="&#x17a;" horiz-adv-x="318" 
d="M289 416l-175 -330q-4 -8 4 -8h155q11 0 15.5 -4.5t4.5 -15.5v-38q0 -11 -4.5 -15.5t-15.5 -4.5h-228q-11 0 -15.5 4.5t-4.5 15.5v43q0 13 4 22l175 328q4 9 -4 9h-155q-11 0 -15.5 4.5t-4.5 15.5v38q0 11 4.5 15.5t15.5 4.5h228q12 0 16 -4.5t4 -15.5v-41q0 -14 -4 -23z
M143 549q-10 0 -10 10v98q0 12 4.5 16.5t16.5 4.5h51q23 0 13 -27l-30 -85q-4 -11 -7 -14t-10 -3h-28z" />
    <glyph glyph-name="Zdotaccent" unicode="&#x17b;" horiz-adv-x="340" 
d="M306 613l-185 -527q-3 -8 6 -8h163q11 0 15.5 -4.5t4.5 -15.5v-38q0 -11 -4.5 -15.5t-15.5 -4.5h-240q-11 0 -15.5 4.5t-4.5 15.5v45q0 11 4 22l184 527q3 8 -4 8h-164q-11 0 -15.5 4.5t-4.5 15.5v38q0 11 4.5 15.5t15.5 4.5h240q11 0 15.5 -4.5t4.5 -15.5v-45
q0 -10 -4 -22zM123 780q0 20 14 34t34 14t34.5 -14t14.5 -34t-14.5 -34.5t-34.5 -14.5t-34 14.5t-14 34.5z" />
    <glyph glyph-name="zdotaccent" unicode="&#x17c;" horiz-adv-x="318" 
d="M289 416l-175 -330q-4 -8 4 -8h155q11 0 15.5 -4.5t4.5 -15.5v-38q0 -11 -4.5 -15.5t-15.5 -4.5h-228q-11 0 -15.5 4.5t-4.5 15.5v43q0 13 4 22l175 328q4 9 -4 9h-155q-11 0 -15.5 4.5t-4.5 15.5v38q0 11 4.5 15.5t15.5 4.5h228q12 0 16 -4.5t4 -15.5v-41q0 -14 -4 -23z
M112 594q0 20 14 34t34 14t34.5 -14t14.5 -34t-14.5 -34.5t-34.5 -14.5t-34 14.5t-14 34.5z" />
    <glyph glyph-name="Zcaron" unicode="&#x17d;" horiz-adv-x="340" 
d="M306 613l-185 -527q-3 -8 6 -8h163q11 0 15.5 -4.5t4.5 -15.5v-38q0 -11 -4.5 -15.5t-15.5 -4.5h-240q-11 0 -15.5 4.5t-4.5 15.5v45q0 11 4 22l184 527q3 8 -4 8h-164q-11 0 -15.5 4.5t-4.5 15.5v38q0 11 4.5 15.5t15.5 4.5h240q11 0 15.5 -4.5t4.5 -15.5v-45
q0 -10 -4 -22zM179 791l17 62q3 11 13 11h53q7 0 8.5 -5t-2.5 -13l-64 -104q-5 -7 -15 -7h-28q-10 0 -15 7l-64 104q-4 8 -2.5 13t8.5 5h53q10 0 13 -11l17 -62q1 -4 4 -4t4 4z" />
    <glyph glyph-name="zcaron" unicode="&#x17e;" horiz-adv-x="318" 
d="M289 416l-175 -330q-4 -8 4 -8h155q11 0 15.5 -4.5t4.5 -15.5v-38q0 -11 -4.5 -15.5t-15.5 -4.5h-228q-11 0 -15.5 4.5t-4.5 15.5v43q0 13 4 22l175 328q4 9 -4 9h-155q-11 0 -15.5 4.5t-4.5 15.5v38q0 11 4.5 15.5t15.5 4.5h228q12 0 16 -4.5t4 -15.5v-41q0 -14 -4 -23z
M166 605l17 62q3 11 13 11h53q7 0 8.5 -5t-2.5 -13l-64 -104q-5 -7 -15 -7h-28q-10 0 -15 7l-64 104q-4 8 -2.5 13t8.5 5h53q10 0 13 -11l17 -62q1 -4 4 -4t4 4z" />
    <glyph glyph-name="AEacute" unicode="&#x1fc;" horiz-adv-x="501" 
d="M230 0q-11 0 -15.5 4.5t-4.5 15.5v66q0 8 -3.5 9.5t-17.5 1.5h-41q-14 0 -17 -2.5t-6 -17.5l-11 -62q-1 -7 -4.5 -10.5t-6.5 -4t-11 -0.5h-44q-7 0 -10 0.5t-5.5 4.5t-1.5 12l126 665q2 11 6 14.5t16 3.5h262q11 0 15.5 -4.5t4.5 -15.5v-38q0 -11 -4.5 -15.5t-15.5 -4.5
h-127q-15 0 -17.5 -2.5t-2.5 -17.5v-174q0 -15 2.5 -17.5t17.5 -2.5h127q11 0 15.5 -4.5t4.5 -15.5v-38q0 -11 -4.5 -15.5t-15.5 -4.5h-127q-15 0 -17.5 -2.5t-2.5 -17.5v-212q0 -15 2.5 -17.5t17.5 -2.5h127q11 0 15.5 -4.5t4.5 -15.5v-38q0 -11 -4.5 -15.5t-15.5 -4.5
h-211zM210 195v339q-1 4 -4 4t-4 -4l-57 -339q-2 -15 0 -17.5t17 -2.5h27q15 0 18 2.5t3 17.5zM289 735q-10 0 -10 10v98q0 12 4.5 16.5t16.5 4.5h51q23 0 13 -27l-30 -85q-4 -11 -7 -14t-10 -3h-28z" />
    <glyph glyph-name="aeacute" unicode="&#x1fd;" horiz-adv-x="594" 
d="M404 -4q-78 0 -118 61q-45 -61 -122 -61q-56 0 -91.5 34.5t-35.5 98.5v25q0 51 22 80.5t54 40t64 18t54 24.5t22 50q0 20 -17 39.5t-45 19.5q-26 0 -45 -19.5t-19 -52.5q0 -12 -4 -16.5t-16 -4.5h-38q-11 0 -15 4.5t-5 15.5q-2 62 40 106.5t103 44.5q63 0 106 -45
q41 45 106 45q62 0 106 -44.5t44 -139.5v-67q0 -12 -4.5 -16t-16.5 -4h-175q-11 0 -15.5 -4.5t-4.5 -15.5v-60q0 -38 18.5 -58.5t47.5 -20.5q27 0 45.5 18t19.5 49q1 14 4.5 20t15.5 6h40q11 0 15 -4.5t5 -15.5q3 -52 -35 -101.5t-110 -49.5zM187 74q66 3 66 82v99
q-17 -9 -41 -18.5t-37.5 -15t-27.5 -16t-20 -26.5t-6 -40q0 -12 3 -25t19 -27t44 -13zM470 347q0 38 -18.5 58.5t-47.5 20.5t-47.5 -20.5t-18.5 -58.5v-20q0 -11 4.5 -15.5t15.5 -4.5h92q11 0 15.5 4.5t4.5 15.5v20zM277 549q-10 0 -10 10v98q0 12 4.5 16.5t16.5 4.5h51
q23 0 13 -27l-30 -85q-4 -11 -7 -14t-10 -3h-28z" />
    <glyph glyph-name="uni0218" unicode="&#x218;" horiz-adv-x="367" 
d="M181 -4q-68 0 -115 48.5t-45 115.5q0 13 4 17.5t17 4.5h41q19 0 20 -23q3 -45 26.5 -65t51.5 -20q34 0 54.5 21t23.5 51q4 36 -17 76t-54 77.5t-67.5 75.5t-60.5 83t-28 88q-4 65 38 111.5t109 46.5q53 0 95 -37.5t48 -95.5q2 -21 -1.5 -26.5t-18.5 -5.5h-38
q-11 0 -14.5 4.5t-5.5 18.5q-4 30 -22.5 47t-42.5 17q-30 0 -49 -23t-15 -56q4 -37 37.5 -83t72 -85t74 -94t41.5 -108q9 -70 -37.5 -125.5t-121.5 -55.5zM133 -82q0 21 14.5 36t36.5 15q15 0 27.5 -8.5t19 -25.5t5 -39t-16.5 -52t-44 -61q-7 -7 -15 -1l-11 9q-7 6 -3 13
q20 27 22 43.5t-6.5 22.5t-18.5 18.5t-10 29.5z" />
    <glyph glyph-name="uni0219" unicode="&#x219;" horiz-adv-x="332" 
d="M116 375q1 -20 20.5 -39t46.5 -35.5t55 -36t49 -49t24 -65.5q5 -61 -38.5 -107.5t-106.5 -46.5q-65 0 -105.5 45t-40.5 95q0 11 4.5 15.5t15.5 4.5h42q11 0 15.5 -4.5t4.5 -15.5q1 -24 19 -43t45 -19q23 0 40.5 14.5t22.5 34.5q7 29 -9.5 53t-46 43t-59.5 38t-53 48
t-25 65q-3 57 36.5 95.5t93.5 38.5t91.5 -40t37.5 -97q0 -11 -4.5 -15.5t-15.5 -4.5h-39q-11 0 -15 4.5t-5 19.5q-1 25 -16 40.5t-39 14.5q-19 -1 -32.5 -16t-12.5 -35zM121 -81q0 21 14.5 36t36.5 15q15 0 27.5 -8.5t19 -25.5t5 -39t-16.5 -52t-44 -61q-7 -7 -15 -1l-11 9
q-7 6 -3 13q20 27 22 43.5t-6.5 22.5t-18.5 18.5t-10 29.5z" />
    <glyph glyph-name="uni021A" unicode="&#x21a;" horiz-adv-x="330" 
d="M15 680q0 11 4.5 15.5t15.5 4.5h260q11 0 15.5 -4.5t4.5 -15.5v-38q0 -11 -4.5 -15.5t-15.5 -4.5h-68q-15 0 -17.5 -2.5t-2.5 -17.5v-582q0 -11 -4.5 -15.5t-15.5 -4.5h-44q-11 0 -15.5 4.5t-4.5 15.5v582q0 15 -2.5 17.5t-16.5 2.5h-69q-11 0 -15.5 4.5t-4.5 15.5v38z
M115 -82q0 21 14.5 36t36.5 15q15 0 27.5 -8.5t19 -25.5t5 -39t-16.5 -52t-44 -61q-7 -7 -15 -1l-11 9q-7 6 -3 13q20 27 22 43.5t-6.5 22.5t-18.5 18.5t-10 29.5z" />
    <glyph glyph-name="uni021B" unicode="&#x21b;" horiz-adv-x="230" 
d="M134 175q0 -54 11 -73.5t45 -23.5q12 -2 16 -5.5t4 -14.5v-38q0 -11 -4.5 -15.5t-15.5 -4.5q-75 2 -107 41t-33 135v230q0 10 -10 10q-11 0 -15.5 4.5t-4.5 15.5v34q0 11 4.5 15.5t15.5 4.5q10 0 10 10v87q0 11 4.5 15.5t15.5 4.5h44q11 0 15.5 -4.5t4.5 -15.5v-87
q0 -10 10 -10h25q11 0 15.5 -4.5t4.5 -15.5v-34q0 -11 -4.5 -15.5t-15.5 -4.5h-25q-10 0 -10 -10v-231zM91 -82q0 21 14.5 36t36.5 15q15 0 27.5 -8.5t19 -25.5t5 -39t-16.5 -52t-44 -61q-7 -7 -15 -1l-11 9q-7 6 -3 13q20 27 22 43.5t-6.5 22.5t-18.5 18.5t-10 29.5z" />
    <glyph glyph-name="dotlessj" unicode="&#x237;" horiz-adv-x="184" 
d="M-11 -161v38q0 18 18 22q27 5 35 28.5t8 66.5v486q0 11 4.5 15.5t15.5 4.5h44q11 0 15.5 -4.5t4.5 -15.5v-485q-1 -89 -29 -129.5t-92 -45.5q-8 0 -12.5 1t-8 5t-3.5 13z" />
    <glyph glyph-name="circumflex" unicode="&#x2c6;" horiz-adv-x="234" 
d="M138 746l-17 62q-1 4 -4 4t-4 -4l-17 -62q-3 -11 -13 -11h-53q-7 0 -8.5 5.5t2.5 12.5l64 104q5 7 15 7h28q10 0 15 -7l64 -104q4 -7 2.5 -12.5t-8.5 -5.5h-53q-10 0 -13 11z" />
    <glyph glyph-name="caron" unicode="&#x2c7;" horiz-adv-x="234" 
d="M121 787l17 62q3 11 13 11h53q7 0 8.5 -5t-2.5 -13l-64 -104q-5 -7 -15 -7h-28q-10 0 -15 7l-64 104q-4 8 -2.5 13t8.5 5h53q10 0 13 -11l17 -62q1 -4 4 -4t4 4z" />
    <glyph glyph-name="breve" unicode="&#x2d8;" horiz-adv-x="268" 
d="M132 731q-45 0 -78 29.5t-36 84.5q-1 14 2.5 17t16.5 3h19q12 0 15.5 -2.5t4.5 -14.5q6 -60 56 -60t56 60q1 12 4.5 14.5t15.5 2.5h19q10 0 13 -1t5 -5t1 -14q-3 -55 -36 -84.5t-78 -29.5z" />
    <glyph glyph-name="dotaccent" unicode="&#x2d9;" horiz-adv-x="142" 
d="M23 590q0 20 14 34t34 14t34.5 -14t14.5 -34t-14.5 -34.5t-34.5 -14.5t-34 14.5t-14 34.5z" />
    <glyph glyph-name="ring" unicode="&#x2da;" horiz-adv-x="241" 
d="M86 823q0 -13 10 -23t23 -10t23 10t10 23t-10 23t-23 10t-23 -10t-10 -23zM27 823q0 38 27 65.5t65 27.5t65.5 -27.5t27.5 -65.5t-27.5 -65t-65.5 -27t-65 27t-27 65z" />
    <glyph glyph-name="ogonek" unicode="&#x2db;" horiz-adv-x="151" 
d="M58 16h44q-14 -21 -15 -23q-14 -23 -0.5 -35.5t34.5 -16.5q11 -2 9 -12l-13 -55q-2 -10 -13 -8q-50 8 -69.5 46.5t8.5 83.5q3 6 15 20z" />
    <glyph glyph-name="tilde" unicode="&#x2dc;" horiz-adv-x="279" 
d="M177 731q-16 2 -40.5 13.5t-34.5 11.5q-19 0 -25 -18q-2 -7 -8 -7h-47q-7 0 -6 6q15 81 86 76q16 -1 41 -13t34 -12q19 0 25 18q2 7 8 7h47q7 0 6 -6q-16 -83 -86 -76z" />
    <glyph glyph-name="hungarumlaut" unicode="&#x2dd;" horiz-adv-x="278" 
d="M42 735q-10 0 -10 10v98q0 12 4.5 16.5t16.5 4.5h51q23 0 13 -27l-30 -85q-4 -11 -6.5 -14t-10.5 -3h-28zM168 735q-10 0 -10 10v98q0 12 4.5 16.5t16.5 4.5h51q23 0 13 -27l-30 -85q-4 -11 -6.5 -14t-10.5 -3h-28z" />
    <glyph glyph-name="uni0401" unicode="&#x401;" horiz-adv-x="346" 
d="M70 0q-11 0 -15.5 4.5t-4.5 15.5v660q0 11 4.5 15.5t15.5 4.5h211q11 0 15.5 -4.5t4.5 -15.5v-38q0 -11 -4.5 -15.5t-15.5 -4.5h-127q-15 0 -17.5 -2.5t-2.5 -17.5v-174q0 -15 2.5 -17.5t17.5 -2.5h127q11 0 15.5 -4.5t4.5 -15.5v-38q0 -11 -4.5 -15.5t-15.5 -4.5h-127
q-15 0 -17.5 -2.5t-2.5 -17.5v-212q0 -15 2.5 -17.5t17.5 -2.5h127q11 0 15.5 -4.5t4.5 -15.5v-38q0 -11 -4.5 -15.5t-15.5 -4.5h-211zM63 780q0 20 14 34t34 14t34.5 -14t14.5 -34t-14.5 -34.5t-34.5 -14.5t-34 14.5t-14 34.5zM191 780q0 20 14 34t34 14t34.5 -14t14.5 -34
t-14.5 -34.5t-34.5 -14.5t-34 14.5t-14 34.5z" />
    <glyph glyph-name="uni0402" unicode="&#x402;" horiz-adv-x="412" 
d="M288 350q0 41 -18.5 58.5t-43.5 17.5t-43.5 -17.5t-18.5 -58.5v-330q0 -11 -4.5 -15.5t-15.5 -4.5h-44q-11 0 -15.5 4.5t-4.5 15.5v582q0 15 -2.5 17.5t-16.5 2.5h-36q-11 0 -15.5 4.5t-4.5 15.5v38q0 11 4.5 15.5t15.5 4.5h194q11 0 15.5 -4.5t4.5 -15.5v-38
q0 -11 -4.5 -15.5t-15.5 -4.5h-35q-15 0 -17.5 -2.5t-2.5 -17.5v-136q27 35 74 38q60 2 97 -40t37 -130v-144q0 -106 -33 -148t-94 -42q-25 0 -30.5 3t-3.5 18l8 44q2 13 11 13q58 0 58 101v171z" />
    <glyph glyph-name="uni0403" unicode="&#x403;" horiz-adv-x="300" 
d="M50 680q0 11 4.5 15.5t15.5 4.5h195q11 0 15.5 -4.5t4.5 -15.5v-38q0 -11 -4.5 -15.5t-15.5 -4.5h-111q-15 0 -17.5 -2.5t-2.5 -17.5v-582q0 -11 -4.5 -15.5t-15.5 -4.5h-44q-11 0 -15.5 4.5t-4.5 15.5v660zM150 735q-10 0 -10 10v98q0 12 4.5 16.5t16.5 4.5h51
q23 0 13 -27l-30 -85q-4 -11 -6.5 -14t-10.5 -3h-28z" />
    <glyph glyph-name="uni0404" unicode="&#x404;" horiz-adv-x="395" 
d="M40 514q0 97 45.5 143.5t114.5 46.5q63 0 107.5 -39.5t51.5 -122.5q2 -29 -20 -29h-44q-11 0 -15 5t-5 21q-7 87 -75 87q-76 0 -76 -108v-108q0 -15 2.5 -17.5t17.5 -2.5h127q11 0 15.5 -4.5t4.5 -15.5v-38q0 -11 -4.5 -15.5t-15.5 -4.5h-127q-15 0 -17.5 -2.5
t-2.5 -17.5v-110q0 -108 76 -108q68 0 75 87q1 16 5 21t15 5h44q22 0 20 -29q-7 -83 -51.5 -122.5t-107.5 -39.5q-69 0 -114.5 46.5t-45.5 143.5v328z" />
    <glyph glyph-name="uni0405" unicode="&#x405;" horiz-adv-x="367" 
d="M181 -4q-68 0 -115 48.5t-45 115.5q0 13 4 17.5t17 4.5h41q19 0 20 -23q3 -45 26.5 -65t51.5 -20q34 0 54.5 21t23.5 51q4 36 -17 76t-54 77.5t-67.5 75.5t-60.5 83t-28 88q-4 65 38 111.5t109 46.5q53 0 95 -37.5t48 -95.5q2 -21 -1.5 -26.5t-18.5 -5.5h-38
q-11 0 -14.5 4.5t-5.5 18.5q-4 30 -22.5 47t-42.5 17q-30 0 -49 -23t-15 -56q4 -37 37.5 -83t72 -85t74 -94t41.5 -108q9 -70 -37.5 -125.5t-121.5 -55.5z" />
    <glyph glyph-name="uni0406" unicode="&#x406;" horiz-adv-x="184" 
d="M134 20q0 -11 -4.5 -15.5t-15.5 -4.5h-44q-11 0 -15.5 4.5t-4.5 15.5v660q0 11 4.5 15.5t15.5 4.5h44q11 0 15.5 -4.5t4.5 -15.5v-660z" />
    <glyph glyph-name="uni0407" unicode="&#x407;" horiz-adv-x="184" 
d="M134 20q0 -11 -4.5 -15.5t-15.5 -4.5h-44q-11 0 -15.5 4.5t-4.5 15.5v660q0 11 4.5 15.5t15.5 4.5h44q11 0 15.5 -4.5t4.5 -15.5v-660zM-21 780q0 20 14 34t34 14t34.5 -14t14.5 -34t-14.5 -34.5t-34.5 -14.5t-34 14.5t-14 34.5zM107 780q0 20 14 34t34 14t34.5 -14
t14.5 -34t-14.5 -34.5t-34.5 -14.5t-34 14.5t-14 34.5z" />
    <glyph glyph-name="uni0408" unicode="&#x408;" horiz-adv-x="228" 
d="M35 78q19 1 31.5 9t19 17t9.5 27.5t3.5 30.5t0.5 36v482q0 11 4.5 15.5t15.5 4.5h44q11 0 15.5 -4.5t4.5 -15.5v-480q0 -114 -31.5 -157t-116.5 -43q-11 0 -15.5 4.5t-4.5 15.5v38q0 11 4.5 15t15.5 5z" />
    <glyph glyph-name="uni0409" unicode="&#x409;" horiz-adv-x="624" 
d="M99 680q0 11 4.5 15.5t15.5 4.5h245q11 0 15.5 -4.5t4.5 -15.5v-210q30 30 73 30q61 0 94 -42.5t33 -148.5v-119q0 -106 -33 -148t-94 -42q-44 0 -73 32v-12q0 -11 -4.5 -15.5t-15.5 -4.5h-44q-11 0 -15.5 4.5t-4.5 15.5v582q0 15 -2.5 17.5t-17.5 2.5h-77
q-15 0 -17.5 -2.5t-2.5 -17.5v-402q0 -114 -31.5 -157t-116.5 -43q-11 0 -15.5 4.5t-4.5 15.5v38q0 11 4.5 15t15.5 5q19 1 31.5 9t19 17t9.5 27.5t3.5 30.5t0.5 36v482zM384 309v-119q0 -17 0.5 -25.5t1.5 -22.5t4 -21.5t8.5 -16t14.5 -12t21 -3.5q14 0 24 6t15 14t7.5 24
t3 26.5t0.5 30.5v119q0 17 -0.5 25.5t-1.5 23t-4 22t-8.5 16t-14.5 12t-21 3.5q-18 0 -29 -8t-15 -25.5t-5 -30.5t-1 -38z" />
    <glyph glyph-name="uni040A" unicode="&#x40a;" horiz-adv-x="597" 
d="M134 310v-290q0 -11 -4.5 -15.5t-15.5 -4.5h-44q-11 0 -15.5 4.5t-4.5 15.5v660q0 11 4.5 15.5t15.5 4.5h44q11 0 15.5 -4.5t4.5 -15.5v-252q0 -15 2.5 -17.5t17.5 -2.5h92q15 0 17.5 2.5t2.5 17.5v252q0 11 4.5 15.5t15.5 4.5h44q11 0 15.5 -4.5t4.5 -15.5v-213
q26 34 73 37q60 2 97 -40t37 -130v-168q0 -88 -37 -130t-97 -40q-48 3 -73 35v-11q0 -11 -4.5 -15.5t-15.5 -4.5h-44q-11 0 -15.5 4.5t-4.5 15.5v290q0 15 -2.5 17.5t-17.5 2.5h-92q-15 0 -17.5 -2.5t-2.5 -17.5zM411 426q-53 0 -61 -59v-234q8 -59 61 -59q25 0 43.5 17.5
t18.5 58.5v200q0 41 -18.5 58.5t-43.5 17.5z" />
    <glyph glyph-name="uni040B" unicode="&#x40b;" horiz-adv-x="417" 
d="M164 350v-330q0 -11 -4.5 -15.5t-15.5 -4.5h-44q-11 0 -15.5 4.5t-4.5 15.5v582q0 15 -2.5 17.5t-16.5 2.5h-36q-11 0 -15.5 4.5t-4.5 15.5v38q0 11 4.5 15.5t15.5 4.5h194q11 0 15.5 -4.5t4.5 -15.5v-38q0 -11 -4.5 -15.5t-15.5 -4.5h-35q-15 0 -17.5 -2.5t-2.5 -17.5
v-136q27 35 74 38q60 2 97 -40t37 -130v-314q0 -11 -4.5 -15.5t-15.5 -4.5h-44q-11 0 -15.5 4.5t-4.5 15.5v330q0 41 -18.5 58.5t-43.5 17.5t-43.5 -17.5t-18.5 -58.5z" />
    <glyph glyph-name="uni040C" unicode="&#x40c;" horiz-adv-x="381" 
d="M134 20q0 -11 -4.5 -15.5t-15.5 -4.5h-44q-11 0 -15.5 4.5t-4.5 15.5v660q0 11 4.5 15.5t15.5 4.5h44q11 0 15.5 -4.5t4.5 -15.5v-309q0 -5 3 -5.5t5 3.5l136 316q5 11 8.5 13t13.5 2h52q21 0 11 -21l-108 -251q-2 -5 0 -13l108 -395q5 -20 -18 -20h-40q-21 0 -26 20
l-77 283q0 2 -2 3.5t-3.5 0.5t-2.5 -3l-56 -130q-4 -9 -4 -22v-132zM182 735q-10 0 -10 10v98q0 12 4.5 16.5t16.5 4.5h51q23 0 13 -27l-30 -85q-4 -11 -6.5 -14t-10.5 -3h-28z" />
    <glyph glyph-name="uni040E" unicode="&#x40e;" horiz-adv-x="368" 
d="M115 18l27 123l-121 542q-3 11 2 14t15 3h44q8 0 11 -0.5t6.5 -4t4.5 -10.5l76 -373q1 -4 4 -4t4 4l76 373q1 7 4.5 10.5t6.5 4t11 0.5h44h6t5.5 -1t4 -2.5t2 -5t-0.5 -8.5l-148 -665q-2 -11 -6.5 -14.5t-16.5 -3.5h-45q-20 0 -16 18zM193 732q-45 0 -78 29.5t-36 84.5
q-1 14 2 17t17 3h19q12 0 15.5 -2.5t4.5 -14.5q6 -60 56 -60t56 60q1 12 4.5 14.5t15.5 2.5h19q10 0 13 -1t5 -5t1 -14q-3 -55 -36 -84.5t-78 -29.5z" />
    <glyph glyph-name="uni040F" unicode="&#x40f;" horiz-adv-x="416" 
d="M366 20q0 -11 -4.5 -15.5t-15.5 -4.5h-76q-15 0 -17.5 -2.5t-2.5 -17.5v-45q0 -11 -4.5 -15.5t-15.5 -4.5h-44q-11 0 -15.5 4.5t-4.5 15.5v45q0 15 -2.5 17.5t-17.5 2.5h-76q-11 0 -15.5 4.5t-4.5 15.5v660q0 11 4.5 15.5t15.5 4.5h44q11 0 15.5 -4.5t4.5 -15.5v-587
q0 -15 15 -15h118q15 0 15 15v587q0 11 4.5 15.5t15.5 4.5h44q11 0 15.5 -4.5t4.5 -15.5v-660z" />
    <glyph glyph-name="uni0410" unicode="&#x410;" horiz-adv-x="412" 
d="M364 0h-44q-8 0 -11 0.5t-6.5 4t-4.5 10.5l-11 62q-3 15 -6 17.5t-16 2.5h-117q-14 0 -17 -2.5t-6 -17.5l-11 -62q-1 -7 -4.5 -10.5t-6.5 -4t-11 -0.5h-44q-7 0 -10 0.5t-5.5 4.5t-1.5 12l126 665q2 11 6 14.5t16 3.5h54q12 0 16 -3.5t6 -14.5l126 -665q2 -11 -2.5 -14
t-14.5 -3zM202 534l-57 -339q-2 -15 0 -17.5t17 -2.5h88q15 0 17 2.5t0 17.5l-57 339q-1 4 -4 4t-4 -4z" />
    <glyph glyph-name="uni0411" unicode="&#x411;" horiz-adv-x="390" 
d="M134 602v-82q0 -15 2.5 -17.5t17.5 -2.5h36q69 0 114.5 -46.5t45.5 -143.5v-120q0 -97 -45.5 -143.5t-114.5 -46.5h-120q-11 0 -15.5 4.5t-4.5 15.5v660q0 11 4.5 15.5t15.5 4.5h240q11 0 15.5 -4.5t4.5 -15.5v-38q0 -11 -4.5 -15.5t-15.5 -4.5h-156q-15 0 -17.5 -2.5
t-2.5 -17.5zM134 401v-303q0 -15 2.5 -17.5t17.5 -2.5h36q76 0 76 108v128q0 108 -76 108h-36q-15 0 -17.5 -2.5t-2.5 -18.5z" />
    <glyph glyph-name="uni0412" unicode="&#x412;" horiz-adv-x="390" 
d="M350 520q0 -98 -48 -146q-5 -5 0 -10q48 -51 48 -146v-28q0 -97 -45.5 -143.5t-114.5 -46.5h-120q-11 0 -15.5 4.5t-4.5 15.5v660q0 11 4.5 15.5t15.5 4.5h120q67 0 112.5 -44.5t47.5 -135.5zM134 310v-212q0 -15 2.5 -17.5t17.5 -2.5h36q76 0 76 108v36q0 103 -70 108
h-42q-15 0 -17.5 -2.5t-2.5 -17.5zM134 429q0 -16 2.5 -18.5t17.5 -2.5h42q70 3 70 108q0 106 -76 106h-36q-15 0 -17.5 -2.5t-2.5 -17.5v-173z" />
    <glyph glyph-name="uni0413" unicode="&#x413;" horiz-adv-x="300" 
d="M50 680q0 11 4.5 15.5t15.5 4.5h195q11 0 15.5 -4.5t4.5 -15.5v-38q0 -11 -4.5 -15.5t-15.5 -4.5h-111q-15 0 -17.5 -2.5t-2.5 -17.5v-582q0 -11 -4.5 -15.5t-15.5 -4.5h-44q-11 0 -15.5 4.5t-4.5 15.5v660z" />
    <glyph glyph-name="uni0414" unicode="&#x414;" horiz-adv-x="498" 
d="M399 680v-582q0 -15 2.5 -17.5t17.5 -2.5h44q11 0 15.5 -4.5t4.5 -15.5v-123q0 -11 -4.5 -15.5t-15.5 -4.5h-44q-11 0 -15.5 4.5t-4.5 15.5v45q0 15 -2.5 17.5t-17.5 2.5h-265q-15 0 -15 -15v-51q0 -11 -4.5 -15.5t-15.5 -4.5h-44q-11 0 -15.5 4.5t-4.5 15.5v124
q0 11 4.5 15.5t15.5 4.5h31q8 34 20.5 93t33 218t20.5 291q0 11 4.5 15.5t15.5 4.5h219q11 0 15.5 -4.5t4.5 -15.5zM219 607q-4 -106 -21 -238.5t-32 -211.5l-15 -79h144q15 0 17.5 2.5t2.5 17.5v509q0 15 -15 15h-66q-15 0 -15 -15z" />
    <glyph glyph-name="uni0415" unicode="&#x415;" horiz-adv-x="346" 
d="M70 0q-11 0 -15.5 4.5t-4.5 15.5v660q0 11 4.5 15.5t15.5 4.5h211q11 0 15.5 -4.5t4.5 -15.5v-38q0 -11 -4.5 -15.5t-15.5 -4.5h-127q-15 0 -17.5 -2.5t-2.5 -17.5v-174q0 -15 2.5 -17.5t17.5 -2.5h127q11 0 15.5 -4.5t4.5 -15.5v-38q0 -11 -4.5 -15.5t-15.5 -4.5h-127
q-15 0 -17.5 -2.5t-2.5 -17.5v-212q0 -15 2.5 -17.5t17.5 -2.5h127q11 0 15.5 -4.5t4.5 -15.5v-38q0 -11 -4.5 -15.5t-15.5 -4.5h-211z" />
    <glyph glyph-name="uni0416" unicode="&#x416;" horiz-adv-x="501" 
d="M23 21l120 330l-120 328q-8 21 8 21h51q11 0 14.5 -2t7.5 -13l94 -265q2 -5 6.5 -5t4.5 7v258q0 11 4.5 15.5t15.5 4.5h43q11 0 15.5 -4.5t4.5 -15.5v-258q0 -7 5 -7t6 5l94 265q4 11 7.5 13t14.5 2h51q16 0 8 -21l-120 -328l120 -330q8 -21 -8 -21h-51q-11 0 -14.5 2
t-7.5 13l-94 267q-1 5 -6 5t-5 -7v-260q0 -11 -4.5 -15.5t-15.5 -4.5h-43q-11 0 -15.5 4.5t-4.5 15.5v260q0 7 -4.5 7t-6.5 -5l-94 -267q-4 -11 -7.5 -13t-14.5 -2h-51q-16 0 -8 21z" />
    <glyph glyph-name="uni0417" unicode="&#x417;" horiz-adv-x="371" 
d="M331 477q0 -63 -32 -108q32 -45 32 -107v-97q0 -67 -36.5 -118t-110.5 -51q-73 0 -111 50t-38 121q0 11 4.5 15.5t15.5 4.5h40q11 0 15.5 -4.5t4.5 -15.5v-7q1 -43 20 -64.5t48 -21.5q26 0 43 16t21 39q2 10 2 21v107q0 34 -18 53.5t-50 19.5h-14q-16 1 -16 20v38
q0 11 4.5 15.5t15.5 4.5h10q32 1 49.5 21t18.5 52v69q0 11 -2 21q-4 23 -21 39t-43 16q-29 0 -48 -21.5t-20 -64.5v-7q0 -11 -4.5 -15.5t-15.5 -4.5h-40q-11 0 -15.5 4.5t-4.5 15.5q0 71 38 121t111 50q74 0 110.5 -51t36.5 -118v-58z" />
    <glyph glyph-name="uni0418" unicode="&#x418;" horiz-adv-x="425" 
d="M107 0h-37q-11 0 -15.5 4.5t-4.5 15.5v660q0 11 4.5 15.5t15.5 4.5h44q11 0 15.5 -4.5t4.5 -15.5v-411q0 -2 1.5 -3.5t3.5 -0.5t3 4l156 418q5 13 20 13h37q11 0 15.5 -4.5t4.5 -15.5v-660q0 -11 -4.5 -15.5t-15.5 -4.5h-44q-11 0 -15.5 4.5t-4.5 15.5v410q0 6 -5 4
q-2 0 -3 -4l-156 -418q-5 -12 -20 -12z" />
    <glyph glyph-name="uni0419" unicode="&#x419;" horiz-adv-x="425" 
d="M107 0h-37q-11 0 -15.5 4.5t-4.5 15.5v660q0 11 4.5 15.5t15.5 4.5h44q11 0 15.5 -4.5t4.5 -15.5v-411q0 -2 1.5 -3.5t3.5 -0.5t3 4l156 418q5 13 20 13h37q11 0 15.5 -4.5t4.5 -15.5v-660q0 -11 -4.5 -15.5t-15.5 -4.5h-44q-11 0 -15.5 4.5t-4.5 15.5v410q0 6 -5 4
q-2 0 -3 -4l-156 -418q-5 -12 -20 -12zM215 731q-45 0 -78 29.5t-36 84.5q-1 14 2 17t17 3h19q12 0 15.5 -2.5t4.5 -14.5q6 -60 56 -60t56 60q1 12 4.5 14.5t15.5 2.5h19q10 0 13 -1t5 -5t1 -14q-3 -55 -36 -84.5t-78 -29.5z" />
    <glyph glyph-name="uni041A" unicode="&#x41a;" horiz-adv-x="381" 
d="M134 20q0 -11 -4.5 -15.5t-15.5 -4.5h-44q-11 0 -15.5 4.5t-4.5 15.5v660q0 11 4.5 15.5t15.5 4.5h44q11 0 15.5 -4.5t4.5 -15.5v-309q0 -5 3 -5.5t5 3.5l136 316q5 11 8.5 13t13.5 2h52q21 0 11 -21l-108 -251q-2 -5 0 -13l108 -395q5 -20 -18 -20h-40q-21 0 -26 20
l-77 283q0 2 -2 3.5t-3.5 0.5t-2.5 -3l-56 -130q-4 -9 -4 -22v-132z" />
    <glyph glyph-name="uni041B" unicode="&#x41b;" horiz-adv-x="434" 
d="M99 680q0 11 4.5 15.5t15.5 4.5h245q11 0 15.5 -4.5t4.5 -15.5v-660q0 -11 -4.5 -15.5t-15.5 -4.5h-44q-11 0 -15.5 4.5t-4.5 15.5v582q0 15 -2.5 17.5t-17.5 2.5h-77q-15 0 -17.5 -2.5t-2.5 -17.5v-402q0 -114 -31.5 -157t-116.5 -43q-11 0 -15.5 4.5t-4.5 15.5v38
q0 11 4.5 15t15.5 5q19 1 31.5 9t19 17t9.5 27.5t3.5 30.5t0.5 36v482z" />
    <glyph glyph-name="uni041C" unicode="&#x41c;" horiz-adv-x="502" 
d="M240 0q-18 0 -22 14l-78 316q-1 5 -5 3q-1 -1 -1 -3v-310q0 -11 -4.5 -15.5t-15.5 -4.5h-44q-11 0 -15.5 4.5t-4.5 15.5v660q0 11 4.5 15.5t15.5 4.5h37q11 0 14 -2.5t5 -9.5l121 -490q1 -4 4 -4t4 4l121 490q3 12 19 12h37q11 0 15.5 -4.5t4.5 -15.5v-660
q0 -11 -4.5 -15.5t-15.5 -4.5h-44q-11 0 -15.5 4.5t-4.5 15.5v310q0 5 -4 3q-2 -1 -2 -3l-78 -316q-4 -14 -22 -14h-22z" />
    <glyph glyph-name="uni041D" unicode="&#x41d;" horiz-adv-x="400" 
d="M134 310v-290q0 -11 -4.5 -15.5t-15.5 -4.5h-44q-11 0 -15.5 4.5t-4.5 15.5v660q0 11 4.5 15.5t15.5 4.5h44q11 0 15.5 -4.5t4.5 -15.5v-252q0 -15 2.5 -17.5t17.5 -2.5h92q15 0 17.5 2.5t2.5 17.5v252q0 11 4.5 15.5t15.5 4.5h44q11 0 15.5 -4.5t4.5 -15.5v-660
q0 -11 -4.5 -15.5t-15.5 -4.5h-44q-11 0 -15.5 4.5t-4.5 15.5v290q0 15 -2.5 17.5t-17.5 2.5h-92q-15 0 -17.5 -2.5t-2.5 -17.5z" />
    <glyph glyph-name="uni041E" unicode="&#x41e;" horiz-adv-x="400" 
d="M360 514v-328q0 -97 -45.5 -143.5t-114.5 -46.5t-114.5 46.5t-45.5 143.5v328q0 97 45.5 143.5t114.5 46.5t114.5 -46.5t45.5 -143.5zM124 518v-336q0 -108 76 -108t76 108v336q0 108 -76 108t-76 -108z" />
    <glyph glyph-name="uni041F" unicode="&#x41f;" horiz-adv-x="418" 
d="M154 622q-15 0 -17.5 -2.5t-2.5 -17.5v-582q0 -11 -4.5 -15.5t-15.5 -4.5h-44q-11 0 -15.5 4.5t-4.5 15.5v660q0 11 4.5 15.5t15.5 4.5h278q11 0 15.5 -4.5t4.5 -15.5v-660q0 -11 -4.5 -15.5t-15.5 -4.5h-44q-11 0 -15.5 4.5t-4.5 15.5v582q0 15 -2.5 17.5t-17.5 2.5
h-110z" />
    <glyph glyph-name="uni0420" unicode="&#x420;" horiz-adv-x="380" 
d="M70 700h120q69 0 114.5 -46.5t45.5 -143.5v-76q0 -97 -45.5 -143.5t-114.5 -46.5h-36q-15 0 -17.5 -2.5t-2.5 -17.5v-204q0 -20 -20 -20h-44q-12 0 -16 4.5t-4 15.5v660q0 11 4.5 15.5t15.5 4.5zM134 343q0 -16 2.5 -18.5t17.5 -2.5h36q76 0 76 108v84q0 108 -76 108h-36
q-15 0 -17.5 -2.5t-2.5 -17.5v-259z" />
    <glyph glyph-name="uni0421" unicode="&#x421;" horiz-adv-x="395" 
d="M124 518v-336q0 -108 76 -108q68 0 75 87q1 16 5 21t15 5h44q22 0 20 -29q-7 -83 -51.5 -122.5t-107.5 -39.5q-69 0 -114.5 46.5t-45.5 143.5v328q0 97 45.5 143.5t114.5 46.5q63 0 107.5 -39.5t51.5 -122.5q2 -29 -20 -29h-44q-11 0 -15 5t-5 21q-7 87 -75 87
q-76 0 -76 -108z" />
    <glyph glyph-name="uni0422" unicode="&#x422;" horiz-adv-x="330" 
d="M15 680q0 11 4.5 15.5t15.5 4.5h260q11 0 15.5 -4.5t4.5 -15.5v-38q0 -11 -4.5 -15.5t-15.5 -4.5h-68q-15 0 -17.5 -2.5t-2.5 -17.5v-582q0 -11 -4.5 -15.5t-15.5 -4.5h-44q-11 0 -15.5 4.5t-4.5 15.5v582q0 15 -2.5 17.5t-16.5 2.5h-69q-11 0 -15.5 4.5t-4.5 15.5v38z
" />
    <glyph glyph-name="uni0423" unicode="&#x423;" horiz-adv-x="368" 
d="M115 18l27 123l-121 542q-3 11 2 14t15 3h44q8 0 11 -0.5t6.5 -4t4.5 -10.5l76 -373q1 -4 4 -4t4 4l76 373q1 7 4.5 10.5t6.5 4t11 0.5h44h6t5.5 -1t4 -2.5t2 -5t-0.5 -8.5l-148 -665q-2 -11 -6.5 -14.5t-16.5 -3.5h-45q-20 0 -16 18z" />
    <glyph glyph-name="uni0424" unicode="&#x424;" horiz-adv-x="536" 
d="M246 0q-20 0 -20 20v9q0 15 -2.5 17.5t-17.5 2.5h-6q-69 0 -114.5 46.5t-45.5 143.5v222q0 97 45.5 143.5t114.5 46.5h6q15 0 17.5 2.5t2.5 17.5v9q0 20 20 20h44q20 0 20 -20v-9q0 -15 2.5 -17.5t17.5 -2.5h6q69 0 114.5 -46.5t45.5 -143.5v-222q0 -97 -45.5 -143.5
t-114.5 -46.5h-6q-15 0 -17.5 -2.5t-2.5 -17.5v-9q0 -20 -20 -20h-44zM200 127h6q15 0 17.5 2.5t2.5 18.5v404q0 16 -2.5 18.5t-17.5 2.5h-6q-76 0 -76 -108v-230q0 -108 76 -108zM336 127q76 0 76 108v230q0 108 -76 108h-6q-15 0 -17.5 -2.5t-2.5 -18.5v-404
q0 -16 2.5 -18.5t17.5 -2.5h6z" />
    <glyph glyph-name="uni0425" unicode="&#x425;" horiz-adv-x="342" 
d="M17 21l105 329l-105 329q-7 21 11 21h48q11 0 14.5 -2t7.5 -13l69 -221q4 -10 8 0l69 221q4 11 7.5 13t14.5 2h48q18 0 11 -21l-105 -329l105 -329q7 -21 -11 -21h-48q-11 0 -14.5 2t-7.5 13l-69 221q-4 10 -8 0l-69 -221q-4 -11 -7.5 -13t-14.5 -2h-48q-18 0 -11 21z
" />
    <glyph glyph-name="uni0426" unicode="&#x426;" horiz-adv-x="450" 
d="M70 0q-11 0 -15.5 4.5t-4.5 15.5v660q0 11 4.5 15.5t15.5 4.5h44q11 0 15.5 -4.5t4.5 -15.5v-582q0 -15 2.5 -17.5t17.5 -2.5h93q15 0 17.5 2.5t2.5 17.5v582q0 11 4.5 15.5t15.5 4.5h44q11 0 15.5 -4.5t4.5 -15.5v-582q0 -15 2.5 -17.5t17.5 -2.5h44q11 0 15.5 -4.5
t4.5 -15.5v-123q0 -11 -4.5 -15.5t-15.5 -4.5h-44q-11 0 -15.5 4.5t-4.5 15.5v45q0 15 -2.5 17.5t-17.5 2.5h-261z" />
    <glyph glyph-name="uni0427" unicode="&#x427;" horiz-adv-x="380" 
d="M330 20q0 -11 -4 -15.5t-16 -4.5h-44q-20 0 -20 20v243q0 15 -2.5 17.5t-17.5 2.5h-36q-69 0 -114.5 46.5t-45.5 143.5v207q0 11 4.5 15.5t15.5 4.5h44q11 0 15.5 -4.5t4.5 -15.5v-211q0 -108 76 -108h36q15 0 17.5 2.5t2.5 18.5v298q0 11 4.5 15.5t15.5 4.5h44
q11 0 15.5 -4.5t4.5 -15.5v-660z" />
    <glyph glyph-name="uni0428" unicode="&#x428;" horiz-adv-x="563" 
d="M240 680q0 11 4.5 15.5t15.5 4.5h43q11 0 15.5 -4.5t4.5 -15.5v-582q0 -15 2.5 -17.5t17.5 -2.5h66q15 0 17.5 2.5t2.5 17.5v582q0 11 4.5 15.5t15.5 4.5h44q11 0 15.5 -4.5t4.5 -15.5v-660q0 -11 -4.5 -15.5t-15.5 -4.5h-423q-11 0 -15.5 4.5t-4.5 15.5v660
q0 11 4.5 15.5t15.5 4.5h44q11 0 15.5 -4.5t4.5 -15.5v-582q0 -15 2.5 -17.5t17.5 -2.5h66q15 0 17.5 2.5t2.5 17.5v582z" />
    <glyph glyph-name="uni0429" unicode="&#x429;" horiz-adv-x="613" 
d="M578 78q11 0 15.5 -4.5t4.5 -15.5v-123q0 -11 -4.5 -15.5t-15.5 -4.5h-44q-11 0 -15.5 4.5t-4.5 15.5v45q0 15 -2.5 17.5t-17.5 2.5h-424q-11 0 -15.5 4.5t-4.5 15.5v660q0 11 4.5 15.5t15.5 4.5h44q11 0 15.5 -4.5t4.5 -15.5v-582q0 -15 2.5 -17.5t17.5 -2.5h66
q15 0 17.5 2.5t2.5 17.5v582q0 11 4.5 15.5t15.5 4.5h44q11 0 15.5 -4.5t4.5 -15.5v-582q0 -15 2.5 -17.5t17.5 -2.5h66q15 0 17.5 2.5t2.5 17.5v582q0 11 4.5 15.5t15.5 4.5h44q11 0 15.5 -4.5t4.5 -15.5v-582q0 -15 2.5 -17.5t17.5 -2.5h44z" />
    <glyph glyph-name="uni042A" unicode="&#x42a;" horiz-adv-x="430" 
d="M90 602q0 15 -2.5 17.5t-17.5 2.5h-35q-11 0 -15.5 4.5t-4.5 15.5v38q0 11 4.5 15.5t15.5 4.5h119q11 0 15.5 -4.5t4.5 -15.5v-160q0 -15 2.5 -17.5t17.5 -2.5h36q69 0 114.5 -46.5t45.5 -143.5v-120q0 -97 -45.5 -143.5t-114.5 -46.5h-120q-11 0 -15.5 4.5t-4.5 15.5
v582zM174 401v-303q0 -15 2.5 -17.5t17.5 -2.5h36q76 0 76 108v128q0 108 -76 108h-36q-15 0 -17.5 -2.5t-2.5 -18.5z" />
    <glyph glyph-name="uni042B" unicode="&#x42b;" horiz-adv-x="537" 
d="M423 0q-7 0 -10 0.5t-6.5 5.5t-3.5 14v660q0 11 4.5 15.5t15.5 4.5h44q11 0 15.5 -4.5t4.5 -15.5v-660q0 -9 -3.5 -14t-6.5 -5.5t-10 -0.5h-44zM190 0h-120q-11 0 -15.5 4.5t-4.5 15.5v660q0 11 4 15.5t16 4.5h44q20 0 20 -20v-160q0 -15 2.5 -17.5t17.5 -2.5h36
q69 0 114.5 -46.5t45.5 -143.5v-120q0 -97 -45.5 -143.5t-114.5 -46.5zM134 401v-303q0 -15 2.5 -17.5t17.5 -2.5h36q76 0 76 108v128q0 108 -76 108h-36q-15 0 -17.5 -2.5t-2.5 -18.5z" />
    <glyph glyph-name="uni042C" unicode="&#x42c;" horiz-adv-x="390" 
d="M190 0h-120q-11 0 -15.5 4.5t-4.5 15.5v660q0 11 4 15.5t16 4.5h44q20 0 20 -20v-160q0 -15 2.5 -17.5t17.5 -2.5h36q69 0 114.5 -46.5t45.5 -143.5v-120q0 -97 -45.5 -143.5t-114.5 -46.5zM134 401v-303q0 -15 2.5 -17.5t17.5 -2.5h36q76 0 76 108v128q0 108 -76 108
h-36q-15 0 -17.5 -2.5t-2.5 -18.5z" />
    <glyph glyph-name="uni042D" unicode="&#x42d;" horiz-adv-x="395" 
d="M355 514v-328q0 -97 -45.5 -143.5t-114.5 -46.5q-63 0 -107.5 39.5t-51.5 122.5q-2 29 20 29h44q11 0 15 -5t5 -21q7 -87 75 -87q76 0 76 108v110q0 15 -2.5 17.5t-17.5 2.5h-127q-11 0 -15.5 4.5t-4.5 15.5v38q0 11 4.5 15.5t15.5 4.5h127q15 0 17.5 2.5t2.5 17.5v108
q0 108 -76 108q-68 0 -75 -87q-1 -16 -5 -21t-15 -5h-44q-22 0 -20 29q7 83 51.5 122.5t107.5 39.5q69 0 114.5 -46.5t45.5 -143.5z" />
    <glyph glyph-name="uni042E" unicode="&#x42e;" horiz-adv-x="542" 
d="M202 310q0 15 -2.5 17.5t-17.5 2.5h-28q-15 0 -17.5 -2.5t-2.5 -17.5v-290q0 -11 -4.5 -15.5t-15.5 -4.5h-44q-11 0 -15.5 4.5t-4.5 15.5v660q0 11 4.5 15.5t15.5 4.5h44q11 0 15.5 -4.5t4.5 -15.5v-252q0 -15 2.5 -17.5t17.5 -2.5h28q15 0 17.5 2.5t2.5 17.5v86
q0 98 41.5 144t108.5 46t108.5 -46t41.5 -144v-328q0 -98 -41.5 -144t-108.5 -46t-108.5 46t-41.5 144v124zM286 182q0 -108 66 -108t66 108v336q0 108 -66 108t-66 -108v-336z" />
    <glyph glyph-name="uni042F" unicode="&#x42f;" horiz-adv-x="390" 
d="M200 700h120q11 0 15.5 -4.5t4.5 -15.5v-660q0 -11 -4 -15.5t-16 -4.5h-44q-20 0 -20 20v253q0 15 -2.5 17.5t-17.5 2.5h-44q-10 0 -12 -9l-54 -269q-1 -7 -4.5 -10.5t-6.5 -4t-11 -0.5h-47q-17 0 -12 21q47 236 60 298l1 3q-66 47 -66 161v27q0 97 45.5 143.5
t114.5 46.5zM256 392v210q0 15 -2.5 17.5t-17.5 2.5h-36q-76 0 -76 -108v-35q0 -108 76 -108h36q15 0 17.5 2.5t2.5 18.5z" />
    <glyph glyph-name="uni0430" unicode="&#x430;" 
d="M325 0h-43q-11 0 -15.5 6t-6.5 26q-41 -36 -96 -36q-56 0 -91.5 34.5t-35.5 98.5v18q0 51 21.5 82.5t52.5 44t62.5 21.5t54 25.5t23.5 45.5q1 23 -15.5 41.5t-44.5 18.5q-26 0 -45 -19.5t-19 -52.5q0 -12 -4 -16.5t-16 -4.5h-38q-11 0 -15 4.5t-5 15.5q-2 62 40 106.5
t103 44.5q59 0 102 -42.5t43 -111.5v-281q1 -21 8 -49q4 -20 -20 -20zM187 74q66 3 66 82v100q-17 -8 -47.5 -21t-39.5 -18t-23.5 -17t-18 -25.5t-3.5 -35.5q0 -12 3 -25t19 -27t44 -13z" />
    <glyph glyph-name="uni0431" unicode="&#x431;" horiz-adv-x="380" 
d="M124 465q38 38 87 39q57 2 93 -41.5t36 -128.5v-154q0 -95 -44 -139.5t-106 -44.5t-106 44.5t-44 139.5v280q0 152 136 163q24 2 33.5 4t20 14.5t13.5 38.5q2 12 5.5 16t14.5 4h33q21 0 20 -20q-5 -67 -35.5 -94t-78.5 -31q-45 -4 -61.5 -21t-16.5 -58v-11zM256 344
q0 44 -20 63t-46 19t-46 -19t-20 -63v-188q0 -44 20 -63t46 -19t46 19t20 63v188z" />
    <glyph glyph-name="uni0432" unicode="&#x432;" horiz-adv-x="371" 
d="M70 0q-11 0 -15.5 4.5t-4.5 15.5v460q0 11 4.5 15.5t15.5 4.5h117q70 0 107 -43t37 -108q0 -60 -30 -99q30 -39 30 -99q0 -65 -37 -108t-107 -43h-117zM134 98q0 -15 2.5 -17.5t17.5 -2.5h19q74 0 74 73q0 72 -74 72h-19q-9 0 -12 -0.5t-5.5 -2.5t-2.5 -7v-115zM173 422
h-19q-15 0 -17.5 -2.5t-2.5 -17.5v-105q0 -15 2.5 -17.5t17.5 -2.5h19q74 0 74 72q0 73 -74 73z" />
    <glyph glyph-name="uni0433" unicode="&#x433;" horiz-adv-x="272" 
d="M50 480q0 11 4.5 15.5t15.5 4.5h167q11 0 15.5 -4.5t4.5 -15.5v-38q0 -11 -4.5 -15.5t-15.5 -4.5h-83q-15 0 -17.5 -2.5t-2.5 -17.5v-382q0 -11 -4.5 -15.5t-15.5 -4.5h-44q-11 0 -15.5 4.5t-4.5 15.5v460z" />
    <glyph glyph-name="uni0434" unicode="&#x434;" horiz-adv-x="470" 
d="M371 480v-402h64q11 0 15.5 -4.5t4.5 -15.5v-123q0 -11 -4.5 -15.5t-15.5 -4.5h-44q-11 0 -15.5 4.5t-4.5 15.5v50q0 15 -15 15h-242q-15 0 -15 -15v-50q0 -11 -4.5 -15.5t-15.5 -4.5h-44q-11 0 -15.5 4.5t-4.5 15.5v123q0 11 4.5 15.5t15.5 4.5h23q3 4 8 13t18 43.5
t22.5 76t17.5 114t8 155.5q0 11 4.5 15.5t15.5 4.5h199q11 0 15.5 -4.5t4.5 -15.5zM211 407q0 -87 -15.5 -169t-31.5 -121l-15 -39h138v329q0 15 -15 15h-46q-15 0 -15 -15z" />
    <glyph glyph-name="uni0435" unicode="&#x435;" horiz-adv-x="380" 
d="M40 180v140q0 95 44 139.5t106 44.5t106 -44.5t44 -139.5v-67q0 -12 -4.5 -16t-16.5 -4h-175q-11 0 -15.5 -4.5t-4.5 -15.5v-60q0 -38 18.5 -58.5t47.5 -20.5q27 0 45.5 18t19.5 49q1 14 4.5 20t15.5 6h40q11 0 15 -4.5t5 -15.5q3 -52 -35 -101.5t-110 -49.5
q-62 0 -106 44.5t-44 139.5zM256 347q0 38 -18.5 58.5t-47.5 20.5t-47.5 -20.5t-18.5 -58.5v-20q0 -11 4.5 -15.5t15.5 -4.5h92q11 0 15.5 4.5t4.5 15.5v20z" />
    <glyph glyph-name="uni0436" unicode="&#x436;" horiz-adv-x="488" 
d="M366 250l99 -229q9 -21 -11 -21h-48q-10 0 -14 2.5t-8 12.5l-90 209q-2 4 -5.5 3.5t-3.5 -5.5v-202q0 -11 -4.5 -15.5t-15.5 -4.5h-42q-11 0 -15.5 4.5t-4.5 15.5v202q0 5 -3.5 5.5t-5.5 -3.5l-90 -209q-4 -10 -8 -12.5t-14 -2.5h-48q-20 0 -11 21l99 229l-99 229
q-9 21 11 21h48q10 0 14 -2.5t8 -12.5l90 -209q2 -4 5.5 -3.5t3.5 5.5v202q0 11 4.5 15.5t15.5 4.5h42q11 0 15.5 -4.5t4.5 -15.5v-202q0 -5 3.5 -5.5t5.5 3.5l90 209q4 10 8 12.5t14 2.5h48q20 0 11 -21z" />
    <glyph glyph-name="uni0437" unicode="&#x437;" horiz-adv-x="373" 
d="M185 269q0 11 4.5 15.5t15.5 4.5q22 0 35.5 24.5t9.5 54.5q-3 25 -22 41.5t-42 16.5q-26 0 -45 -18t-20 -49q-1 -14 -4.5 -20t-15.5 -6h-40q-11 0 -15 4.5t-5 15.5q-3 52 35 101.5t110 49.5q69 0 108 -47.5t39 -103.5q0 -58 -40 -103q40 -45 40 -103q0 -56 -39 -103.5
t-108 -47.5q-72 0 -110 49.5t-35 101.5q1 11 5 15.5t15 4.5h40q12 0 15.5 -6t4.5 -20q1 -31 20 -49t45 -18q23 0 42 16.5t22 41.5q4 30 -9.5 54.5t-35.5 24.5q-11 0 -15.5 4.5t-4.5 15.5v38z" />
    <glyph glyph-name="uni0438" unicode="&#x438;" horiz-adv-x="405" 
d="M99 0h-29q-11 0 -15.5 4.5t-4.5 15.5v460q0 11 4.5 15.5t15.5 4.5h44q11 0 15.5 -4.5t4.5 -15.5v-264q0 -5 3 -5t5 4l144 272q5 9 8 11t12 2h29q11 0 15.5 -4.5t4.5 -15.5v-460q0 -11 -4.5 -15.5t-15.5 -4.5h-44q-11 0 -15.5 4.5t-4.5 15.5v265q0 4 -3 4.5t-5 -3.5
l-144 -274q-6 -12 -20 -12z" />
    <glyph glyph-name="uni0439" unicode="&#x439;" horiz-adv-x="405" 
d="M99 0h-29q-11 0 -15.5 4.5t-4.5 15.5v460q0 11 4.5 15.5t15.5 4.5h44q11 0 15.5 -4.5t4.5 -15.5v-264q0 -5 3 -5t5 4l144 272q5 9 8 11t12 2h29q11 0 15.5 -4.5t4.5 -15.5v-460q0 -11 -4.5 -15.5t-15.5 -4.5h-44q-11 0 -15.5 4.5t-4.5 15.5v265q0 4 -3 4.5t-5 -3.5
l-144 -274q-6 -12 -20 -12zM209 546q-45 0 -78 29.5t-36 84.5q-1 14 2 17t17 3h19q12 0 15.5 -2.5t4.5 -14.5q6 -60 56 -60t56 60q1 12 4.5 14.5t15.5 2.5h19q10 0 13 -1t5 -5t1 -14q-3 -55 -36 -84.5t-78 -29.5z" />
    <glyph glyph-name="uni043A" unicode="&#x43a;" horiz-adv-x="348" 
d="M50 480q0 11 4.5 15.5t15.5 4.5h44q11 0 15.5 -4.5t4.5 -15.5v-182q0 -5 3.5 -5.5t5.5 3.5l103 189q6 11 9 13t13 2h52q7 0 10.5 -5t-1.5 -16l-125 -229l125 -229q5 -11 1.5 -16t-10.5 -5h-52q-10 0 -13 2t-9 13l-103 189q-2 4 -5.5 3.5t-3.5 -5.5v-182q0 -11 -4.5 -15.5
t-15.5 -4.5h-44q-11 0 -15.5 4.5t-4.5 15.5v460z" />
    <glyph glyph-name="uni043B" unicode="&#x43b;" horiz-adv-x="424" 
d="M99 480q0 11 4.5 15.5t15.5 4.5h235q11 0 15.5 -4.5t4.5 -15.5v-460q0 -11 -4.5 -15.5t-15.5 -4.5h-44q-11 0 -15.5 4.5t-4.5 15.5v382q0 15 -2.5 17.5t-17.5 2.5h-67q-15 0 -17.5 -2.5t-2.5 -17.5v-202q0 -114 -31.5 -157t-116.5 -43q-11 0 -15.5 4.5t-4.5 15.5v38
q0 11 4.5 15t15.5 5q19 1 31.5 9t19 17t9.5 27.5t3.5 30.5t0.5 36v282z" />
    <glyph glyph-name="uni043C" unicode="&#x43c;" horiz-adv-x="488" 
d="M239 195q1 -4 5 -4t5 4l120 292q5 13 20 13h29q11 0 15.5 -4.5t4.5 -15.5v-460q0 -11 -4.5 -15.5t-15.5 -4.5h-44q-11 0 -15.5 4.5t-4.5 15.5v219q0 2 -1.5 3.5t-3.5 0.5t-3 -4l-97 -236q-1 -3 -5 -3t-5 3l-97 236q-1 3 -3 4t-3.5 -0.5t-1.5 -3.5v-219q0 -11 -4.5 -15.5
t-15.5 -4.5h-44q-11 0 -15.5 4.5t-4.5 15.5v460q0 11 4.5 15.5t15.5 4.5h29q6 0 9 -0.5t5.5 -3.5t5.5 -9z" />
    <glyph glyph-name="uni043D" unicode="&#x43d;" horiz-adv-x="390" 
d="M276 0q-11 0 -15.5 4.5t-4.5 15.5v177q0 15 -2.5 17.5t-17.5 2.5h-82q-15 0 -17.5 -2.5t-2.5 -17.5v-177q0 -11 -4.5 -15.5t-15.5 -4.5h-44q-11 0 -15.5 4.5t-4.5 15.5v460q0 11 4.5 15.5t15.5 4.5h44q11 0 15.5 -4.5t4.5 -15.5v-165q0 -15 2.5 -17.5t17.5 -2.5h82
q15 0 17.5 2.5t2.5 17.5v165q0 11 4.5 15.5t15.5 4.5h44q11 0 15.5 -4.5t4.5 -15.5v-460q0 -11 -4.5 -15.5t-15.5 -4.5h-44z" />
    <glyph glyph-name="uni043E" unicode="&#x43e;" horiz-adv-x="380" 
d="M340 320v-140q0 -95 -44 -139.5t-106 -44.5t-106 44.5t-44 139.5v140q0 95 44 139.5t106 44.5t106 -44.5t44 -139.5zM256 344q0 44 -20 63t-46 19t-46 -19t-20 -63v-188q0 -44 20 -63t46 -19t46 19t20 63v188z" />
    <glyph glyph-name="uni043F" unicode="&#x43f;" horiz-adv-x="390" 
d="M154 422q-15 0 -17.5 -2.5t-2.5 -17.5v-382q0 -11 -4.5 -15.5t-15.5 -4.5h-44q-11 0 -15.5 4.5t-4.5 15.5v460q0 11 4.5 15.5t15.5 4.5h250q11 0 15.5 -4.5t4.5 -15.5v-460q0 -11 -4.5 -15.5t-15.5 -4.5h-44q-11 0 -15.5 4.5t-4.5 15.5v382q0 15 -2.5 17.5t-17.5 2.5h-82
z" />
    <glyph glyph-name="uni0440" unicode="&#x440;" 
d="M134 350v-200q0 -41 18.5 -58.5t43.5 -17.5t43.5 17.5t18.5 58.5v200q0 41 -18.5 58.5t-43.5 17.5t-43.5 -17.5t-18.5 -58.5zM70 500h44q11 0 15.5 -4.5t4.5 -15.5v-13q26 34 74 37q60 2 97 -40t37 -130v-168q0 -88 -37 -130t-97 -40q-47 3 -74 38v-194q0 -11 -4.5 -15.5
t-15.5 -4.5h-44q-11 0 -15.5 4.5t-4.5 15.5v640q0 11 4.5 15.5t15.5 4.5z" />
    <glyph glyph-name="uni0441" unicode="&#x441;" horiz-adv-x="376" 
d="M124 347v-194q0 -38 18.5 -58.5t47.5 -20.5q27 0 45.5 18t19.5 49q1 14 4.5 20t15.5 6h40q11 0 15 -4.5t5 -15.5q3 -52 -35 -101.5t-110 -49.5q-62 0 -106 44.5t-44 139.5v140q0 95 44 139.5t106 44.5q72 0 110 -49.5t35 -101.5q-1 -11 -5 -15.5t-15 -4.5h-40
q-12 0 -15.5 6t-4.5 20q-1 31 -19.5 49t-45.5 18q-29 0 -47.5 -20.5t-18.5 -58.5z" />
    <glyph glyph-name="uni0442" unicode="&#x442;" horiz-adv-x="310" 
d="M15 480q0 11 4.5 15.5t15.5 4.5h240q11 0 15.5 -4.5t4.5 -15.5v-38q0 -11 -4.5 -15.5t-15.5 -4.5h-58q-15 0 -17.5 -2.5t-2.5 -17.5v-382q0 -11 -4.5 -15.5t-15.5 -4.5h-44q-11 0 -15.5 4.5t-4.5 15.5v382q0 15 -2.5 17.5t-16.5 2.5h-59q-11 0 -15.5 4.5t-4.5 15.5v38z
" />
    <glyph glyph-name="uni0443" unicode="&#x443;" horiz-adv-x="352" 
d="M172 102q1 -4 4 -4t4 4l68 383q1 7 4.5 10.5t6.5 4t11 0.5h44q7 0 10 -0.5t5.5 -4.5t1.5 -12l-99 -495q-10 -53 -24.5 -87t-35 -51.5t-42 -23.5t-52.5 -6q-11 0 -15.5 4.5t-4.5 15.5v39q0 11 4.5 15.5t15.5 4.5q59 1 45 77l-102 507q-2 11 2.5 14t14.5 3h44
q8 0 11.5 -0.5t6.5 -4t4 -10.5z" />
    <glyph glyph-name="uni0444" unicode="&#x444;" horiz-adv-x="500" 
d="M228 -49q-20 0 -20 20v9q0 15 -2.5 17.5t-15.5 2.5q-77 0 -113.5 45t-36.5 154v102q0 109 36.5 154t113.5 45q13 0 15.5 3t2.5 17v9q0 20 20 20h44q20 0 20 -20v-9q0 -14 2.5 -17t15.5 -3q77 0 113.5 -45t36.5 -154v-102q0 -109 -36.5 -154t-113.5 -45q-13 0 -15.5 -2.5
t-2.5 -17.5v-9q0 -20 -20 -20h-44zM376 160v180q0 82 -66 82q-14 0 -16 -2t-2 -16v-308q0 -14 2.5 -16t17.5 -2q64 0 64 82zM124 340v-180q0 -82 64 -82q15 0 17.5 2t2.5 16v308q0 14 -2 16t-16 2q-66 0 -66 -82z" />
    <glyph glyph-name="uni0445" unicode="&#x445;" horiz-adv-x="329" 
d="M294 0h-47q-11 0 -15.5 4t-9.5 16l-58 133l-57 -133q-5 -12 -9.5 -16t-15.5 -4h-47q-20 0 -12 20l99 230l-99 230q-8 20 11 20h47q18 0 26 -20l57 -133l58 133q8 20 26 20h47q19 0 11 -20l-100 -230l100 -230q8 -20 -12 -20z" />
    <glyph glyph-name="uni0446" unicode="&#x446;" horiz-adv-x="440" 
d="M405 78q11 0 15.5 -4.5t4.5 -15.5v-123q0 -11 -4.5 -15.5t-15.5 -4.5h-44q-11 0 -15.5 4.5t-4.5 15.5v45q0 15 -2.5 17.5t-17.5 2.5h-251q-11 0 -15.5 4.5t-4.5 15.5v460q0 11 4.5 15.5t15.5 4.5h44q11 0 15.5 -4.5t4.5 -15.5v-382q0 -15 2.5 -17.5t17.5 -2.5h83
q15 0 17.5 2.5t2.5 17.5v382q0 11 4.5 15.5t15.5 4.5h44q11 0 15.5 -4.5t4.5 -15.5v-382q0 -15 2.5 -17.5t17.5 -2.5h44z" />
    <glyph glyph-name="uni0447" unicode="&#x447;" horiz-adv-x="370" 
d="M320 20q0 -11 -4 -15.5t-16 -4.5h-44q-20 0 -20 20v121q0 15 -2.5 17.5t-17.5 2.5h-26q-69 0 -114.5 46.5t-45.5 143.5v129q0 11 4.5 15.5t15.5 4.5h44q11 0 15.5 -4.5t4.5 -15.5v-133q0 -108 76 -108h26q15 0 17.5 2.5t2.5 18.5v220q0 11 4.5 15.5t15.5 4.5h44
q11 0 15.5 -4.5t4.5 -15.5v-460z" />
    <glyph glyph-name="uni0448" unicode="&#x448;" horiz-adv-x="544" 
d="M494 480v-460q0 -11 -4.5 -15.5t-15.5 -4.5h-404q-11 0 -15.5 4.5t-4.5 15.5v460q0 11 4.5 15.5t15.5 4.5h44q11 0 15.5 -4.5t4.5 -15.5v-382q0 -15 2.5 -17.5t17.5 -2.5h56q15 0 17.5 2.5t2.5 17.5v382q0 11 4.5 15.5t15.5 4.5h44q11 0 15.5 -4.5t4.5 -15.5v-382
q0 -15 2.5 -17.5t17.5 -2.5h56q15 0 17.5 2.5t2.5 17.5v382q0 11 4.5 15.5t15.5 4.5h44q11 0 15.5 -4.5t4.5 -15.5z" />
    <glyph glyph-name="uni0449" unicode="&#x449;" horiz-adv-x="593" 
d="M558 78q11 0 15.5 -4.5t4.5 -15.5v-123q0 -11 -4.5 -15.5t-15.5 -4.5h-44q-11 0 -15.5 4.5t-4.5 15.5v45q0 15 -2.5 17.5t-17.5 2.5h-404q-11 0 -15.5 4.5t-4.5 15.5v460q0 11 4.5 15.5t15.5 4.5h44q11 0 15.5 -4.5t4.5 -15.5v-382q0 -15 2.5 -17.5t17.5 -2.5h56
q15 0 17.5 2.5t2.5 17.5v382q0 11 4.5 15.5t15.5 4.5h44q11 0 15.5 -4.5t4.5 -15.5v-382q0 -15 2.5 -17.5t17.5 -2.5h56q15 0 17.5 2.5t2.5 17.5v382q0 11 4.5 15.5t15.5 4.5h44q11 0 15.5 -4.5t4.5 -15.5v-382q0 -15 2.5 -17.5t17.5 -2.5h44z" />
    <glyph glyph-name="uni044A" unicode="&#x44a;" horiz-adv-x="381" 
d="M80 403q0 14 -2.5 16.5t-16.5 2.5h-36q-11 0 -15.5 4.5t-4.5 15.5v38q0 11 4.5 15.5t15.5 4.5h119q11 0 15.5 -4.5t4.5 -15.5v-146q0 -13 2.5 -15t16.5 -2h34q65 0 104.5 -44t39.5 -114q0 -66 -37 -112.5t-107 -46.5h-117q-11 0 -15.5 4.5t-4.5 15.5v383zM203 78
q74 0 74 81q0 80 -74 80h-19q-15 0 -17.5 -2.5t-2.5 -17.5v-121q0 -15 2.5 -17.5t17.5 -2.5h19z" />
    <glyph glyph-name="uni044B" unicode="&#x44b;" horiz-adv-x="518" 
d="M404 0q-7 0 -10 0.5t-6.5 5.5t-3.5 14v460q0 11 4.5 15.5t15.5 4.5h44q11 0 15.5 -4.5t4.5 -15.5v-460q0 -9 -3.5 -14t-6.5 -5.5t-10 -0.5h-44zM134 334q0 -13 2.5 -15t16.5 -2h34q65 0 104.5 -44t39.5 -114q0 -66 -37 -112.5t-107 -46.5h-117q-11 0 -15.5 4.5t-4.5 15.5
v460q0 11 4.5 15.5t15.5 4.5h44q11 0 15.5 -4.5t4.5 -15.5v-146zM173 78q74 0 74 81q0 80 -74 80h-19q-15 0 -17.5 -2.5t-2.5 -17.5v-121q0 -15 2.5 -17.5t17.5 -2.5h19z" />
    <glyph glyph-name="uni044C" unicode="&#x44c;" horiz-adv-x="351" 
d="M134 334q0 -13 2.5 -15t16.5 -2h34q65 0 104.5 -44t39.5 -114q0 -66 -37 -112.5t-107 -46.5h-117q-11 0 -15.5 4.5t-4.5 15.5v460q0 11 4.5 15.5t15.5 4.5h44q11 0 15.5 -4.5t4.5 -15.5v-146zM173 78q74 0 74 81q0 80 -74 80h-19q-15 0 -17.5 -2.5t-2.5 -17.5v-121
q0 -15 2.5 -17.5t17.5 -2.5h19z" />
    <glyph glyph-name="uni044D" unicode="&#x44d;" horiz-adv-x="376" 
d="M252 347q0 38 -18.5 58.5t-47.5 20.5q-27 0 -45.5 -18t-19.5 -49q-1 -14 -4.5 -20t-15.5 -6h-40q-11 0 -15 4.5t-5 15.5q-3 52 35 101.5t110 49.5q62 0 106 -44.5t44 -139.5v-140q0 -95 -44 -139.5t-106 -44.5q-72 0 -110 49.5t-35 101.5q1 11 5 15.5t15 4.5h40
q12 0 15.5 -6t4.5 -20q1 -31 19.5 -49t45.5 -18q29 0 47.5 20.5t18.5 58.5v38q0 15 -2.5 17.5t-17.5 2.5h-35q-11 0 -15.5 4.5t-4.5 15.5v38q0 11 4.5 15.5t15.5 4.5h35q15 0 17.5 2.5t2.5 17.5v38z" />
    <glyph glyph-name="uni044E" unicode="&#x44e;" horiz-adv-x="531" 
d="M191 191q0 15 -2.5 17.5t-17.5 2.5h-17q-15 0 -17.5 -2.5t-2.5 -17.5v-171q0 -11 -4.5 -15.5t-15.5 -4.5h-44q-11 0 -15.5 4.5t-4.5 15.5v460q0 11 4.5 15.5t15.5 4.5h44q11 0 15.5 -4.5t4.5 -15.5v-171q0 -15 2.5 -17.5t17.5 -2.5h17q15 0 17.5 2.5t2.5 17.5v11
q0 95 44 139.5t106 44.5t106 -44.5t44 -139.5v-140q0 -95 -44 -139.5t-106 -44.5t-106 44.5t-44 139.5v11zM275 156q0 -44 20 -63t46 -19t46 19t20 63v188q0 44 -20 63t-46 19t-46 -19t-20 -63v-188z" />
    <glyph glyph-name="uni044F" unicode="&#x44f;" horiz-adv-x="371" 
d="M237 20v146q0 13 -2.5 15t-16.5 2h-33q-11 0 -15 -13l-43 -152q-5 -18 -22 -18h-46q-23 0 -16 20l56 189q-59 45 -59 132q0 66 37 112.5t107 46.5h117q11 0 15.5 -4.5t4.5 -15.5v-460q0 -11 -4.5 -15.5t-15.5 -4.5h-44q-11 0 -15.5 4.5t-4.5 15.5zM217 422h-19
q-74 0 -74 -81q0 -80 74 -80h19q15 0 17.5 2.5t2.5 17.5v121q0 15 -2.5 17.5t-17.5 2.5z" />
    <glyph glyph-name="uni0451" unicode="&#x451;" horiz-adv-x="380" 
d="M40 180v140q0 95 44 139.5t106 44.5t106 -44.5t44 -139.5v-67q0 -12 -4.5 -16t-16.5 -4h-175q-11 0 -15.5 -4.5t-4.5 -15.5v-60q0 -38 18.5 -58.5t47.5 -20.5q27 0 45.5 18t19.5 49q1 14 4.5 20t15.5 6h40q11 0 15 -4.5t5 -15.5q3 -52 -35 -101.5t-110 -49.5
q-62 0 -106 44.5t-44 139.5zM256 347q0 38 -18.5 58.5t-47.5 20.5t-47.5 -20.5t-18.5 -58.5v-20q0 -11 4.5 -15.5t15.5 -4.5h92q11 0 15.5 4.5t4.5 15.5v20zM81 594q0 20 14 34t34 14t34.5 -14t14.5 -34t-14.5 -34.5t-34.5 -14.5t-34 14.5t-14 34.5zM209 594q0 20 14 34
t34 14t34.5 -14t14.5 -34t-14.5 -34.5t-34.5 -14.5t-34 14.5t-14 34.5z" />
    <glyph glyph-name="uni0452" unicode="&#x452;" horiz-adv-x="412" 
d="M164 466q27 35 74 38q60 2 97 -40t37 -130v-232q0 -106 -33 -148t-94 -42q-25 0 -30.5 3t-3.5 18l8 44q2 13 11 13q58 0 58 101v259q0 41 -18.5 58.5t-43.5 17.5t-43.5 -17.5t-18.5 -58.5v-330q0 -11 -4.5 -15.5t-15.5 -4.5h-44q-11 0 -15.5 4.5t-4.5 15.5v512
q0 15 -2.5 17.5t-16.5 2.5h-36q-11 0 -15.5 4.5t-4.5 15.5v30q0 11 4.5 15.5t15.5 4.5h36q14 0 16.5 2.5t2.5 17.5v38q0 11 4.5 15.5t15.5 4.5h44q11 0 15.5 -4.5t4.5 -15.5v-38q0 -15 2.5 -17.5t17.5 -2.5h35q11 0 15.5 -4.5t4.5 -15.5v-30q0 -11 -4.5 -15.5t-15.5 -4.5
h-35q-9 0 -12 -0.5t-5.5 -2.5t-2.5 -7v-76z" />
    <glyph glyph-name="uni0453" unicode="&#x453;" horiz-adv-x="251" 
d="M216 417q-20 5 -32 5q-18 0 -29 -8t-15 -25.5t-5 -30.5t-1 -38v-300q0 -11 -4.5 -15.5t-15.5 -4.5h-44q-11 0 -15.5 4.5t-4.5 15.5v460q0 11 4.5 15.5t15.5 4.5h44q11 0 15.5 -4.5t4.5 -15.5v-12q30 30 72 32h10q11 0 15.5 -4.5t4.5 -15.5v-43q0 -12 -4.5 -17.5
t-15.5 -2.5zM76 549q-10 0 -10 10v98q0 12 4.5 16.5t16.5 4.5h51q23 0 13 -27l-30 -85q-4 -11 -6.5 -14t-10.5 -3h-28z" />
    <glyph glyph-name="uni0454" unicode="&#x454;" horiz-adv-x="376" 
d="M124 347v-38q0 -15 2.5 -17.5t17.5 -2.5h35q11 0 15.5 -4.5t4.5 -15.5v-38q0 -11 -4.5 -15.5t-15.5 -4.5h-35q-15 0 -17.5 -2.5t-2.5 -17.5v-38q0 -38 18.5 -58.5t47.5 -20.5q27 0 45.5 18t19.5 49q1 14 4.5 20t15.5 6h40q11 0 15 -4.5t5 -15.5q3 -52 -35 -101.5
t-110 -49.5q-62 0 -106 44.5t-44 139.5v140q0 95 44 139.5t106 44.5q72 0 110 -49.5t35 -101.5q-1 -11 -5 -15.5t-15 -4.5h-40q-12 0 -15.5 6t-4.5 20q-1 31 -19.5 49t-45.5 18q-29 0 -47.5 -20.5t-18.5 -58.5z" />
    <glyph glyph-name="uni0455" unicode="&#x455;" horiz-adv-x="332" 
d="M116 375q1 -20 20.5 -39t46.5 -35.5t55 -36t49 -49t24 -65.5q5 -61 -38.5 -107.5t-106.5 -46.5q-65 0 -105.5 45t-40.5 95q0 11 4.5 15.5t15.5 4.5h42q11 0 15.5 -4.5t4.5 -15.5q1 -24 19 -43t45 -19q23 0 40.5 14.5t22.5 34.5q7 29 -9.5 53t-46 43t-59.5 38t-53 48
t-25 65q-3 57 36.5 95.5t93.5 38.5t91.5 -40t37.5 -97q0 -11 -4.5 -15.5t-15.5 -4.5h-39q-11 0 -15 4.5t-5 19.5q-1 25 -16 40.5t-39 14.5q-19 -1 -32.5 -16t-12.5 -35z" />
    <glyph glyph-name="uni0456" unicode="&#x456;" horiz-adv-x="184" 
d="M70 0q-11 0 -15.5 4.5t-4.5 15.5v460q0 11 4.5 15.5t15.5 4.5h44q11 0 15.5 -4.5t4.5 -15.5v-460q0 -11 -4.5 -15.5t-15.5 -4.5h-44zM43 594q0 20 14 34t34 14t34.5 -14t14.5 -34t-14.5 -34.5t-34.5 -14.5t-34 14.5t-14 34.5z" />
    <glyph glyph-name="uni0457" unicode="&#x457;" horiz-adv-x="184" 
d="M70 0q-11 0 -15.5 4.5t-4.5 15.5v460q0 11 4.5 15.5t15.5 4.5h44q11 0 15.5 -4.5t4.5 -15.5v-460q0 -11 -4.5 -15.5t-15.5 -4.5h-44zM-19 594q0 20 14 34t34 14t34.5 -14t14.5 -34t-14.5 -34.5t-34.5 -14.5t-34 14.5t-14 34.5zM109 594q0 20 14 34t34 14t34.5 -14
t14.5 -34t-14.5 -34.5t-34.5 -14.5t-34 14.5t-14 34.5z" />
    <glyph glyph-name="uni0458" unicode="&#x458;" horiz-adv-x="184" 
d="M-11 -161v38q0 18 18 22q27 5 35 28.5t8 66.5v486q0 11 4.5 15.5t15.5 4.5h44q11 0 15.5 -4.5t4.5 -15.5v-485q-1 -89 -29 -129.5t-92 -45.5q-8 0 -12.5 1t-8 5t-3.5 13zM44 594q0 20 14 34t34 14t34.5 -14t14.5 -34t-14.5 -34.5t-34.5 -14.5t-34 14.5t-14 34.5z" />
    <glyph glyph-name="uni0459" unicode="&#x459;" horiz-adv-x="570" 
d="M254 422h-51q-15 0 -17.5 -2.5t-2.5 -17.5v-202q0 -114 -31.5 -157t-116.5 -43q-11 0 -15.5 4.5t-4.5 15.5v38q0 11 4.5 15t15.5 5q19 1 31.5 9t19 17t9.5 27.5t3.5 30.5t0.5 36v282q0 11 4.5 15.5t15.5 4.5h219q11 0 15.5 -4.5t4.5 -15.5v-146q0 -13 2.5 -15t16.5 -2h29
q65 0 104.5 -44t39.5 -114q0 -66 -37 -112.5t-107 -46.5h-112q-11 0 -15.5 4.5t-4.5 15.5v382q0 15 -2.5 17.5t-17.5 2.5zM392 78q74 0 74 81q0 80 -74 80h-14q-15 0 -17.5 -2.5t-2.5 -17.5v-121q0 -15 2.5 -17.5t17.5 -2.5h14z" />
    <glyph glyph-name="uni045A" unicode="&#x45a;" horiz-adv-x="557" 
d="M340 334q0 -13 2.5 -15t16.5 -2h34q65 0 104.5 -44t39.5 -114q0 -66 -37 -112.5t-107 -46.5h-117q-11 0 -15.5 4.5t-4.5 15.5v382q0 15 -2.5 17.5t-17.5 2.5h-82q-15 0 -17.5 -2.5t-2.5 -17.5v-382q0 -11 -4.5 -15.5t-15.5 -4.5h-44q-11 0 -15.5 4.5t-4.5 15.5v460
q0 11 4.5 15.5t15.5 4.5h250q11 0 15.5 -4.5t4.5 -15.5v-146zM379 78q74 0 74 81q0 80 -74 80h-19q-15 0 -17.5 -2.5t-2.5 -17.5v-121q0 -15 2.5 -17.5t17.5 -2.5h19z" />
    <glyph glyph-name="uni045B" unicode="&#x45b;" horiz-adv-x="412" 
d="M164 466q27 35 74 38q60 2 97 -40t37 -130v-144q0 -106 -33 -148t-94 -42q-25 0 -30.5 3t-3.5 18l8 44q2 13 11 13q58 0 58 101v171q0 41 -18.5 58.5t-43.5 17.5t-43.5 -17.5t-18.5 -58.5v-330q0 -11 -4.5 -15.5t-15.5 -4.5h-44q-11 0 -15.5 4.5t-4.5 15.5v512
q0 15 -2.5 17.5t-16.5 2.5h-36q-11 0 -15.5 4.5t-4.5 15.5v30q0 11 4.5 15.5t15.5 4.5h36q14 0 16.5 2.5t2.5 17.5v38q0 11 4.5 15.5t15.5 4.5h44q11 0 15.5 -4.5t4.5 -15.5v-38q0 -15 2.5 -17.5t17.5 -2.5h35q11 0 15.5 -4.5t4.5 -15.5v-30q0 -11 -4.5 -15.5t-15.5 -4.5
h-35q-9 0 -12 -0.5t-5.5 -2.5t-2.5 -7v-76z" />
    <glyph glyph-name="uni045C" unicode="&#x45c;" horiz-adv-x="348" 
d="M50 480q0 11 4.5 15.5t15.5 4.5h44q11 0 15.5 -4.5t4.5 -15.5v-182q0 -5 3.5 -5.5t5.5 3.5l103 189q6 11 9 13t13 2h52q7 0 10.5 -5t-1.5 -16l-125 -229l125 -229q5 -11 1.5 -16t-10.5 -5h-52q-10 0 -13 2t-9 13l-103 189q-2 4 -5.5 3.5t-3.5 -5.5v-182q0 -11 -4.5 -15.5
t-15.5 -4.5h-44q-11 0 -15.5 4.5t-4.5 15.5v460zM168 549q-10 0 -10 10v98q0 12 4.5 16.5t16.5 4.5h51q23 0 13 -27l-30 -85q-4 -11 -6.5 -14t-10.5 -3h-28z" />
    <glyph glyph-name="uni045E" unicode="&#x45e;" horiz-adv-x="352" 
d="M172 102q1 -4 4 -4t4 4l68 383q1 7 4.5 10.5t6.5 4t11 0.5h44q7 0 10 -0.5t5.5 -4.5t1.5 -12l-99 -495q-10 -53 -24.5 -87t-35 -51.5t-42 -23.5t-52.5 -6q-11 0 -15.5 4.5t-4.5 15.5v39q0 11 4.5 15.5t15.5 4.5q59 1 45 77l-102 507q-2 11 2.5 14t14.5 3h44
q8 0 11.5 -0.5t6.5 -4t4 -10.5zM176 545q-45 0 -78 29.5t-36 84.5q-1 14 2.5 17t16.5 3h19q12 0 15.5 -2.5t4.5 -14.5q6 -60 56 -60t56 60q1 12 4.5 14.5t15.5 2.5h19q10 0 13 -1t5 -5t1 -14q-3 -55 -36 -84.5t-78 -29.5z" />
    <glyph glyph-name="uni045F" unicode="&#x45f;" horiz-adv-x="390" 
d="M70 0q-11 0 -15.5 4.5t-4.5 15.5v460q0 11 4.5 15.5t15.5 4.5h44q11 0 15.5 -4.5t4.5 -15.5v-382q0 -15 2.5 -17.5t17.5 -2.5h82q15 0 17.5 2.5t2.5 17.5v382q0 11 4.5 15.5t15.5 4.5h44q11 0 15.5 -4.5t4.5 -15.5v-460q0 -11 -4.5 -15.5t-15.5 -4.5h-78q-5 0 -5 -5v-60
q0 -11 -4.5 -15.5t-15.5 -4.5h-44q-11 0 -15.5 4.5t-4.5 15.5v60l-5 5h-78z" />
    <glyph glyph-name="Wgrave" unicode="&#x1e80;" horiz-adv-x="634" 
d="M317 478q-4 0 -5 -7l-92 -451q-2 -9 -3 -12t-5.5 -5.5t-14.5 -2.5h-23q-13 0 -17 4t-6 16l-125 660q-4 20 17 20h44q12 0 16 -3.5t7 -16.5l74 -432q1 -4 4.5 -4t4.5 4l88 432q2 12 6.5 16t15.5 4h28q11 0 15.5 -4t6.5 -16l88 -432q1 -4 4.5 -4t4.5 4l74 432q3 13 7 16.5
t16 3.5h44q21 0 17 -20l-125 -660q-2 -12 -6 -16t-17 -4h-33q-13 0 -17 4t-6 16l-82 451q-1 7 -5 7zM331 735h-28q-7 0 -10 3t-7 14l-30 85q-10 27 13 27h51q12 0 16.5 -4.5t4.5 -16.5v-98q0 -10 -10 -10z" />
    <glyph glyph-name="wgrave" unicode="&#x1e81;" horiz-adv-x="554" 
d="M472 500h44q7 0 10 -0.5t5.5 -4.5t1.5 -12l-93 -465q-2 -11 -6 -14.5t-16 -3.5h-34q-12 0 -15.5 3t-6.5 15l-81 301q-1 4 -4 4t-4 -4l-81 -301q-3 -12 -6.5 -15t-15.5 -3h-34q-12 0 -16 3.5t-6 14.5l-93 465q-2 11 2.5 14t14.5 3h44q8 0 11 -0.5t6.5 -4t4.5 -10.5
l57 -285q1 -4 4 -4t4 4l77 285q4 15 20 15h22q16 0 20 -15l77 -285q1 -4 4 -4t4 4l57 285q1 7 4.5 10.5t6.5 4t11 0.5zM291 549h-28q-7 0 -10 3t-7 14l-30 85q-10 27 13 27h51q12 0 16.5 -4.5t4.5 -16.5v-98q0 -10 -10 -10z" />
    <glyph glyph-name="Wacute" unicode="&#x1e82;" horiz-adv-x="634" 
d="M317 478q-4 0 -5 -7l-92 -451q-2 -9 -3 -12t-5.5 -5.5t-14.5 -2.5h-23q-13 0 -17 4t-6 16l-125 660q-4 20 17 20h44q12 0 16 -3.5t7 -16.5l74 -432q1 -4 4.5 -4t4.5 4l88 432q2 12 6.5 16t15.5 4h28q11 0 15.5 -4t6.5 -16l88 -432q1 -4 4.5 -4t4.5 4l74 432q3 13 7 16.5
t16 3.5h44q21 0 17 -20l-125 -660q-2 -12 -6 -16t-17 -4h-33q-13 0 -17 4t-6 16l-82 451q-1 7 -5 7zM304 735q-10 0 -10 10v98q0 12 4.5 16.5t16.5 4.5h51q23 0 13 -27l-30 -85q-4 -11 -6.5 -14t-10.5 -3h-28z" />
    <glyph glyph-name="wacute" unicode="&#x1e83;" horiz-adv-x="554" 
d="M472 500h44q7 0 10 -0.5t5.5 -4.5t1.5 -12l-93 -465q-2 -11 -6 -14.5t-16 -3.5h-34q-12 0 -15.5 3t-6.5 15l-81 301q-1 4 -4 4t-4 -4l-81 -301q-3 -12 -6.5 -15t-15.5 -3h-34q-12 0 -16 3.5t-6 14.5l-93 465q-2 11 2.5 14t14.5 3h44q8 0 11 -0.5t6.5 -4t4.5 -10.5
l57 -285q1 -4 4 -4t4 4l77 285q4 15 20 15h22q16 0 20 -15l77 -285q1 -4 4 -4t4 4l57 285q1 7 4.5 10.5t6.5 4t11 0.5zM263 549q-10 0 -10 10v98q0 12 4.5 16.5t16.5 4.5h51q23 0 13 -27l-30 -85q-4 -11 -7 -14t-10 -3h-28z" />
    <glyph glyph-name="Wdieresis" unicode="&#x1e84;" horiz-adv-x="634" 
d="M317 478q-4 0 -5 -7l-92 -451q-2 -9 -3 -12t-5.5 -5.5t-14.5 -2.5h-23q-13 0 -17 4t-6 16l-125 660q-4 20 17 20h44q12 0 16 -3.5t7 -16.5l74 -432q1 -4 4.5 -4t4.5 4l88 432q2 12 6.5 16t15.5 4h28q11 0 15.5 -4t6.5 -16l88 -432q1 -4 4.5 -4t4.5 4l74 432q3 13 7 16.5
t16 3.5h44q21 0 17 -20l-125 -660q-2 -12 -6 -16t-17 -4h-33q-13 0 -17 4t-6 16l-82 451q-1 7 -5 7zM205 780q0 20 14 34t34 14t34.5 -14t14.5 -34t-14.5 -34.5t-34.5 -14.5t-34 14.5t-14 34.5zM333 780q0 20 14 34t34 14t34.5 -14t14.5 -34t-14.5 -34.5t-34.5 -14.5
t-34 14.5t-14 34.5z" />
    <glyph glyph-name="wdieresis" unicode="&#x1e85;" horiz-adv-x="554" 
d="M472 500h44q7 0 10 -0.5t5.5 -4.5t1.5 -12l-93 -465q-2 -11 -6 -14.5t-16 -3.5h-34q-12 0 -15.5 3t-6.5 15l-81 301q-1 4 -4 4t-4 -4l-81 -301q-3 -12 -6.5 -15t-15.5 -3h-34q-12 0 -16 3.5t-6 14.5l-93 465q-2 11 2.5 14t14.5 3h44q8 0 11 -0.5t6.5 -4t4.5 -10.5
l57 -285q1 -4 4 -4t4 4l77 285q4 15 20 15h22q16 0 20 -15l77 -285q1 -4 4 -4t4 4l57 285q1 7 4.5 10.5t6.5 4t11 0.5zM165 594q0 20 14 34t34 14t34.5 -14t14.5 -34t-14.5 -34.5t-34.5 -14.5t-34 14.5t-14 34.5zM293 594q0 20 14 34t34 14t34.5 -14t14.5 -34t-14.5 -34.5
t-34.5 -14.5t-34 14.5t-14 34.5z" />
    <glyph glyph-name="Ygrave" unicode="&#x1ef2;" horiz-adv-x="350" 
d="M153 0q-11 0 -15.5 4.5t-4.5 15.5v204l-111 456q-5 20 13 20h48q13 0 16.5 -3.5t6.5 -16.5l64 -279q1 -5 5 -5t5 5l64 279q3 13 6.5 16.5t16.5 3.5h48q18 0 13 -20q-111 -446 -111 -456v-204q0 -11 -4.5 -15.5t-15.5 -4.5h-44zM193 735h-28q-7 0 -10 3t-7 14l-30 85
q-10 27 13 27h51q12 0 16.5 -4.5t4.5 -16.5v-98q0 -10 -10 -10z" />
    <glyph glyph-name="ygrave" unicode="&#x1ef3;" horiz-adv-x="352" 
d="M172 102q1 -4 4 -4t4 4l68 383q1 7 4.5 10.5t6.5 4t11 0.5h44q7 0 10 -0.5t5.5 -4.5t1.5 -12l-99 -495q-10 -53 -24.5 -87t-35 -51.5t-42 -23.5t-52.5 -6q-11 0 -15.5 4.5t-4.5 15.5v39q0 11 4.5 15.5t15.5 4.5q59 1 45 77l-102 507q-2 11 2.5 14t14.5 3h44
q8 0 11.5 -0.5t6.5 -4t4 -10.5zM191 549h-28q-7 0 -10 3t-7 14l-30 85q-10 27 13 27h51q12 0 16.5 -4.5t4.5 -16.5v-98q0 -10 -10 -10z" />
    <glyph glyph-name="endash" unicode="&#x2013;" horiz-adv-x="499" 
d="M35 294q0 11 4.5 15.5t15.5 4.5h389q11 0 15.5 -4.5t4.5 -15.5v-38q0 -11 -4.5 -15.5t-15.5 -4.5h-389q-11 0 -15.5 4.5t-4.5 15.5v38z" />
    <glyph glyph-name="emdash" unicode="&#x2014;" horiz-adv-x="609" 
d="M35 294q0 11 4.5 15.5t15.5 4.5h499q11 0 15.5 -4.5t4.5 -15.5v-38q0 -11 -4.5 -15.5t-15.5 -4.5h-499q-11 0 -15.5 4.5t-4.5 15.5v38z" />
    <glyph glyph-name="quoteleft" unicode="&#x2018;" horiz-adv-x="154" 
d="M129 572q0 -21 -14.5 -36t-36.5 -15q-15 0 -27.5 8.5t-19 25.5t-5 39t16.5 52t44 61q7 7 15 1l11 -9q7 -6 3 -13q-20 -27 -22 -43.5t6.5 -22.5t18.5 -18.5t10 -29.5z" />
    <glyph glyph-name="quoteright" unicode="&#x2019;" horiz-adv-x="154" 
d="M25 649q0 21 14.5 36t36.5 15q15 0 27.5 -8.5t19 -25.5t5 -39t-16.5 -52t-44 -61q-7 -7 -15 -1l-11 9q-7 6 -3 13q20 27 22 43.5t-6.5 22.5t-18.5 18.5t-10 29.5z" />
    <glyph glyph-name="quotesinglbase" unicode="&#x201a;" horiz-adv-x="154" 
d="M25 46q0 21 14.5 36t36.5 15q15 0 27.5 -8.5t19 -25.5t5 -39t-16.5 -52t-44 -61q-7 -7 -15 -1l-11 9q-7 6 -3 13q20 27 22 43.5t-6.5 22.5t-18.5 18.5t-10 29.5z" />
    <glyph glyph-name="quotedblleft" unicode="&#x201c;" horiz-adv-x="288" 
d="M263 572q0 -21 -14.5 -36t-36.5 -15q-15 0 -27.5 8.5t-19 25.5t-5 39t16.5 52t44 61q7 7 15 1l11 -9q7 -6 3 -13q-20 -27 -22 -43.5t6.5 -22.5t18.5 -18.5t10 -29.5zM129 572q0 -21 -14.5 -36t-36.5 -15q-15 0 -27.5 8.5t-19 25.5t-5 39t16.5 52t44 61q7 7 15 1l11 -9
q7 -6 3 -13q-20 -27 -22 -43.5t6.5 -22.5t18.5 -18.5t10 -29.5z" />
    <glyph glyph-name="quotedblright" unicode="&#x201d;" horiz-adv-x="288" 
d="M25 649q0 21 14.5 36t36.5 15q15 0 27.5 -8.5t19 -25.5t5 -39t-16.5 -52t-44 -61q-7 -7 -15 -1l-11 9q-7 6 -3 13q20 27 22 43.5t-6.5 22.5t-18.5 18.5t-10 29.5zM159 649q0 21 14.5 36t36.5 15q15 0 27.5 -8.5t19 -25.5t5 -39t-16.5 -52t-44 -61q-7 -7 -15 -1l-11 9
q-7 6 -3 13q20 27 22 43.5t-6.5 22.5t-18.5 18.5t-10 29.5z" />
    <glyph glyph-name="quotedblbase" unicode="&#x201e;" horiz-adv-x="288" 
d="M25 46q0 21 14.5 36t36.5 15q15 0 27.5 -8.5t19 -25.5t5 -39t-16.5 -52t-44 -61q-7 -7 -15 -1l-11 9q-7 6 -3 13q20 27 22 43.5t-6.5 22.5t-18.5 18.5t-10 29.5zM159 46q0 21 14.5 36t36.5 15q15 0 27.5 -8.5t19 -25.5t5 -39t-16.5 -52t-44 -61q-7 -7 -15 -1l-11 9
q-7 6 -3 13q20 27 22 43.5t-6.5 22.5t-18.5 18.5t-10 29.5z" />
    <glyph glyph-name="dagger" unicode="&#x2020;" horiz-adv-x="370" 
d="M163 -292q-11 0 -15.5 4.5t-4.5 15.5v720q0 10 -10 10h-78q-11 0 -15.5 4.5t-4.5 15.5v38q0 11 4.5 15.5t15.5 4.5h78q10 0 10 10v134q0 11 4.5 15.5t15.5 4.5h44q11 0 15.5 -4.5t4.5 -15.5v-134q0 -10 10 -10h78q11 0 15.5 -4.5t4.5 -15.5v-38q0 -11 -4.5 -15.5
t-15.5 -4.5h-78q-10 0 -10 -8v-722q0 -11 -4.5 -15.5t-15.5 -4.5h-44z" />
    <glyph glyph-name="bullet" unicode="&#x2022;" horiz-adv-x="251" 
d="M125 280q-37 0 -63.5 26t-26.5 64t26 64.5t64 26.5t64.5 -26.5t26.5 -64.5t-26.5 -64t-64.5 -26z" />
    <glyph glyph-name="onedotenleader" unicode="&#x2024;" horiz-adv-x="137" 
d="M30 49q0 20 14 34t34 14t34.5 -14t14.5 -34t-14.5 -34.5t-34.5 -14.5t-34 14.5t-14 34.5z" />
    <glyph glyph-name="twodotenleader" unicode="&#x2025;" horiz-adv-x="284" 
d="M30 49q0 20 14 34t34 14t34.5 -14t14.5 -34t-14.5 -34.5t-34.5 -14.5t-34 14.5t-14 34.5zM177 49q0 20 14 34t34 14t34.5 -14t14.5 -34t-14.5 -34.5t-34.5 -14.5t-34 14.5t-14 34.5z" />
    <glyph glyph-name="ellipsis" unicode="&#x2026;" horiz-adv-x="431" 
d="M30 49q0 20 14 34t34 14t34.5 -14t14.5 -34t-14.5 -34.5t-34.5 -14.5t-34 14.5t-14 34.5zM177 49q0 20 14 34t34 14t34.5 -14t14.5 -34t-14.5 -34.5t-34.5 -14.5t-34 14.5t-14 34.5zM324 49q0 20 14 34t34 14t34.5 -14t14.5 -34t-14.5 -34.5t-34.5 -14.5t-34 14.5
t-14 34.5z" />
    <glyph glyph-name="perthousand" unicode="&#x2030;" horiz-adv-x="726" 
d="M153 20l121 658q3 22 23 22h32q22 0 19 -20l-121 -658q-3 -22 -23 -22h-32q-22 0 -19 20zM126 519q-38 0 -64.5 26.5t-26.5 64.5t26.5 64.5t64.5 26.5t64.5 -26.5t26.5 -64.5t-26.5 -64.5t-64.5 -26.5zM87 610q0 -16 11.5 -27.5t27.5 -11.5t27.5 11.5t11.5 27.5
t-11.5 27.5t-27.5 11.5t-27.5 -11.5t-11.5 -27.5zM375 0q-37 0 -64 27t-27 64t27 64t64 27t64 -27t27 -64t-27 -64t-64 -27zM336 91q0 -17 11 -28t28 -11t28 11t11 28t-11 28t-28 11t-28 -11t-11 -28zM600 0q-38 0 -64.5 27t-26.5 64t26.5 64t64.5 27t64.5 -27t26.5 -64
t-26.5 -64t-64.5 -27zM561 91q0 -17 11.5 -28t27.5 -11t27.5 11t11.5 28t-11.5 28t-27.5 11t-27.5 -11t-11.5 -28z" />
    <glyph glyph-name="guilsinglleft" unicode="&#x2039;" horiz-adv-x="215" 
d="M162 89l-123 150q-8 12 0 22l123 150q7 7 12.5 5t5.5 -10v-65q0 -11 -10 -23l-51 -62q-5 -6 0 -12l51 -62q10 -12 10 -23v-65q0 -8 -5.5 -10t-12.5 5z" />
    <glyph glyph-name="guilsinglright" unicode="&#x203a;" horiz-adv-x="215" 
d="M176 239l-123 -150q-7 -7 -12.5 -5t-5.5 10v65q0 11 10 23l51 62q5 6 0 12l-51 62q-10 12 -10 23v65q0 8 5.5 10t12.5 -5l123 -150q8 -10 0 -22z" />
    <glyph glyph-name="exclamdbl" unicode="&#x203c;" horiz-adv-x="358" 
d="M80 157q-11 0 -15.5 4.5t-4.5 15.5l-5 503q0 11 4.5 15.5t15.5 4.5h44q11 0 15.5 -4.5t4.5 -15.5l-5 -503q0 -11 -4.5 -15.5t-15.5 -4.5h-34zM50 49q0 20 14 34t34 14t34.5 -14t14.5 -34t-14.5 -34.5t-34.5 -14.5t-34 14.5t-14 34.5zM241 157q-11 0 -15.5 4.5t-4.5 15.5
l-5 503q0 11 4.5 15.5t15.5 4.5h44q11 0 15.5 -4.5t4.5 -15.5l-5 -503q0 -11 -4.5 -15.5t-15.5 -4.5h-34zM211 49q0 20 14 34t34 14t34.5 -14t14.5 -34t-14.5 -34.5t-34.5 -14.5t-34 14.5t-14 34.5z" />
    <glyph glyph-name="fraction" unicode="&#x2044;" horiz-adv-x="282" 
d="M37 220l146 657q3 13 7 17.5t12 4.5h31q17 0 12 -20l-146 -657q-3 -13 -7 -17.5t-12 -4.5h-31q-17 0 -12 20z" />
    <glyph glyph-name="zerosuperior" unicode="&#x2070;" horiz-adv-x="220" 
d="M175 625v-134q0 -39 -18.5 -58t-46.5 -19t-46.5 19t-18.5 58v134q0 39 18.5 58t46.5 19t46.5 -19t18.5 -58zM79 626v-136q0 -44 31 -44t31 44v136q0 44 -31 44t-31 -44z" />
    <glyph glyph-name="foursuperior" unicode="&#x2074;" horiz-adv-x="193" 
d="M96 610l-32 -66q-2 -4 2 -4h29q4 0 4 4v66q-1 1 -3 0zM134 424q0 -8 -9 -8h-17q-9 0 -9 8v80q0 5 -4 5h-62q-8 0 -8 8v12q0 6 3 13l75 152q3 6 10 6h12q9 0 9 -8v-148q0 -4 4 -4h2q8 0 8 -8v-15q0 -8 -8 -8h-2q-4 0 -4 -5v-80z" />
    <glyph glyph-name="fivesuperior" unicode="&#x2075;" horiz-adv-x="212" 
d="M79 603q15 15 36 16q23 1 37.5 -16.5t14.5 -52.5v-67q0 -27 -15 -48t-45 -21t-45.5 20.5t-15.5 49.5q0 8 8 8h16q9 0 9 -8v-3q0 -17 8 -26t19 -9q22 0 26 22q1 2 1 9v77q0 33 -27 33q-26 0 -27 -31v-9q0 -8 -8 -8h-18q-8 0 -8 8v145q0 8 8 8h101q8 0 8 -8v-16q0 -8 -8 -8
h-66q-9 0 -9 -8v-57z" />
    <glyph glyph-name="sixsuperior" unicode="&#x2076;" horiz-adv-x="212" 
d="M106 414q-25 0 -43 18t-18 57v144q0 27 15.5 48t45.5 21q29 0 44.5 -20.5t15.5 -49.5q0 -8 -8 -8h-16q-8 0 -8 8v3q-1 35 -28 35q-22 0 -26 -22q0 -1 -0.5 -4.5t-0.5 -4.5v-58q15 15 36 16q23 0 37.5 -17.5t14.5 -51.5v-39q0 -39 -18 -57t-43 -18zM133 532q0 33 -27 33
t-27 -33v-53q0 -33 27 -33t27 33v53z" />
    <glyph glyph-name="sevensuperior" unicode="&#x2077;" horiz-adv-x="184" 
d="M50 424l54 239q1 5 -4 5h-67q-8 0 -8 8v16q0 8 8 8h98q8 0 8 -8v-18q0 -4 -1 -10l-54 -240q-1 -8 -9 -8h-19q-9 0 -6 8z" />
    <glyph glyph-name="eightsuperior" unicode="&#x2078;" horiz-adv-x="208" 
d="M163 627v-7q0 -42 -19 -59q19 -19 19 -59v-13q0 -39 -17 -57t-42 -18t-42 18t-17 57v13q0 38 19 59q-19 19 -19 59v7q0 39 17 57t42 18t42 -18t17 -57zM129 512q0 33 -25 33t-25 -33v-33q0 -33 25 -33t25 33v33zM129 637q0 33 -25 33t-25 -33v-27q0 -33 25 -33t25 33v27z
" />
    <glyph glyph-name="ninesuperior" unicode="&#x2079;" horiz-adv-x="212" 
d="M106 702q25 0 43 -18t18 -57v-144q0 -27 -15.5 -48t-45.5 -21q-29 0 -44.5 20.5t-15.5 49.5q0 8 8 8h16q8 0 8 -8v-3q1 -35 28 -35q22 0 26 22q0 1 0.5 4.5t0.5 4.5v58q-15 -15 -35 -16q-24 0 -38.5 17.5t-14.5 51.5v39q0 39 18 57t43 18zM79 637v-53q0 -33 27 -33t27 33
v53q0 33 -27 33t-27 -33z" />
    <glyph glyph-name="parenleftsuperior" unicode="&#x207d;" horiz-adv-x="138" 
d="M95 717q-28 0 -28 -44v-230q0 -44 28 -44h4q9 0 9 -9v-14q0 -9 -9 -9h-4q-33 0 -49 20t-16 67v208q0 47 16 67t49 20h4q9 0 9 -9v-14q0 -9 -9 -9h-4z" />
    <glyph glyph-name="parenrightsuperior" unicode="&#x207e;" horiz-adv-x="138" 
d="M43 716h-4q-9 0 -9 9v14q0 9 9 9h4q33 0 49 -20t16 -67v-208q0 -47 -16 -67t-49 -20h-4q-9 0 -9 9v14q0 9 9 9h4q29 0 29 44v230q0 44 -29 44z" />
    <glyph glyph-name="zeroinferior" unicode="&#x2080;" horiz-adv-x="220" 
d="M175 67v-134q0 -39 -18.5 -58t-46.5 -19t-46.5 19t-18.5 58v134q0 39 18.5 58t46.5 19t46.5 -19t18.5 -58zM79 68v-136q0 -44 31 -44t31 44v136q0 44 -31 44t-31 -44z" />
    <glyph glyph-name="oneinferior" unicode="&#x2081;" horiz-adv-x="155" 
d="M71 138q0 4 7 4h19q8 0 8 -8v-268q0 -8 -8 -8h-18q-8 0 -8 8v191q0 4 -5 4h-25q-8 0 -5 8z" />
    <glyph glyph-name="twoinferior" unicode="&#x2082;" horiz-adv-x="212" 
d="M79 -78v-24q0 -6 1 -7t8 -1h71q8 0 8 -8v-16q0 -8 -8 -8h-106q-8 0 -8 8v56q0 12 5.5 25.5t9.5 20.5t17.5 23.5t15.5 19.5t13.5 17.5t15.5 21t8 18.5t2 22q-6 22 -27 22q-11 0 -19 -9t-8 -26v-3q0 -8 -8 -8h-17q-8 0 -8 8q0 29 15.5 49.5t45.5 20.5q29 0 43.5 -19
t16.5 -42q0 -10 -2.5 -20t-9 -21t-10.5 -17.5t-14 -19.5t-13 -16q-14 -17 -26 -35.5t-12 -31.5z" />
    <glyph glyph-name="threeinferior" unicode="&#x2083;" horiz-adv-x="200" 
d="M155 52q0 -26 -13 -44q13 -19 13 -44v-39q0 -28 -15 -48.5t-45 -20.5q-29 0 -44.5 20.5t-15.5 49.5q0 8 8 8h16q9 0 9 -8v-3q0 -35 27 -35q22 0 26 22q0 1 0.5 4.5t0.5 4.5v43q0 30 -28 30h-5q-7 0 -7 8v15q0 9 8 9h4q26 0 28 29v28q0 1 -0.5 4.5t-0.5 4.5q-4 22 -26 22
q-27 0 -27 -35v-3q0 -8 -9 -8h-16q-8 0 -8 8q0 29 15.5 49.5t44.5 20.5q30 0 45 -20.5t15 -48.5v-23z" />
    <glyph glyph-name="fourinferior" unicode="&#x2084;" horiz-adv-x="193" 
d="M96 52l-32 -66q-2 -4 2 -4h29q4 0 4 4v66q-1 1 -3 0zM134 -134q0 -8 -9 -8h-17q-9 0 -9 8v80q0 5 -4 5h-62q-8 0 -8 8v12q0 6 3 13l75 152q3 6 10 6h12q9 0 9 -8v-148q0 -4 4 -4h2q8 0 8 -8v-15q0 -8 -8 -8h-2q-4 0 -4 -5v-80z" />
    <glyph glyph-name="fiveinferior" unicode="&#x2085;" horiz-adv-x="212" 
d="M79 45q15 15 36 16q23 1 37.5 -16.5t14.5 -52.5v-67q0 -27 -15 -48t-45 -21t-45.5 20.5t-15.5 49.5q0 8 8 8h16q9 0 9 -8v-3q0 -17 8 -26t19 -9q22 0 26 22q1 2 1 9v77q0 33 -27 33q-26 0 -27 -31v-9q0 -8 -8 -8h-18q-8 0 -8 8v145q0 8 8 8h101q8 0 8 -8v-16q0 -8 -8 -8
h-66q-9 0 -9 -8v-57z" />
    <glyph glyph-name="sixinferior" unicode="&#x2086;" horiz-adv-x="212" 
d="M106 -144q-25 0 -43 18t-18 57v144q0 27 15.5 48t45.5 21q29 0 44.5 -20.5t15.5 -49.5q0 -8 -8 -8h-16q-8 0 -8 8v3q-1 35 -28 35q-22 0 -26 -22q0 -1 -0.5 -4.5t-0.5 -4.5v-58q15 15 36 16q23 0 37.5 -17.5t14.5 -51.5v-39q0 -39 -18 -57t-43 -18zM133 -26q0 33 -27 33
t-27 -33v-53q0 -33 27 -33t27 33v53z" />
    <glyph glyph-name="seveninferior" unicode="&#x2087;" horiz-adv-x="184" 
d="M50 -134l54 239q1 5 -4 5h-67q-8 0 -8 8v16q0 8 8 8h98q8 0 8 -8v-18q0 -4 -1 -10l-54 -240q-1 -8 -9 -8h-19q-9 0 -6 8z" />
    <glyph glyph-name="eightinferior" unicode="&#x2088;" horiz-adv-x="208" 
d="M163 69v-7q0 -42 -19 -59q19 -19 19 -59v-13q0 -39 -17 -57t-42 -18t-42 18t-17 57v13q0 38 19 59q-19 19 -19 59v7q0 39 17 57t42 18t42 -18t17 -57zM129 -46q0 33 -25 33t-25 -33v-33q0 -33 25 -33t25 33v33zM129 79q0 33 -25 33t-25 -33v-27q0 -33 25 -33t25 33v27z
" />
    <glyph glyph-name="nineinferior" unicode="&#x2089;" horiz-adv-x="212" 
d="M106 144q25 0 43 -18t18 -57v-144q0 -27 -15.5 -48t-45.5 -21q-29 0 -44.5 20.5t-15.5 49.5q0 8 8 8h16q8 0 8 -8v-3q1 -35 28 -35q22 0 26 22q0 1 0.5 4.5t0.5 4.5v58q-15 -15 -35 -16q-24 0 -38.5 17.5t-14.5 51.5v39q0 39 18 57t43 18zM79 79v-53q0 -33 27 -33t27 33
v53q0 33 -27 33t-27 -33z" />
    <glyph glyph-name="parenleftinferior" unicode="&#x208d;" horiz-adv-x="138" 
d="M95 159q-28 0 -28 -44v-230q0 -44 28 -44h4q9 0 9 -9v-14q0 -9 -9 -9h-4q-33 0 -49 20t-16 67v208q0 47 16 67t49 20h4q9 0 9 -9v-14q0 -9 -9 -9h-4z" />
    <glyph glyph-name="parenrightinferior" unicode="&#x208e;" horiz-adv-x="138" 
d="M43 159h-4q-9 0 -9 9v14q0 9 9 9h4q33 0 49 -20t16 -67v-208q0 -47 -16 -67t-49 -20h-4q-9 0 -9 9v14q0 9 9 9h4q29 0 29 44v230q0 44 -29 44z" />
    <glyph glyph-name="lira" unicode="&#x20a4;" horiz-adv-x="321" 
d="M50 20v300q0 10 -10 10q-11 0 -15.5 4.5t-4.5 15.5v38q0 11 4.5 15.5t15.5 4.5q10 0 10 10v21q0 10 -10 10q-11 0 -15.5 4.5t-4.5 15.5v38q0 11 4.5 15.5t15.5 4.5q10 0 10 10v143q0 11 4.5 15.5t15.5 4.5h44q11 0 15.5 -4.5t4.5 -15.5v-143q0 -10 10 -10h137
q11 0 15.5 -4.5t4.5 -15.5v-38q0 -11 -4.5 -15.5t-15.5 -4.5h-137q-10 0 -10 -10v-21q0 -10 10 -10h137q11 0 15.5 -4.5t4.5 -15.5v-38q0 -11 -4.5 -15.5t-15.5 -4.5h-137q-10 0 -10 -10v-221q0 -16 2.5 -18.5t18.5 -2.5h126q11 0 15.5 -4.5t4.5 -15.5v-38q0 -11 -4.5 -15.5
t-15.5 -4.5h-211q-11 0 -15.5 4.5t-4.5 15.5z" />
    <glyph glyph-name="Euro" unicode="&#x20ac;" horiz-adv-x="420" 
d="M144 468q0 -10 10 -10h49q11 0 15.5 -4.5t4.5 -15.5v-38q0 -11 -4.5 -15.5t-15.5 -4.5h-49q-10 0 -10 -10v-33q0 -10 10 -10h49q11 0 15.5 -4.5t4.5 -15.5v-38q0 -11 -4.5 -15.5t-15.5 -4.5h-49q-10 0 -10 -10v-57q0 -108 76 -108q68 0 75 87q1 16 5 21t15 5h44
q22 0 20 -29q-7 -83 -51.5 -122.5t-107.5 -39.5q-69 0 -114.5 46.5t-45.5 143.5v53q0 10 -10 10h-25q-11 0 -15.5 4.5t-4.5 15.5v38q0 11 4.5 15.5t15.5 4.5h25q10 0 10 10v33q0 10 -10 10h-25q-11 0 -15.5 4.5t-4.5 15.5v38q0 11 4.5 15.5t15.5 4.5h25q10 0 10 10v46
q0 97 45.5 143.5t114.5 46.5q63 0 107.5 -39.5t51.5 -122.5q2 -29 -20 -29h-44q-11 0 -15 5t-5 21q-7 87 -75 87q-76 0 -76 -108v-50z" />
    </font>
</defs>
</svg>
